<svg width="24" height="25" viewBox="0 0 24 25" fill="none" xmlns="http://www.w3.org/2000/svg">
<path d="M23.8237 12.3327C23.8237 11.5118 23.7561 10.6909 23.6211 9.88672H12.1587V14.5273H18.7255C18.4554 16.0183 17.5776 17.3586 16.2946 18.1962V21.2118H20.2111C22.5069 19.1176 23.8237 16.0183 23.8237 12.3327Z" fill="#4285F4"/>
<path d="M12.1591 24.1253C15.4341 24.1253 18.2026 23.0531 20.2115 21.2102L16.295 18.1947C15.1977 18.9318 13.7966 19.3507 12.1591 19.3507C8.98543 19.3507 6.3013 17.223 5.33907 14.375H1.30444V17.4911C3.36396 21.5621 7.5674 24.1253 12.1591 24.1253Z" fill="#34A853"/>
<path d="M5.33955 14.3755C4.83304 12.8845 4.83304 11.2594 5.33955 9.75166V6.65234H1.30429C-0.434762 10.0532 -0.434762 14.0739 1.30429 17.4748L5.33955 14.3755Z" fill="#FBBC04"/>
<path d="M12.1591 4.77535C13.8979 4.74184 15.5691 5.39521 16.8183 6.58468L20.2959 3.13355C18.0844 1.08968 15.1809 -0.032777 12.1591 0.000729109C7.5674 0.000729109 3.36396 2.5807 1.30444 6.65169L5.33907 9.76776C6.3013 6.90299 8.98542 4.77535 12.1591 4.77535Z" fill="#EA4335"/>
</svg>
