<svg width="73" height="30" viewBox="0 0 73 30" fill="none" xmlns="http://www.w3.org/2000/svg">
<path d="M66.5064 11.0169C65.0359 11.0169 65.1895 12.8321 65.1284 14.7699H67.5786C67.5786 12.5857 67.5786 11.0169 66.5064 11.0169ZM65.1284 17.9385C65.1284 19.6917 65.9859 20.03 67.4255 20.03C69.0797 20.03 71.3153 19.5375 72.1731 19.3839V23.6293C71.4995 23.8756 69.4473 24.4595 67.4255 24.4595C63.7805 24.4595 59.3386 23.8751 59.3386 16.0618C59.3386 9.171 62.8307 7.54067 66.5063 7.54067C70.274 7.54067 73 9.47869 73 16.0002V17.9385H65.1284ZM50.7602 11.8474C50.4236 11.8474 49.7496 12.1243 49.3822 12.3399V20.2145C49.6576 20.3072 50.1478 20.3687 50.3623 20.3687C51.3732 20.3687 51.9858 19.5072 51.9858 15.9083C51.9855 12.2473 51.7096 11.8474 50.7602 11.8474ZM51.4339 24.4598C50.6988 24.4598 49.9331 24.2445 49.3819 24.1213V29.997H43.562V7.84836H48.2789L49.1368 8.86348C50.0249 8.0638 51.2811 7.54067 52.5981 7.54067C54.987 7.54067 57.805 8.21731 57.805 15.9078C57.805 24.3371 53.5782 24.4598 51.4339 24.4598ZM38.2006 5.84891C36.5774 5.84891 35.3216 4.5261 35.3216 2.92641C35.3216 1.32672 36.5774 0.00390625 38.2006 0.00390625C39.8243 0.00390625 41.0801 1.32672 41.0801 2.92641C41.0801 4.5261 39.8243 5.84891 38.2006 5.84891ZM35.2909 24.1523V7.84836H41.1108V24.1523H35.2909ZM31.7671 12.432C30.8481 12.432 30.1435 12.8013 29.8372 12.9858V24.1523H24.0175V7.84836H28.6427L29.5003 9.41708C29.8372 8.40196 30.7561 7.54051 32.1039 7.54051C33.0229 7.54051 33.6354 7.72515 33.9108 7.87883V12.739C33.3289 12.5857 32.5633 12.432 31.7671 12.432ZM20.7082 20.0302C21.0757 20.0302 22.3623 19.8459 22.7907 19.7839V23.9369C21.9028 24.152 19.9422 24.4598 18.6559 24.4598C17.0017 24.4598 13.9082 24.2755 13.9082 19.7535V11.5707H11.7641V7.84836H13.9086L14.6436 4.15698L19.7282 2.92657V7.84852H22.7912L22.0256 11.5709H19.7284V18.7077C19.728 19.8148 20.0649 20.0302 20.7082 20.0302ZM5.66697 12.555C5.66697 13.201 6.09602 13.4163 7.10663 13.8777L7.71937 14.1547C9.15886 14.8007 11.1496 15.8467 11.1496 18.923C11.1496 23.8448 7.50451 24.46 4.90105 24.46C3.21636 24.46 1.43983 24.0601 0.245193 23.6913V19.4766C1.28648 19.754 3.09401 20.184 3.8901 20.184C4.77837 20.184 5.45228 20.0613 5.45228 19.2613C5.45228 18.6461 5.0234 18.3694 4.07396 17.9388L3.33871 17.6004C1.96055 16.9542 0 15.8472 0 12.863C0 8.4947 3.39988 7.54134 6.2487 7.54134C8.39294 7.54134 9.80193 8.03334 10.5369 8.31038V12.4017C9.67909 12.125 7.93356 11.7557 6.89211 11.7557C6.18769 11.7554 5.66697 11.9397 5.66697 12.555Z" fill="#359AD5"/>
</svg>
