<svg width="34" height="34" viewBox="0 0 34 34" fill="none" xmlns="http://www.w3.org/2000/svg">
<path d="M16.9996 21.5335C19.5033 21.5335 21.533 19.5038 21.533 17.0001C21.533 14.4964 19.5033 12.4668 16.9996 12.4668C14.496 12.4668 12.4663 14.4964 12.4663 17.0001C12.4663 19.5038 14.496 21.5335 16.9996 21.5335Z" fill="#535353"/>
<path d="M12.7499 2.83301L10.1574 5.66634H5.66659C4.10825 5.66634 2.83325 6.94134 2.83325 8.49967V25.4997C2.83325 27.058 4.10825 28.333 5.66659 28.333H28.3333C29.8916 28.333 31.1666 27.058 31.1666 25.4997V8.49967C31.1666 6.94134 29.8916 5.66634 28.3333 5.66634H23.8424L21.2499 2.83301H12.7499ZM16.9999 24.083C13.0899 24.083 9.91659 20.9097 9.91659 16.9997C9.91659 13.0897 13.0899 9.91634 16.9999 9.91634C20.9099 9.91634 24.0833 13.0897 24.0833 16.9997C24.0833 20.9097 20.9099 24.083 16.9999 24.083Z" fill="#535353"/>
</svg>
