<svg width="746" height="40" viewBox="0 0 746 40" fill="none" xmlns="http://www.w3.org/2000/svg">
<path d="M0.556624 20L2 21.4434L3.44338 20L2 18.5566L0.556624 20ZM2 20.25H342V19.75H2V20.25Z" fill="white"/>
<path d="M745.443 20L744 18.5566L742.557 20L744 21.4434L745.443 20ZM404 20.25H744V19.75H404V20.25Z" fill="white"/>
<path d="M373.613 28.8856L373.12 28.9666L373.113 28.9263L373.113 28.8856L373.113 26.7701L374.056 26.538C374.986 28.3123 376.985 30.7937 380.994 30.8455C384.163 30.8863 386.664 29.7426 388.106 28.0423C389.537 26.3544 389.964 24.0764 388.927 21.7052C387.302 17.9894 385.719 16.4668 383.544 14.3743C382.802 13.6603 381.99 12.8799 381.085 11.9233C381.085 11.9233 381.085 11.9233 381.085 11.9232L381.448 11.5795L373.613 28.8856ZM373.613 28.8856C373.12 28.9666 373.12 28.9669 373.12 28.9672L373.12 28.9681L373.121 28.9704L373.122 28.9773L373.126 29.0006C373.129 29.0203 373.135 29.0481 373.142 29.0835C373.156 29.1544 373.178 29.2559 373.21 29.3839C373.272 29.6398 373.373 30.0024 373.526 30.4386C373.832 31.3101 374.349 32.4818 375.197 33.6858C376.903 36.1067 379.932 38.6328 385.179 39.129L385.202 39.1312L385.226 39.1312L386.349 39.1312L386.349 39.5L359.653 39.5L359.653 39.1312L360.774 39.1312L360.798 39.1312L360.821 39.129C366.069 38.6328 369.098 36.1067 370.803 33.6857C371.651 32.4818 372.169 31.3101 372.474 30.4385C372.627 30.0023 372.728 29.6397 372.79 29.3838C372.822 29.2558 372.844 29.1543 372.858 29.0834C372.865 29.048 372.87 29.0202 372.874 29.0005L372.878 28.9772L372.879 28.9703L372.88 28.968L372.88 28.9671C372.88 28.9668 372.88 28.9665 372.387 28.8856L372.88 28.9665L372.887 28.9263L372.887 28.8856L372.887 26.4503L371.93 26.2469C371.14 28.0193 369.242 30.7907 365.006 30.8455C361.838 30.8863 359.336 29.7426 357.895 28.0423C356.463 26.3544 356.036 24.0765 357.073 21.7053C358.699 17.9888 360.282 16.4663 362.457 14.3732C363.199 13.6595 364.01 12.8794 364.915 11.9233C364.915 11.9233 364.915 11.9233 364.915 11.9232L364.552 11.5795C367.55 8.41391 371.563 3.26627 372.626 0.916145L373.613 28.8856Z" stroke="white"/>
</svg>
