<svg width="288" height="24" viewBox="0 0 288 24" fill="none" xmlns="http://www.w3.org/2000/svg">
<path d="M146.078 10.9531V11.6719C146.078 12.526 145.971 13.2917 145.758 13.9688C145.544 14.6458 145.237 15.2214 144.836 15.6953C144.435 16.1693 143.953 16.5312 143.391 16.7812C142.833 17.0312 142.208 17.1562 141.516 17.1562C140.844 17.1562 140.227 17.0312 139.664 16.7812C139.107 16.5312 138.622 16.1693 138.211 15.6953C137.805 15.2214 137.49 14.6458 137.266 13.9688C137.042 13.2917 136.93 12.526 136.93 11.6719V10.9531C136.93 10.099 137.039 9.33594 137.258 8.66406C137.482 7.98698 137.797 7.41146 138.203 6.9375C138.609 6.45833 139.091 6.09375 139.648 5.84375C140.211 5.59375 140.828 5.46875 141.5 5.46875C142.193 5.46875 142.818 5.59375 143.375 5.84375C143.938 6.09375 144.419 6.45833 144.82 6.9375C145.227 7.41146 145.536 7.98698 145.75 8.66406C145.969 9.33594 146.078 10.099 146.078 10.9531ZM144.586 11.6719V10.9375C144.586 10.2604 144.516 9.66146 144.375 9.14062C144.24 8.61979 144.039 8.18229 143.773 7.82812C143.508 7.47396 143.182 7.20573 142.797 7.02344C142.417 6.84115 141.984 6.75 141.5 6.75C141.031 6.75 140.607 6.84115 140.227 7.02344C139.852 7.20573 139.529 7.47396 139.258 7.82812C138.992 8.18229 138.786 8.61979 138.641 9.14062C138.495 9.66146 138.422 10.2604 138.422 10.9375V11.6719C138.422 12.3542 138.495 12.9583 138.641 13.4844C138.786 14.0052 138.995 14.4453 139.266 14.8047C139.542 15.1589 139.867 15.4271 140.242 15.6094C140.622 15.7917 141.047 15.8828 141.516 15.8828C142.005 15.8828 142.44 15.7917 142.82 15.6094C143.201 15.4271 143.521 15.1589 143.781 14.8047C144.047 14.4453 144.247 14.0052 144.383 13.4844C144.518 12.9583 144.586 12.3542 144.586 11.6719ZM149.562 9.875V17H148.117V8.54688H149.523L149.562 9.875ZM152.203 8.5L152.195 9.84375C152.076 9.81771 151.961 9.80208 151.852 9.79688C151.747 9.78646 151.628 9.78125 151.492 9.78125C151.159 9.78125 150.865 9.83333 150.609 9.9375C150.354 10.0417 150.138 10.1875 149.961 10.375C149.784 10.5625 149.643 10.7865 149.539 11.0469C149.44 11.3021 149.375 11.5833 149.344 11.8906L148.938 12.125C148.938 11.6146 148.987 11.1354 149.086 10.6875C149.19 10.2396 149.349 9.84375 149.562 9.5C149.776 9.15104 150.047 8.88021 150.375 8.6875C150.708 8.48958 151.104 8.39062 151.562 8.39062C151.667 8.39062 151.786 8.40365 151.922 8.42969C152.057 8.45052 152.151 8.47396 152.203 8.5Z" fill="#636363"/>
<path d="M0.556624 12L2 13.4434L3.44338 12L2 10.5566L0.556624 12ZM2 12.25H116V11.75H2V12.25Z" fill="#636363"/>
<path d="M287.443 12L286 10.5566L284.557 12L286 13.4434L287.443 12ZM286 11.75L173 11.75L173 12.25L286 12.25L286 11.75Z" fill="#636363"/>
</svg>
