<svg width="133" height="133" viewBox="0 0 133 133" fill="none" xmlns="http://www.w3.org/2000/svg">
<g opacity="0.4" clip-path="url(#clip0_1_540)">
<path d="M43.6494 38.2872C39.2065 42.0512 36.4313 47.4187 35.9288 53.22L33.1143 82.8687C32.8624 85.7665 33.7711 88.6458 35.6407 90.8739C37.5104 93.1021 40.1881 94.497 43.0856 94.752L72.6241 97.2534C78.4245 97.7659 84.1924 95.965 88.6707 92.2432C90.9401 90.386 92.8174 88.0957 94.1931 85.506C95.5687 82.9162 96.4154 80.0785 96.6837 77.1584C96.9521 74.2382 96.6367 71.2938 95.756 68.4967C94.8753 65.6997 93.4468 63.1058 91.5538 60.8662C94.7434 59.462 98.1771 58.6963 101.661 58.6122C102.405 58.6004 103.13 58.3748 103.749 57.9622C104.369 57.5497 104.856 56.9676 105.154 56.2856C105.452 55.6035 105.547 54.8502 105.428 54.1156C105.309 53.3809 104.982 52.696 104.484 52.1424L85.7384 29.8018C85.2686 29.238 84.6484 28.8191 83.95 28.5938C83.2516 28.3684 82.5035 28.3458 81.7928 28.5287C81.082 28.7116 80.4378 29.0923 79.9348 29.6268C79.4318 30.1612 79.0908 30.8274 78.9514 31.548C78.2675 34.9655 76.9169 38.2148 74.9766 41.1102C73.1208 38.8505 70.8344 36.9823 68.2502 35.6139C65.6661 34.2456 62.8358 33.4045 59.9237 33.1395C57.0117 32.8745 54.076 33.1909 51.2872 34.0704C48.4985 34.9498 45.9124 36.3747 43.6791 38.2623L43.6494 38.2872ZM59.0909 40.8217C61.6535 41.0656 64.1068 41.98 66.2038 43.473C68.3009 44.966 69.9678 46.9849 71.0369 49.3266C71.1636 49.5067 71.3054 49.6757 71.4607 49.8317L71.9593 50.4259C72.1875 50.6132 72.4305 50.7818 72.6859 50.9299L73.0599 51.3755C73.2714 51.4395 73.49 51.4772 73.7107 51.4875C73.9814 51.5805 74.2644 51.6331 74.5504 51.6435C74.7054 51.595 74.8651 51.5628 75.0268 51.5475C75.3578 51.4921 75.6857 51.4197 76.0092 51.3307C76.1995 51.196 76.3783 51.0459 76.544 50.882C76.7223 50.7324 76.9005 50.5828 77.0788 50.4333C80.1063 47.4957 82.5658 44.0247 84.3335 40.1945L94.0057 51.7213C90.038 52.6522 86.274 54.3007 82.8993 56.5856C82.7211 56.7352 82.5428 56.8847 82.3348 57.0592C82.1446 57.1939 81.9658 57.344 81.8001 57.5079C81.6308 57.819 81.5002 58.1496 81.4111 58.4924C81.3464 58.6291 81.2969 58.7725 81.2636 58.92C81.2034 59.1909 81.1976 59.4711 81.2465 59.7443C81.2309 59.9641 81.23 60.1848 81.2438 60.4047L81.5928 60.8206C81.6748 61.1219 81.7977 61.4106 81.9582 61.6784L82.4318 62.2429C82.5665 62.4331 82.7166 62.612 82.8805 62.7776C85.0308 64.3057 86.7328 66.3815 87.8097 68.7896C88.8866 71.1977 89.2992 73.8501 89.0047 76.4716C88.6594 80.2793 86.8286 83.798 83.9084 86.266C82.4603 87.4889 80.7837 88.4119 78.976 88.9815C77.1682 89.5511 75.2653 89.7559 73.3778 89.5841L43.8143 87.053C43 86.9707 42.2499 86.5738 41.7238 85.9468C41.1977 85.3198 40.9371 84.5122 40.9974 83.696L43.464 53.9342C43.6225 52.0455 44.1546 50.2071 45.0295 48.5257C45.9044 46.8443 47.1045 45.3535 48.5602 44.1397C51.5039 41.7036 55.2824 40.5131 59.0909 40.8217Z" fill="url(#paint0_linear_1_540)"/>
<path d="M43.6494 38.2872C39.2065 42.0512 36.4313 47.4187 35.9288 53.22L33.1143 82.8687C32.8624 85.7665 33.7711 88.6458 35.6407 90.8739C37.5104 93.1021 40.1881 94.497 43.0856 94.752L72.6241 97.2534C78.4245 97.7659 84.1924 95.965 88.6707 92.2432C90.9401 90.386 92.8174 88.0957 94.1931 85.506C95.5687 82.9162 96.4154 80.0785 96.6837 77.1584C96.9521 74.2382 96.6367 71.2938 95.756 68.4967C94.8753 65.6997 93.4468 63.1058 91.5538 60.8662C94.7434 59.462 98.1771 58.6963 101.661 58.6122C102.405 58.6004 103.13 58.3748 103.749 57.9622C104.369 57.5497 104.856 56.9676 105.154 56.2856C105.452 55.6035 105.547 54.8502 105.428 54.1156C105.309 53.3809 104.982 52.696 104.484 52.1424L85.7384 29.8018C85.2686 29.238 84.6484 28.8191 83.95 28.5938C83.2516 28.3684 82.5035 28.3458 81.7928 28.5287C81.082 28.7116 80.4378 29.0923 79.9348 29.6268C79.4318 30.1612 79.0908 30.8274 78.9514 31.548C78.2675 34.9655 76.9169 38.2148 74.9766 41.1102C73.1208 38.8505 70.8344 36.9823 68.2502 35.6139C65.6661 34.2456 62.8358 33.4045 59.9237 33.1395C57.0117 32.8745 54.076 33.1909 51.2872 34.0704C48.4985 34.9498 45.9124 36.3747 43.6791 38.2623L43.6494 38.2872ZM59.0909 40.8217C61.6535 41.0656 64.1068 41.98 66.2038 43.473C68.3009 44.966 69.9678 46.9849 71.0369 49.3266C71.1636 49.5067 71.3054 49.6757 71.4607 49.8317L71.9593 50.4259C72.1875 50.6132 72.4305 50.7818 72.6859 50.9299L73.0599 51.3755C73.2714 51.4395 73.49 51.4772 73.7107 51.4875C73.9814 51.5805 74.2644 51.6331 74.5504 51.6435C74.7054 51.595 74.8651 51.5628 75.0268 51.5475C75.3578 51.4921 75.6857 51.4197 76.0092 51.3307C76.1995 51.196 76.3783 51.0459 76.544 50.882C76.7223 50.7324 76.9005 50.5828 77.0788 50.4333C80.1063 47.4957 82.5658 44.0247 84.3335 40.1945L94.0057 51.7213C90.038 52.6522 86.274 54.3007 82.8993 56.5856C82.7211 56.7352 82.5428 56.8847 82.3348 57.0592C82.1446 57.1939 81.9658 57.344 81.8001 57.5079C81.6308 57.819 81.5002 58.1496 81.4111 58.4924C81.3464 58.6291 81.2969 58.7725 81.2636 58.92C81.2034 59.1909 81.1976 59.4711 81.2465 59.7443C81.2309 59.9641 81.23 60.1848 81.2438 60.4047L81.5928 60.8206C81.6748 61.1219 81.7977 61.4106 81.9582 61.6784L82.4318 62.2429C82.5665 62.4331 82.7166 62.612 82.8805 62.7776C85.0308 64.3057 86.7328 66.3815 87.8097 68.7896C88.8866 71.1977 89.2992 73.8501 89.0047 76.4716C88.6594 80.2793 86.8286 83.798 83.9084 86.266C82.4603 87.4889 80.7837 88.4119 78.976 88.9815C77.1682 89.5511 75.2653 89.7559 73.3778 89.5841L43.8143 87.053C43 86.9707 42.2499 86.5738 41.7238 85.9468C41.1977 85.3198 40.9371 84.5122 40.9974 83.696L43.464 53.9342C43.6225 52.0455 44.1546 50.2071 45.0295 48.5257C45.9044 46.8443 47.1045 45.3535 48.5602 44.1397C51.5039 41.7036 55.2824 40.5131 59.0909 40.8217Z" fill="url(#paint1_linear_1_540)"/>
</g>
<defs>
<linearGradient id="paint0_linear_1_540" x1="35.6412" y1="90.8745" x2="95.1136" y2="40.9713" gradientUnits="userSpaceOnUse">
<stop stop-color="#A80D7E"/>
<stop offset="1" stop-color="#7626A9"/>
</linearGradient>
<linearGradient id="paint1_linear_1_540" x1="52.051" y1="110.431" x2="34.4683" y2="63.8752" gradientUnits="userSpaceOnUse">
<stop stop-color="#AD0B40" stop-opacity="0.878431"/>
<stop offset="1" stop-color="#FF1917"/>
</linearGradient>
<clipPath id="clip0_1_540">
<rect width="93.6982" height="93.6982" fill="white" transform="translate(60.228 132.005) rotate(-130)"/>
</clipPath>
</defs>
</svg>
