<svg width="160" height="160" viewBox="0 0 160 160" fill="none" xmlns="http://www.w3.org/2000/svg">
<path d="M61.328 113.428L105.54 115.006C107.508 114.874 109.429 114.338 111.182 113.433C112.936 112.528 114.484 111.272 115.732 109.744C116.98 108.215 117.901 106.447 118.437 104.548C118.973 102.649 119.113 100.66 118.849 98.7049L109.743 55.7288C108.934 53.0933 107.383 50.7466 105.276 48.969C103.2 47.3304 100.718 46.2884 98.0951 45.955L97.6611 45.9596L53.5705 44.2368C51.6363 44.3505 49.7462 44.861 48.0178 45.7365C46.2893 46.6121 44.7596 47.8339 43.5236 49.326C42.2373 50.8617 41.2855 52.6488 40.7289 54.5731C40.1724 56.4974 40.0232 58.5167 40.2911 60.5019L49.4276 103.442C50.2658 106.073 51.857 108.401 54.0044 110.137C56.1518 111.874 58.7611 112.942 61.5096 113.211L61.328 113.428ZM58.3615 101.29L49.482 58.9961C49.4256 57.7744 49.7994 56.5717 50.5384 55.5973C51.2774 54.6229 52.3348 53.9386 53.5264 53.6635L97.1051 55.264C97.8765 55.3892 98.6046 55.7044 99.2237 56.1813C99.7794 56.6567 100.229 57.2434 100.544 57.9036L109.423 100.198C109.48 101.42 109.106 102.622 108.367 103.597C107.628 104.571 106.571 105.255 105.379 105.53L62.09 103.804C61.1949 103.692 60.351 103.325 59.6585 102.747C59.1677 102.294 58.7685 101.75 58.4825 101.146L58.3615 101.29Z" fill="url(#paint0_linear_62_920)" fill-opacity="0.4"/>
<path d="M61.328 113.428L105.54 115.006C107.508 114.874 109.429 114.338 111.182 113.433C112.936 112.528 114.484 111.272 115.732 109.744C116.98 108.215 117.901 106.447 118.437 104.548C118.973 102.649 119.113 100.66 118.849 98.7049L109.743 55.7288C108.934 53.0933 107.383 50.7466 105.276 48.969C103.2 47.3304 100.718 46.2884 98.0951 45.955L97.6611 45.9596L53.5705 44.2368C51.6363 44.3505 49.7462 44.861 48.0178 45.7365C46.2893 46.6121 44.7596 47.8339 43.5236 49.326C42.2373 50.8617 41.2855 52.6488 40.7289 54.5731C40.1724 56.4974 40.0232 58.5167 40.2911 60.5019L49.4276 103.442C50.2658 106.073 51.857 108.401 54.0044 110.137C56.1518 111.874 58.7611 112.942 61.5096 113.211L61.328 113.428ZM58.3615 101.29L49.482 58.9961C49.4256 57.7744 49.7994 56.5717 50.5384 55.5973C51.2774 54.6229 52.3348 53.9386 53.5264 53.6635L97.1051 55.264C97.8765 55.3892 98.6046 55.7044 99.2237 56.1813C99.7794 56.6567 100.229 57.2434 100.544 57.9036L109.423 100.198C109.48 101.42 109.106 102.622 108.367 103.597C107.628 104.571 106.571 105.255 105.379 105.53L62.09 103.804C61.1949 103.692 60.351 103.325 59.6585 102.747C59.1677 102.294 58.7685 101.75 58.4825 101.146L58.3615 101.29Z" fill="url(#paint1_linear_62_920)"/>
<defs>
<linearGradient id="paint0_linear_62_920" x1="115.686" y1="109.801" x2="43.561" y2="49.2809" gradientUnits="userSpaceOnUse">
<stop stop-color="#A90D7D"/>
<stop offset="1" stop-color="#7128AE"/>
</linearGradient>
<linearGradient id="paint1_linear_62_920" x1="134.324" y1="87.5888" x2="85.9764" y2="117.604" gradientUnits="userSpaceOnUse">
<stop stop-color="#AD0B40" stop-opacity="0.878431"/>
<stop offset="1" stop-color="#FF1917"/>
</linearGradient>
</defs>
</svg>
