<svg width="76" height="76" viewBox="0 0 76 76" fill="none" xmlns="http://www.w3.org/2000/svg">
<path d="M7.125 26.125H68.875M7.125 28.5H68.875M16.625 45.125H35.625M16.625 52.25H26.125M14.25 61.75H61.75C63.6397 61.75 65.4519 60.9993 66.7881 59.6631C68.1243 58.3269 68.875 56.5147 68.875 54.625V21.375C68.875 19.4853 68.1243 17.6731 66.7881 16.3369C65.4519 15.0007 63.6397 14.25 61.75 14.25H14.25C12.3603 14.25 10.5481 15.0007 9.21186 16.3369C7.87567 17.6731 7.125 19.4853 7.125 21.375V54.625C7.125 56.5147 7.87567 58.3269 9.21186 59.6631C10.5481 60.9993 12.3603 61.75 14.25 61.75Z" stroke="url(#paint0_linear_1_691)" stroke-width="4.75" stroke-linecap="round" stroke-linejoin="round"/>
<path d="M7.125 26.125H68.875M7.125 28.5H68.875M16.625 45.125H35.625M16.625 52.25H26.125M14.25 61.75H61.75C63.6397 61.75 65.4519 60.9993 66.7881 59.6631C68.1243 58.3269 68.875 56.5147 68.875 54.625V21.375C68.875 19.4853 68.1243 17.6731 66.7881 16.3369C65.4519 15.0007 63.6397 14.25 61.75 14.25H14.25C12.3603 14.25 10.5481 15.0007 9.21186 16.3369C7.87567 17.6731 7.125 19.4853 7.125 21.375V54.625C7.125 56.5147 7.87567 58.3269 9.21186 59.6631C10.5481 60.9993 12.3603 61.75 14.25 61.75Z" stroke="url(#paint1_linear_1_691)" stroke-width="4.75" stroke-linecap="round" stroke-linejoin="round"/>
<defs>
<linearGradient id="paint0_linear_1_691" x1="14.9467" y1="18.3687" x2="74.1644" y2="52.2259" gradientUnits="userSpaceOnUse">
<stop offset="0.338542" stop-color="#FF12B3"/>
<stop offset="1" stop-color="#7D07F4"/>
</linearGradient>
<linearGradient id="paint1_linear_1_691" x1="15.5674" y1="14.25" x2="52.5403" y2="32.8557" gradientUnits="userSpaceOnUse">
<stop stop-color="#AD0B40" stop-opacity="0.878431"/>
<stop offset="1" stop-color="#FF1917"/>
</linearGradient>
</defs>
</svg>
