<svg width="64" height="58" viewBox="0 0 64 58" fill="none" xmlns="http://www.w3.org/2000/svg">
<path d="M55.75 30.8113L32 54.3333L8.24999 30.8113C6.68346 29.2869 5.44952 27.4547 4.62589 25.43C3.80226 23.4053 3.40677 21.232 3.46432 19.0469C3.52188 16.8618 4.03124 14.7124 4.96032 12.7338C5.8894 10.7553 7.21808 8.99059 8.86269 7.55079C10.5073 6.11098 12.4322 5.0273 14.5162 4.36797C16.6002 3.70865 18.7982 3.48797 20.9717 3.71982C23.1451 3.95168 25.2471 4.63105 27.1451 5.71515C29.0431 6.79926 30.6961 8.26462 32 10.0189C33.3095 8.27735 34.9644 6.8248 36.8611 5.7522C38.7579 4.6796 40.8556 4.01004 43.0229 3.78543C45.1903 3.56082 47.3807 3.78599 49.4571 4.44686C51.5335 5.10772 53.4511 6.19005 55.0899 7.6261C56.7287 9.06215 58.0535 10.821 58.9813 12.7926C59.9091 14.7642 60.42 16.9061 60.482 19.0842C60.5439 21.2623 60.1556 23.4298 59.3414 25.4509C58.5272 27.4721 57.3045 29.3034 55.75 30.8303" stroke="url(#paint0_linear_1_685)" stroke-width="6" stroke-linecap="round" stroke-linejoin="round"/>
<path d="M55.75 30.8113L32 54.3333L8.24999 30.8113C6.68346 29.2869 5.44952 27.4547 4.62589 25.43C3.80226 23.4053 3.40677 21.232 3.46432 19.0469C3.52188 16.8618 4.03124 14.7124 4.96032 12.7338C5.8894 10.7553 7.21808 8.99059 8.86269 7.55079C10.5073 6.11098 12.4322 5.0273 14.5162 4.36797C16.6002 3.70865 18.7982 3.48797 20.9717 3.71982C23.1451 3.95168 25.2471 4.63105 27.1451 5.71515C29.0431 6.79926 30.6961 8.26462 32 10.0189C33.3095 8.27735 34.9644 6.8248 36.8611 5.7522C38.7579 4.6796 40.8556 4.01004 43.0229 3.78543C45.1903 3.56082 47.3807 3.78599 49.4571 4.44686C51.5335 5.10772 53.4511 6.19005 55.0899 7.6261C56.7287 9.06215 58.0535 10.821 58.9813 12.7926C59.9091 14.7642 60.42 16.9061 60.482 19.0842C60.5439 21.2623 60.1556 23.4298 59.3414 25.4509C58.5272 27.4721 57.3045 29.3034 55.75 30.8303" stroke="url(#paint1_linear_1_685)" stroke-width="6" stroke-linecap="round" stroke-linejoin="round"/>
<path d="M32 10L21.5721 20.4278C20.9785 21.0217 20.645 21.827 20.645 22.6667C20.645 23.5064 20.9785 24.3117 21.5721 24.9055L23.2916 26.625C25.4766 28.81 29.0233 28.81 31.2083 26.625L34.375 23.4583C36.2647 21.5687 38.8276 20.5071 41.5 20.5071C44.1724 20.5071 46.7353 21.5687 48.625 23.4583L55.75 30.5833M33.5833 40.0833L39.9166 46.4167M41.5 32.1667L47.8333 38.5" stroke="url(#paint2_linear_1_685)" stroke-width="6" stroke-linecap="round" stroke-linejoin="round"/>
<path d="M32 10L21.5721 20.4278C20.9785 21.0217 20.645 21.827 20.645 22.6667C20.645 23.5064 20.9785 24.3117 21.5721 24.9055L23.2916 26.625C25.4766 28.81 29.0233 28.81 31.2083 26.625L34.375 23.4583C36.2647 21.5687 38.8276 20.5071 41.5 20.5071C44.1724 20.5071 46.7353 21.5687 48.625 23.4583L55.75 30.5833M33.5833 40.0833L39.9166 46.4167M41.5 32.1667L47.8333 38.5" stroke="url(#paint3_linear_1_685)" stroke-width="6" stroke-linecap="round" stroke-linejoin="round"/>
<defs>
<linearGradient id="paint0_linear_1_685" x1="10.6826" y1="8.02691" x2="68.9843" y2="36.8676" gradientUnits="userSpaceOnUse">
<stop offset="0.338542" stop-color="#FF12B3"/>
<stop offset="1" stop-color="#7D07F4"/>
</linearGradient>
<linearGradient id="paint1_linear_1_685" x1="11.2558" y1="3.63049" x2="47.2299" y2="19.2936" gradientUnits="userSpaceOnUse">
<stop stop-color="#AD0B40" stop-opacity="0.878431"/>
<stop offset="1" stop-color="#FF1917"/>
</linearGradient>
<linearGradient id="paint2_linear_1_685" x1="25.0916" y1="13.1577" x2="62.956" y2="29.2106" gradientUnits="userSpaceOnUse">
<stop offset="0.338542" stop-color="#FF12B3"/>
<stop offset="1" stop-color="#7D07F4"/>
</linearGradient>
<linearGradient id="paint3_linear_1_685" x1="25.4445" y1="10" x2="48.5669" y2="18.6282" gradientUnits="userSpaceOnUse">
<stop stop-color="#AD0B40" stop-opacity="0.878431"/>
<stop offset="1" stop-color="#FF1917"/>
</linearGradient>
</defs>
</svg>
