<svg width="76" height="76" viewBox="0 0 76 76" fill="none" xmlns="http://www.w3.org/2000/svg">
<path d="M66.4849 21.8468C66.4322 21.3146 66.2454 20.8045 65.9419 20.3642C65.6384 19.9239 65.2281 19.5678 64.7495 19.3293L39.4162 6.66265C38.9762 6.4425 38.4911 6.32788 37.9991 6.32788C37.5071 6.32788 37.022 6.4425 36.582 6.66265L11.2487 19.3293C10.7714 19.5692 10.3624 19.9257 10.0596 20.3658C9.75677 20.8059 9.56998 21.3153 9.51652 21.8468C9.48168 22.1856 6.47335 55.9423 36.715 69.3911C37.1191 69.5735 37.5574 69.6678 38.0007 69.6678C38.444 69.6678 38.8823 69.5735 39.2864 69.3911C69.528 55.9423 66.5197 22.1888 66.4849 21.8468ZM38.0007 63.004C16.5655 52.6426 15.5522 30.5298 15.7263 24.1743L38.0007 13.0371L60.2592 24.168C60.3764 30.4665 59.2205 52.725 38.0007 63.004Z" fill="#0C0C0C"/>
<path d="M66.4849 21.8468C66.4322 21.3146 66.2454 20.8045 65.9419 20.3642C65.6384 19.9239 65.2281 19.5678 64.7495 19.3293L39.4162 6.66265C38.9762 6.4425 38.4911 6.32788 37.9991 6.32788C37.5071 6.32788 37.022 6.4425 36.582 6.66265L11.2487 19.3293C10.7714 19.5692 10.3624 19.9257 10.0596 20.3658C9.75677 20.8059 9.56998 21.3153 9.51652 21.8468C9.48168 22.1856 6.47335 55.9423 36.715 69.3911C37.1191 69.5735 37.5574 69.6678 38.0007 69.6678C38.444 69.6678 38.8823 69.5735 39.2864 69.3911C69.528 55.9423 66.5197 22.1888 66.4849 21.8468ZM38.0007 63.004C16.5655 52.6426 15.5522 30.5298 15.7263 24.1743L38.0007 13.0371L60.2592 24.168C60.3764 30.4665 59.2205 52.725 38.0007 63.004Z" fill="url(#paint0_linear_1_696)"/>
<path d="M66.4849 21.8468C66.4322 21.3146 66.2454 20.8045 65.9419 20.3642C65.6384 19.9239 65.2281 19.5678 64.7495 19.3293L39.4162 6.66265C38.9762 6.4425 38.4911 6.32788 37.9991 6.32788C37.5071 6.32788 37.022 6.4425 36.582 6.66265L11.2487 19.3293C10.7714 19.5692 10.3624 19.9257 10.0596 20.3658C9.75677 20.8059 9.56998 21.3153 9.51652 21.8468C9.48168 22.1856 6.47335 55.9423 36.715 69.3911C37.1191 69.5735 37.5574 69.6678 38.0007 69.6678C38.444 69.6678 38.8823 69.5735 39.2864 69.3911C69.528 55.9423 66.5197 22.1888 66.4849 21.8468ZM38.0007 63.004C16.5655 52.6426 15.5522 30.5298 15.7263 24.1743L38.0007 13.0371L60.2592 24.168C60.3764 30.4665 59.2205 52.725 38.0007 63.004Z" fill="url(#paint1_linear_1_696)"/>
<path d="M33.713 40.971L34.8326 42.0906L35.9521 40.971L48.4271 28.4961L50.6656 30.7346L34.8326 46.5676L25.3329 37.068L27.5714 34.8295L33.713 40.971Z" fill="#0C0C0C"/>
<path d="M33.713 40.971L34.8326 42.0906L35.9521 40.971L48.4271 28.4961L50.6656 30.7346L34.8326 46.5676L25.3329 37.068L27.5714 34.8295L33.713 40.971Z" stroke="url(#paint2_linear_1_696)" stroke-width="3.16667"/>
<path d="M33.713 40.971L34.8326 42.0906L35.9521 40.971L48.4271 28.4961L50.6656 30.7346L34.8326 46.5676L25.3329 37.068L27.5714 34.8295L33.713 40.971Z" stroke="url(#paint3_linear_1_696)" stroke-width="3.16667"/>
<defs>
<linearGradient id="paint0_linear_1_696" x1="16.6596" y1="11.8201" x2="79.499" y2="36.7619" gradientUnits="userSpaceOnUse">
<stop offset="0.338542" stop-color="#FF12B3"/>
<stop offset="1" stop-color="#7D07F4"/>
</linearGradient>
<linearGradient id="paint1_linear_1_696" x1="17.2342" y1="6.32788" x2="55.4629" y2="19.6831" gradientUnits="userSpaceOnUse">
<stop stop-color="#AD0B40" stop-opacity="0.878431"/>
<stop offset="1" stop-color="#FF1917"/>
</linearGradient>
<linearGradient id="paint2_linear_1_696" x1="26.8698" y1="28.2122" x2="55.2198" y2="44.6955" gradientUnits="userSpaceOnUse">
<stop offset="0.338542" stop-color="#FF12B3"/>
<stop offset="1" stop-color="#7D07F4"/>
</linearGradient>
<linearGradient id="paint3_linear_1_696" x1="27.1694" y1="26.257" x2="44.8966" y2="35.3287" gradientUnits="userSpaceOnUse">
<stop stop-color="#AD0B40" stop-opacity="0.878431"/>
<stop offset="1" stop-color="#FF1917"/>
</linearGradient>
</defs>
</svg>
