<svg width="547" height="235" viewBox="0 0 547 235" fill="none" xmlns="http://www.w3.org/2000/svg">
<g filter="url(#filter0_d_777_17565)">
<g filter="url(#filter1_d_777_17565)">
<path d="M86.7266 92.6912H168.308V144.377H86.7266L115.976 118.534L86.7266 92.6912ZM460.33 92.6912H378.749V144.377H460.33L431.081 118.534L460.33 92.6912Z" fill="#830B0A"/>
</g>
<g filter="url(#filter2_d_777_17565)">
<path d="M147 83.002V136.887H399.732V83.002H202.374H147Z" fill="#B80D0C"/>
<path d="M147 83.002V136.887H399.732V83.002H202.374H147Z" fill="url(#paint0_linear_777_17565)" fill-opacity="0.5"/>
</g>
<path d="M185.151 119.729C187.727 119.729 191.091 116.82 191.636 114.335H191.848C191.697 115.335 191.364 116.305 191.182 117.305C191.03 118.214 191.03 119.123 190.848 120.002H190.636C190.727 119.699 190.394 119.638 190.182 119.638C188.727 119.638 187.03 120.305 185.303 120.305C179.212 120.305 176.303 114.881 176.303 109.396C176.303 103.911 179.212 98.487 185.303 98.487C186.97 98.487 188.606 99.1537 189.909 99.1537C190.151 99.1537 190.364 99.093 190.303 98.79H190.515C190.697 99.6688 190.697 100.578 190.848 101.487C191.03 102.487 191.364 103.457 191.515 104.457H191.303C190.727 101.82 186.667 99.2446 184.061 99.2446C180.212 99.2446 179.485 103.911 179.485 106.881C179.485 110.184 180.545 119.729 185.151 119.729ZM193.296 112.426C193.296 108.305 195.508 104.548 200.023 104.548C204.539 104.548 206.72 108.305 206.72 112.426C206.72 116.547 204.539 120.305 200.023 120.305C195.508 120.305 193.296 116.547 193.296 112.426ZM195.933 110.638C195.933 113.305 197.084 119.79 200.69 119.79C203.448 119.79 204.084 116.305 204.084 114.214C204.084 111.547 202.963 105.063 199.327 105.063C196.569 105.063 195.933 108.517 195.933 110.638ZM214.975 120.002C213.611 120.002 212.854 119.82 211.551 119.82C210.338 119.82 209.157 120.002 207.945 120.002V119.82C209.611 119.82 210.096 119.063 210.096 114.638V111.426C210.096 108.275 210.096 107.396 208.429 107.396V107.214C210.338 106.972 211.854 105.911 212.641 104.548H212.823V108.578C213.945 106.548 215.975 104.548 218.308 104.548C220.702 104.548 221.732 106.699 221.732 109.729V114.638C221.732 119.063 222.217 119.82 223.884 119.82V120.002C222.52 120.002 221.763 119.82 220.46 119.82C219.247 119.82 218.066 120.002 216.854 120.002V119.82C218.52 119.82 219.005 119.063 219.005 114.638V111.123C219.005 108.244 217.975 106.396 216.399 106.396C215.399 106.396 214.157 107.184 212.823 109.002V114.638C212.823 119.063 213.308 119.82 214.975 119.82V120.002ZM224.907 110.335C224.907 106.79 227.21 104.548 230.725 104.548H236.24V104.669L233.573 105.214C235.331 106.154 236.361 107.972 236.361 110.335C236.361 113.85 234.119 116.184 230.604 116.184C229.028 116.184 227.695 115.669 226.695 114.79C226.543 115.002 226.452 115.184 226.452 115.366C226.452 117.275 236.816 118.487 236.816 122.82C236.816 125.305 233.392 126.517 230.331 126.517C226.998 126.517 224.664 125.093 224.664 123.032C224.664 121.305 226.301 120.517 228.967 119.972C226.846 119.063 224.816 118.123 224.816 116.487C224.816 115.729 225.24 115.184 226.452 114.547C225.483 113.517 224.907 112.063 224.907 110.335ZM227.634 110.517C227.604 113.729 228.846 115.85 230.573 115.76C232.422 115.669 233.543 113.517 233.604 110.244C233.634 107.002 232.422 104.851 230.604 104.941C228.846 105.002 227.664 107.214 227.634 110.517ZM229.331 120.123C228.422 120.638 227.543 121.85 227.543 123.032C227.543 124.729 229.301 126.153 231.27 126.153C232.755 126.153 233.907 125.335 233.907 124.002C233.907 122.093 231.604 121.093 229.331 120.123ZM244.479 120.002C243.115 120.002 242.357 119.82 241.054 119.82C239.842 119.82 238.66 120.002 237.448 120.002V119.82C239.115 119.82 239.6 119.063 239.6 114.638V111.426C239.6 108.275 239.6 107.396 237.933 107.396V107.214C239.842 106.972 241.357 105.911 242.145 104.548H242.327V110.911C242.873 107.972 244.63 104.548 247.297 104.548C248.6 104.548 249.66 105.396 250.175 106.851L249.448 111.669H249.327C248.963 108.487 247.782 106.699 246.176 106.699C244.448 106.699 242.721 108.76 242.327 112.699V114.638C242.327 119.063 242.812 119.82 244.479 119.82V120.002ZM258.809 120.305V116.941C258.203 119.032 256.719 120.305 254.234 120.305C252.416 120.305 250.173 119.608 250.173 116.699C250.173 113.335 253.203 111.184 256.688 111.184C257.294 111.184 258.112 111.244 258.809 111.457V111.123C258.809 108.063 257.506 106.396 255.779 106.396C254.537 106.396 253.022 107.335 251.688 109.244H251.537C252.658 106.426 254.688 104.548 257.325 104.548C259.961 104.548 261.537 106.457 261.537 109.729V114.638C261.537 119.063 262.021 119.82 263.688 119.82V120.002C262.082 120.002 260.567 120.002 259.112 120.305H258.809ZM258.809 116.063V113.032C258.779 112.063 258.173 111.487 257.052 111.487C255.082 111.487 252.991 113.275 252.961 116.032C252.931 118.76 254.991 119.335 255.87 119.335C257.294 119.335 258.476 117.82 258.809 116.063ZM271.31 116.729L271.431 116.76C271.098 118.275 270.431 120.305 267.795 120.305C264.552 120.305 265.068 117.244 265.068 113.154V108.881C265.068 105.729 265.068 104.851 263.401 104.851V104.669C265.31 104.426 266.825 103.366 267.613 102.002H267.795V104.426H271.128V105.032H267.795V113.154C267.795 116.214 267.886 118.85 269.28 118.85C270.31 118.85 271.007 117.426 271.31 116.729ZM282.292 111.426C282.292 108.275 282.292 107.396 280.626 107.396V107.214C282.535 106.972 284.05 105.911 284.838 104.548H285.019V114.638C285.019 119.063 285.504 119.82 287.171 119.82V120.002C285.565 120.002 284.05 120.002 282.595 120.305H282.292V116.275C281.171 118.305 279.141 120.305 276.807 120.305C274.413 120.305 273.383 118.153 273.383 115.123V111.426C273.383 108.275 273.383 107.396 271.716 107.396V107.214C273.626 106.972 275.141 105.911 275.929 104.548H276.11V113.729C276.11 116.608 277.141 118.457 278.716 118.457C279.716 118.457 280.959 117.669 282.292 115.85V111.426ZM295.407 120.002C294.044 120.002 293.286 119.82 291.983 119.82C290.771 119.82 289.589 120.002 288.377 120.002V119.82C290.044 119.82 290.529 119.063 290.529 114.638V104.154C290.529 101.002 290.529 100.123 288.862 100.123V99.9415C290.771 99.6991 292.286 98.6385 293.074 97.2749H293.256V114.638C293.256 119.063 293.741 119.82 295.407 119.82V120.002ZM304.5 120.305V116.941C303.894 119.032 302.409 120.305 299.925 120.305C298.106 120.305 295.864 119.608 295.864 116.699C295.864 113.335 298.894 111.184 302.379 111.184C302.985 111.184 303.803 111.244 304.5 111.457V111.123C304.5 108.063 303.197 106.396 301.47 106.396C300.228 106.396 298.712 107.335 297.379 109.244H297.228C298.349 106.426 300.379 104.548 303.015 104.548C305.652 104.548 307.228 106.457 307.228 109.729V114.638C307.228 119.063 307.712 119.82 309.379 119.82V120.002C307.773 120.002 306.258 120.002 304.803 120.305H304.5ZM304.5 116.063V113.032C304.47 112.063 303.864 111.487 302.743 111.487C300.773 111.487 298.682 113.275 298.652 116.032C298.622 118.76 300.682 119.335 301.561 119.335C302.985 119.335 304.167 117.82 304.5 116.063ZM317.001 116.729L317.122 116.76C316.789 118.275 316.122 120.305 313.486 120.305C310.243 120.305 310.759 117.244 310.759 113.154V108.881C310.759 105.729 310.759 104.851 309.092 104.851V104.669C311.001 104.426 312.516 103.366 313.304 102.002H313.486V104.426H316.819V105.032H313.486V113.154C313.486 116.214 313.577 118.85 314.971 118.85C316.001 118.85 316.698 117.426 317.001 116.729ZM318.941 101.699L321.093 98.8506L323.244 101.699L321.093 104.548L318.941 101.699ZM324.911 120.002C323.547 120.002 322.79 119.82 321.487 119.82C320.275 119.82 319.093 120.002 317.881 120.002V119.82C319.548 119.82 320.032 119.063 320.032 114.638V111.426C320.032 108.275 320.032 107.396 318.366 107.396V107.214C320.275 106.972 321.79 105.911 322.578 104.548H322.76V114.638C322.76 119.063 323.244 119.82 324.911 119.82V120.002ZM325.545 112.426C325.545 108.305 327.757 104.548 332.273 104.548C336.788 104.548 338.969 108.305 338.969 112.426C338.969 116.547 336.788 120.305 332.273 120.305C327.757 120.305 325.545 116.547 325.545 112.426ZM328.182 110.638C328.182 113.305 329.333 119.79 332.939 119.79C335.697 119.79 336.333 116.305 336.333 114.214C336.333 111.547 335.212 105.063 331.576 105.063C328.818 105.063 328.182 108.517 328.182 110.638ZM347.224 120.002C345.86 120.002 345.103 119.82 343.8 119.82C342.588 119.82 341.406 120.002 340.194 120.002V119.82C341.86 119.82 342.345 119.063 342.345 114.638V111.426C342.345 108.275 342.345 107.396 340.678 107.396V107.214C342.588 106.972 344.103 105.911 344.891 104.548H345.072V108.578C346.194 106.548 348.224 104.548 350.557 104.548C352.951 104.548 353.981 106.699 353.981 109.729V114.638C353.981 119.063 354.466 119.82 356.133 119.82V120.002C354.769 120.002 354.012 119.82 352.709 119.82C351.497 119.82 350.315 120.002 349.103 120.002V119.82C350.769 119.82 351.254 119.063 351.254 114.638V111.123C351.254 108.244 350.224 106.396 348.648 106.396C347.648 106.396 346.406 107.184 345.072 109.002V114.638C345.072 119.063 345.557 119.82 347.224 119.82V120.002ZM359.66 108.032C359.66 111.911 368.963 110.275 368.963 115.82C368.963 118.638 366.6 120.305 362.903 120.305C360.266 120.305 358.842 119.457 358.418 119.457C358.327 119.457 358.266 119.517 358.297 119.669H358.145C357.963 118.941 358.024 118.547 357.872 117.699C357.721 117.002 357.509 116.396 357.357 115.578H357.539C357.933 117.335 360.6 119.76 363.115 119.76C364.569 119.76 366.569 118.972 366.569 116.972C366.569 112.699 357.418 114.275 357.418 108.911C357.418 106.244 359.691 104.548 363.418 104.548C366.751 104.548 367.721 105.911 367.6 105.184H367.751C367.933 105.941 367.872 106.305 368.024 107.093C368.175 107.851 368.418 108.457 368.539 109.275H368.388C367.963 107.578 365.781 105.093 363.297 105.093C361.569 105.093 359.66 106.275 359.66 108.032Z" fill="#FFC71D"/>
</g>
<defs>
<filter id="filter0_d_777_17565" x="0.510315" y="0.891241" width="546.034" height="233.807" filterUnits="userSpaceOnUse" color-interpolation-filters="sRGB">
<feFlood flood-opacity="0" result="BackgroundImageFix"/>
<feColorMatrix in="SourceAlpha" type="matrix" values="0 0 0 0 0 0 0 0 0 0 0 0 0 0 0 0 0 0 127 0" result="hardAlpha"/>
<feOffset dy="4.10554"/>
<feGaussianBlur stdDeviation="43.1081"/>
<feComposite in2="hardAlpha" operator="out"/>
<feColorMatrix type="matrix" values="0 0 0 0 0 0 0 0 0 0 0 0 0 0 0 0 0 0 0.65 0"/>
<feBlend mode="normal" in2="BackgroundImageFix" result="effect1_dropShadow_777_17565"/>
<feBlend mode="normal" in="SourceGraphic" in2="effect1_dropShadow_777_17565" result="shape"/>
</filter>
<filter id="filter1_d_777_17565" x="77.929" y="88.2924" width="391.197" height="69.2809" filterUnits="userSpaceOnUse" color-interpolation-filters="sRGB">
<feFlood flood-opacity="0" result="BackgroundImageFix"/>
<feColorMatrix in="SourceAlpha" type="matrix" values="0 0 0 0 0 0 0 0 0 0 0 0 0 0 0 0 0 0 127 0" result="hardAlpha"/>
<feOffset dy="4.39879"/>
<feGaussianBlur stdDeviation="4.39879"/>
<feComposite in2="hardAlpha" operator="out"/>
<feColorMatrix type="matrix" values="0 0 0 0 0 0 0 0 0 0 0 0 0 0 0 0 0 0 0.3 0"/>
<feBlend mode="normal" in2="BackgroundImageFix" result="effect1_dropShadow_777_17565"/>
<feBlend mode="normal" in="SourceGraphic" in2="effect1_dropShadow_777_17565" result="shape"/>
</filter>
<filter id="filter2_d_777_17565" x="138.202" y="78.6032" width="270.33" height="71.4804" filterUnits="userSpaceOnUse" color-interpolation-filters="sRGB">
<feFlood flood-opacity="0" result="BackgroundImageFix"/>
<feColorMatrix in="SourceAlpha" type="matrix" values="0 0 0 0 0 0 0 0 0 0 0 0 0 0 0 0 0 0 127 0" result="hardAlpha"/>
<feOffset dy="4.39879"/>
<feGaussianBlur stdDeviation="4.39879"/>
<feComposite in2="hardAlpha" operator="out"/>
<feColorMatrix type="matrix" values="0 0 0 0 0 0 0 0 0 0 0 0 0 0 0 0 0 0 0.3 0"/>
<feBlend mode="normal" in2="BackgroundImageFix" result="effect1_dropShadow_777_17565"/>
<feBlend mode="normal" in="SourceGraphic" in2="effect1_dropShadow_777_17565" result="shape"/>
</filter>
<linearGradient id="paint0_linear_777_17565" x1="366.553" y1="83.5521" x2="153.984" y2="126.663" gradientUnits="userSpaceOnUse">
<stop stop-opacity="0"/>
<stop offset="0.438904" stop-color="white" stop-opacity="0.9"/>
<stop offset="1" stop-opacity="0"/>
</linearGradient>
</defs>
</svg>
