<svg width="49" height="49" viewBox="0 0 49 49" fill="none" xmlns="http://www.w3.org/2000/svg">
<path d="M41.3813 49V38.4574C41.3813 37.2401 40.9944 36.0543 40.2766 35.0712C39.5588 34.0881 38.5471 33.3586 37.3876 32.9879L31.4636 31.094C30.3931 30.7518 29.4591 30.0783 28.7964 29.1707C28.1336 28.2632 27.7763 27.1685 27.7761 26.0447V22.1266H21.2243V26.0447C21.2241 27.1685 20.8669 28.2632 20.2041 29.1707C19.5413 30.0783 18.6073 30.7518 17.5369 31.094L11.6128 32.9879C10.4534 33.3586 9.44168 34.0881 8.72384 35.0712C8.00601 36.0543 7.61916 37.2401 7.61914 38.4574V49H41.3813Z" fill="#FD4755"/>
<path d="M37.3873 32.9879L31.4633 31.094C30.3929 30.7518 29.4589 30.0783 28.7961 29.1707C28.1333 28.2632 27.7761 27.1685 27.7759 26.0447V22.1266H24.9048V26.0447C24.905 27.1685 25.2622 28.2632 25.925 29.1707C26.5878 30.0783 27.5218 30.7518 28.5922 31.094L34.5162 32.9879C35.6757 33.3586 36.6874 34.0881 37.4052 35.0712C38.1231 36.0543 38.5099 37.2401 38.5099 38.4574V49H41.381V38.4574C41.381 37.2401 40.9942 36.0543 40.2763 35.0712C39.5585 34.0881 38.5468 33.3586 37.3873 32.9879Z" fill="#FB2B3A"/>
<path d="M24.5 42.9229C25.2928 42.9229 25.9355 42.2801 25.9355 41.4873C25.9355 40.6945 25.2928 40.0518 24.5 40.0518C23.7072 40.0518 23.0645 40.6945 23.0645 41.4873C23.0645 42.2801 23.7072 42.9229 24.5 42.9229Z" fill="#FED402"/>
<path d="M24.9787 40.134C25.1042 40.3895 25.1509 40.6765 25.1128 40.9586C25.0748 41.2406 24.9538 41.5051 24.7652 41.7182C24.5766 41.9313 24.3288 42.0836 24.0535 42.1556C23.7781 42.2277 23.4876 42.2162 23.2188 42.1227C23.3227 42.3343 23.4771 42.5171 23.6684 42.6549C23.8596 42.7926 24.0819 42.8812 24.3155 42.9126C24.5492 42.9441 24.7869 42.9176 25.0079 42.8354C25.2288 42.7532 25.4261 42.6179 25.5823 42.4413C25.7386 42.2648 25.8489 42.0525 25.9036 41.8232C25.9584 41.5939 25.9558 41.3547 25.8961 41.1266C25.8365 40.8986 25.7216 40.6887 25.5616 40.5156C25.4016 40.3425 25.2014 40.2114 24.9787 40.134Z" fill="#FAC600"/>
<path d="M24.5 48.2822C25.2928 48.2822 25.9355 47.6395 25.9355 46.8467C25.9355 46.0538 25.2928 45.4111 24.5 45.4111C23.7072 45.4111 23.0645 46.0538 23.0645 46.8467C23.0645 47.6395 23.7072 48.2822 24.5 48.2822Z" fill="#FED402"/>
<path d="M24.9787 45.4934C25.1042 45.7489 25.1509 46.0359 25.1128 46.318C25.0748 46.6 24.9538 46.8644 24.7652 47.0776C24.5766 47.2907 24.3288 47.443 24.0535 47.515C23.7781 47.587 23.4876 47.5756 23.2188 47.4821C23.3227 47.6937 23.4771 47.8765 23.6684 48.0142C23.8596 48.152 24.0819 48.2405 24.3155 48.272C24.5492 48.3035 24.7869 48.277 25.0079 48.1948C25.2288 48.1126 25.4261 47.9773 25.5823 47.8007C25.7386 47.6242 25.8489 47.4119 25.9036 47.1826C25.9584 46.9533 25.9558 46.7141 25.8961 46.486C25.8365 46.258 25.7216 46.0481 25.5616 45.875C25.4016 45.7019 25.2014 45.5708 24.9787 45.4934Z" fill="#FAC600"/>
<path d="M31.5485 32.0395C30.4848 31.9186 29.504 31.4071 28.7961 30.604C27.6582 29.2938 27.7539 27.7606 27.7759 27.4802V23.5621H21.2241V27.4802C21.2336 28.0018 21.1858 29.4039 20.2039 30.6059C18.9597 32.1323 16.7155 32.7114 14.5402 32.052L12.7036 32.6396C14.544 33.165 15.3996 34.0091 15.8398 34.7001C16.4743 35.6954 16.3021 36.462 17.0725 36.9711C17.9826 37.5731 18.6774 36.8027 19.8297 37.3587C20.5857 37.7233 21.0116 39.0814 21.849 39.2728C22.6606 39.4575 23.6329 38.421 24.5 38.421C25.3671 38.421 26.3394 39.4575 27.151 39.2728C27.9884 39.0814 28.4142 37.7224 29.1703 37.3587C30.334 36.7969 31.0212 37.5836 31.9275 36.9711C32.6749 36.4658 32.4912 35.7384 33.2377 34.7001C33.9009 33.7765 34.8024 33.299 35.4197 33.0473L31.5485 32.0395Z" fill="#FB2B3A"/>
<path d="M31.4632 31.094C30.3928 30.7518 29.4588 30.0783 28.796 29.1707C28.1332 28.2632 27.776 27.1685 27.7758 26.0447V22.1266H21.2239V26.0447C21.2238 27.1685 20.8665 28.2632 20.2037 29.1707C19.5409 30.0783 18.6069 30.7518 17.5365 31.094L14.54 32.051C15.0903 32.3257 15.7583 32.5238 16.0837 32.9324C16.6139 33.5956 16.4091 35.0054 17.0723 35.5346C17.7356 36.0638 19.0611 35.5509 19.8296 35.9222C20.598 36.2935 21.0115 37.6448 21.8489 37.8363C22.6605 38.021 23.6328 36.9845 24.4999 36.9845C25.3669 36.9845 26.3393 38.021 27.1508 37.8363C27.9882 37.6448 28.4141 36.2859 29.1702 35.9222C29.9262 35.5585 31.267 36.0619 31.9274 35.5346C32.5877 35.0073 32.3858 33.5956 32.916 32.9324C33.2414 32.5238 33.9094 32.3257 34.4597 32.051L31.4632 31.094Z" fill="#FED402"/>
<path d="M31.9273 34.1C31.267 34.6273 29.9386 34.1163 29.1701 34.4876C28.4016 34.8589 27.9882 36.2103 27.1508 36.4017C26.3392 36.5864 25.3669 35.5499 24.4998 35.5499C23.6327 35.5499 22.6604 36.5864 21.8488 36.4017C21.0114 36.2103 20.5855 34.8513 19.8295 34.4876C19.0734 34.1239 17.7326 34.6273 17.0723 34.1C16.4119 33.5727 16.6024 32.229 16.1153 31.5476L14.5371 32.052C15.0874 32.3266 15.7554 32.5247 16.0808 32.9334C16.611 33.5966 16.4062 35.0063 17.0694 35.5356C17.7326 36.0648 19.0581 35.5518 19.8266 35.9232C20.5951 36.2945 21.0086 37.6458 21.846 37.8372C22.6575 38.0219 23.6299 36.9855 24.4969 36.9855C25.364 36.9855 26.3364 38.0219 27.1479 37.8372C27.9853 37.6458 28.4112 36.2868 29.1672 35.9232C29.9233 35.5595 31.2641 36.0629 31.9245 35.5356C32.5848 35.0082 32.3829 33.5966 32.9131 32.9334C33.2385 32.5247 33.9065 32.3266 34.4568 32.052L32.8786 31.5476C32.3972 32.2281 32.5752 33.5832 31.9273 34.1Z" fill="#FAC600"/>
<path d="M28.5922 31.094L33.3094 32.6023C33.6491 32.3927 34.0827 32.2405 34.4578 32.052L31.4614 31.0949C30.3909 30.7527 29.4569 30.0792 28.7941 29.1717C28.1314 28.2641 27.7741 27.1694 27.7739 26.0456V22.1266H24.9028V26.0447C24.9031 27.1687 25.2607 28.2636 25.9238 29.1712C26.587 30.0787 27.5214 30.7521 28.5922 31.094Z" fill="#FAC600"/>
<path d="M24.4999 32.7755C25.7434 32.7766 26.9675 32.467 28.061 31.8749C28.7879 31.482 29.445 30.9717 30.0057 30.3647C29.1772 29.7749 28.5351 28.9598 28.1557 28.0162C27.9036 27.3894 27.7736 26.7202 27.7729 26.0447V22.9104C27.7729 22.519 28.1088 22.3285 27.7729 22.1266C27.2112 21.7907 27.1183 22.1266 26.4628 22.1266H22.5351C21.8795 22.1266 21.7867 21.7907 21.224 22.1266C20.888 22.3276 21.224 22.518 21.224 22.9104V26.0447C21.2233 26.7202 21.0933 27.3894 20.8412 28.0162C20.4628 28.9604 19.8206 29.7757 18.9912 30.3647C19.5519 30.9717 20.209 31.482 20.9359 31.8749C22.0304 32.4671 23.2554 32.7767 24.4999 32.7755Z" fill="#FED2A4"/>
<path d="M28.5921 31.094L28.682 31.1227L28.772 31.1514L28.8629 31.1801L28.9586 31.2098C29.0036 31.2242 29.0017 31.2452 29.0486 31.2385C29.1872 31.1341 29.3216 31.0243 29.4515 30.9093C29.5812 30.7943 29.7073 30.6752 29.8295 30.5523C29.8908 30.4901 29.9511 30.4289 30.0094 30.3609L29.8592 30.2537C29.8094 30.2154 29.7635 30.1762 29.7118 30.136C29.6601 30.0958 29.6161 30.0556 29.5692 30.0145L29.4304 29.8872C29.3855 29.8441 29.3405 29.8001 29.2964 29.7551L29.2122 29.6661C29.1835 29.6364 29.1567 29.6058 29.129 29.5752C29.1012 29.5446 29.0744 29.5139 29.0486 29.4795C29.0227 29.445 28.9959 29.4173 28.9701 29.3838C28.9443 29.3503 28.9184 29.3197 28.8935 29.2881C28.8811 29.2718 28.8687 29.2565 28.8572 29.2402L28.8208 29.1924L28.7854 29.1436L28.7509 29.0948L28.7165 29.045C28.705 29.0287 28.6935 29.0125 28.683 28.9952L28.6495 28.9455L28.6179 28.8947L28.5863 28.844L28.5547 28.7933V28.7655L28.526 28.7158L28.4973 28.666L28.4686 28.6162L28.4418 28.5655L28.4141 28.5148C28.4045 28.4976 28.3959 28.4803 28.3873 28.4631C28.3787 28.4459 28.3691 28.4277 28.3605 28.4105C28.3519 28.3933 28.3442 28.3751 28.3356 28.3578C28.327 28.3406 28.3184 28.3224 28.3107 28.3052L28.2858 28.2516V28.2105C28.2782 28.1942 28.2715 28.177 28.2638 28.1597C28.2562 28.1425 28.2495 28.1253 28.2418 28.109L28.2207 28.0573L28.1997 28.0057L28.1796 27.954V27.9415L28.1595 27.8879C28.1538 27.8698 28.1471 27.8516 28.1404 27.8343L28.1222 27.7798C28.1155 27.7616 28.1097 27.7434 28.104 27.7252C28.0982 27.7071 28.0915 27.6889 28.0858 27.6707V27.6161C28.0801 27.5989 28.0753 27.5817 28.0695 27.5645C28.0638 27.5472 28.06 27.5291 28.0542 27.5118L28.0399 27.4592L28.0255 27.4066C28.0255 27.3893 28.0159 27.3711 28.0121 27.3539V27.3386C28.0073 27.3204 28.0025 27.3022 27.9987 27.2831C27.9949 27.264 27.9901 27.2467 27.9863 27.2276C27.9824 27.2085 27.9777 27.1912 27.9738 27.1721L27.9623 27.1166C27.9623 27.0984 27.9556 27.0793 27.9518 27.0611V26.996C27.9518 26.9788 27.9451 26.9606 27.9422 26.9424C27.9394 26.9242 27.9355 26.906 27.9327 26.8878C27.9298 26.8697 27.9269 26.8515 27.925 26.8333L27.9164 26.7787C27.9164 26.7606 27.9116 26.7414 27.9097 26.7232V26.7118C27.9097 26.6926 27.9049 26.6744 27.903 26.6553L27.8973 26.5979C27.8973 26.5787 27.8973 26.5596 27.8925 26.5414C27.8877 26.5232 27.8925 26.5031 27.8925 26.484V22.9104C27.8925 22.519 28.1241 22.4434 27.8925 22.1266C27.7231 21.895 27.6054 22.1266 27.3183 22.1266H25.5956C25.3085 22.1266 25.1917 21.895 25.0214 22.1266C24.7898 22.4424 25.0214 22.518 25.0214 22.9104V26.0447C25.0213 27.1686 25.3784 28.2634 26.0412 29.171C26.7041 30.0786 27.6382 30.752 28.7088 31.094H28.5921Z" fill="#FFBD86"/>
<path d="M29.8642 16.9318H30.6642C31.2135 16.9318 31.7403 17.15 32.1287 17.5383C32.5171 17.9267 32.7353 18.4535 32.7353 19.0028C32.7353 19.552 32.5171 20.0788 32.1287 20.4672C31.7403 20.8556 31.2135 21.0738 30.6642 21.0738H29.8642V16.9318ZM18.3358 16.9318C17.7872 16.933 17.2615 17.1519 16.8741 17.5404C16.4867 17.9288 16.2693 18.4551 16.2695 19.0037C16.2695 19.553 16.4877 20.0798 16.8761 20.4682C17.2645 20.8566 17.7913 21.0748 18.3405 21.0748H19.1406" fill="#FED2A4"/>
<path d="M31.2692 13.2692L29.4432 23.1649C29.3432 23.6543 29.1449 24.1182 28.8603 24.5287C28.5757 24.9391 28.2107 25.2875 27.7875 25.5527L26.485 26.37C25.9037 26.7344 25.2316 26.9277 24.5456 26.9277C23.8595 26.9277 23.1874 26.7344 22.6061 26.37L21.3036 25.5527C20.8807 25.2878 20.5159 24.9399 20.2313 24.53C19.9467 24.12 19.7483 23.6566 19.6479 23.1678L17.7339 12.7811L31.2692 13.2692Z" fill="#FED2A4"/>
<path d="M29.5798 13.207L28.0074 21.7246C27.908 22.2148 27.71 22.6797 27.4254 23.091C27.1407 23.5023 26.7754 23.8514 26.3517 24.1172L25.0492 24.9345C24.4679 25.2989 23.7958 25.4922 23.1098 25.4922C22.4237 25.4922 21.7516 25.2989 21.1703 24.9345L20.042 24.2263C20.3443 24.7674 20.7781 25.2236 21.3034 25.5527L22.6059 26.37C23.1871 26.7345 23.8593 26.9277 24.5453 26.9277C25.2313 26.9277 25.9035 26.7345 26.4847 26.37L27.7872 25.5527C28.2102 25.2878 28.575 24.9399 28.8595 24.53C29.1441 24.1201 29.3426 23.6567 29.4429 23.1678L31.2689 13.2721L29.5798 13.207Z" fill="#FFBD86"/>
<path d="M39.5999 7.91179C37.7595 7.20933 35.0004 6.49156 32.9006 7.77781C30.0162 9.5464 30.4449 13.8377 28.0571 14.3813C26.7689 14.6761 25.3592 13.72 24.497 12.6769C23.6356 13.72 22.225 14.6761 20.9368 14.3813C18.5442 13.8358 18.9778 9.54449 16.0933 7.77781C13.9964 6.49156 11.2373 7.20933 9.39404 7.91179C9.83906 4.25306 12.6049 1.34943 16.0617 0.807748C19.0581 0.337846 21.5359 1.86048 23.1724 3.75636C23.5389 4.18197 23.8714 4.63572 24.1668 5.11343C24.2009 5.16968 24.2489 5.21619 24.3063 5.24847C24.3636 5.28075 24.4283 5.29771 24.4941 5.29771C24.5599 5.29771 24.6246 5.28075 24.6819 5.24847C24.7392 5.21619 24.7873 5.16968 24.8214 5.11343C24.8979 4.98902 24.9793 4.8646 25.0635 4.74019C26.6397 2.4213 29.4324 0.259369 32.9322 0.807748C36.389 1.34943 39.1548 4.25306 39.5999 7.91179Z" fill="#FD4755"/>
<path d="M34.3134 1.16187L34.344 1.19823C35.5671 2.63378 34.4933 4.85313 32.6137 4.78231C31.5658 4.74212 30.5082 4.91917 29.5857 5.48765C26.7012 7.25624 27.1299 11.5476 24.7421 12.0912C24.2644 12.1888 23.7686 12.1466 23.3142 11.9696C21.929 11.4758 20.4154 11.4778 19.0315 11.9754C18.9885 11.9907 18.9454 12.005 18.9014 12.0184C19.3799 13.1755 19.889 14.1411 20.9398 14.3813C22.228 14.6761 23.6377 13.72 24.5 12.6769C25.3613 13.72 26.772 14.6761 28.0602 14.3813C30.4479 13.8358 30.0192 9.5445 32.9037 7.77782C35.0005 6.49157 37.7597 7.20935 39.6029 7.91181C39.2163 4.75552 37.1051 2.16292 34.3134 1.16187Z" fill="#FB2B3A"/>
<path d="M8.96082 11.3466C10.4968 11.3466 11.742 10.1014 11.742 8.56543C11.742 7.02946 10.4968 5.7843 8.96082 5.7843C7.42484 5.7843 6.17969 7.02946 6.17969 8.56543C6.17969 10.1014 7.42484 11.3466 8.96082 11.3466Z" fill="#FED402"/>
<path d="M11.7286 8.22472C11.6693 7.74539 11.4862 7.28976 11.1975 6.90264C10.9087 6.51551 10.5241 6.21024 10.0815 6.01685C10.1883 6.26295 10.2595 6.523 10.293 6.78917C10.3535 7.27642 10.2839 7.77101 10.0912 8.22262C9.89854 8.67423 9.58971 9.06677 9.19612 9.36031C8.80253 9.65385 8.33823 9.83791 7.85042 9.89379C7.36262 9.94968 6.86872 9.87537 6.41895 9.67845C6.68599 10.2915 7.16494 10.7877 7.76808 11.0764C8.37122 11.365 9.05817 11.4267 9.70308 11.2502C10.348 11.0736 10.9077 10.6706 11.2797 10.1149C11.6517 9.55931 11.811 8.88826 11.7286 8.22472Z" fill="#FAC600"/>
<path d="M40.0394 11.3466C41.5754 11.3466 42.8206 10.1014 42.8206 8.56543C42.8206 7.02946 41.5754 5.7843 40.0394 5.7843C38.5035 5.7843 37.2583 7.02946 37.2583 8.56543C37.2583 10.1014 38.5035 11.3466 40.0394 11.3466Z" fill="#FED402"/>
<path d="M42.7994 8.22472C42.7407 7.74518 42.5579 7.28926 42.2691 6.90203C41.9802 6.5148 41.5953 6.20968 41.1523 6.01685C41.3762 6.52928 41.4403 7.0973 41.3365 7.64676C41.2326 8.19623 40.9655 8.70162 40.57 9.09698C40.1746 9.49234 39.6691 9.75931 39.1196 9.86303C38.5701 9.96676 38.0021 9.90243 37.4897 9.67845C37.7568 10.2915 38.2357 10.7877 38.8389 11.0764C39.442 11.365 40.129 11.4267 40.7739 11.2502C41.4188 11.0736 41.9785 10.6706 42.3505 10.1149C42.7225 9.55931 42.8818 8.88826 42.7994 8.22472Z" fill="#FAC600"/>
<path d="M30.5771 12.1466H18.4229C17.8414 12.1466 17.3701 12.6179 17.3701 13.1993V15.879C17.3701 16.4604 17.8414 16.9318 18.4229 16.9318H30.5771C31.1586 16.9318 31.6299 16.4604 31.6299 15.879V13.1993C31.6299 12.6179 31.1586 12.1466 30.5771 12.1466Z" fill="#FED402"/>
<path d="M30.5771 12.1466H28.7588C28.7588 13.035 28.4059 13.887 27.7777 14.5151C27.1495 15.1433 26.2976 15.4962 25.4092 15.4962H17.3701V15.879C17.3701 16.1582 17.481 16.426 17.6785 16.6234C17.8759 16.8209 18.1436 16.9318 18.4229 16.9318H30.5771C30.8564 16.9318 31.1241 16.8209 31.3215 16.6234C31.519 16.426 31.6299 16.1582 31.6299 15.879V13.1993C31.6299 12.9201 31.519 12.6524 31.3215 12.4549C31.1241 12.2575 30.8564 12.1466 30.5771 12.1466Z" fill="#FAC600"/>
<path d="M25.367 7.63047C25.1883 7.69598 24.9909 7.68793 24.8181 7.60809C24.6453 7.52825 24.5113 7.38314 24.4453 7.20459L23.1782 3.75928C23.5447 4.18488 23.8772 4.63864 24.1726 5.11635C24.2067 5.1726 24.2547 5.21911 24.3121 5.25139C24.3694 5.28367 24.4341 5.30062 24.4999 5.30062C24.5657 5.30062 24.6304 5.28367 24.6877 5.25139C24.745 5.21911 24.7931 5.1726 24.8272 5.11635C24.9038 4.99193 24.9851 4.86752 25.0693 4.74311L25.7928 6.71172C25.8577 6.89005 25.8493 7.08683 25.7695 7.259C25.6897 7.43117 25.545 7.56473 25.367 7.63047Z" fill="#FB2B3A"/>
<path d="M24.4999 44.6934C24.074 44.6934 23.6577 44.8197 23.3036 45.0563C22.9495 45.2929 22.6735 45.6292 22.5105 46.0227C22.3475 46.4161 22.3049 46.8491 22.388 47.2668C22.471 47.6845 22.6761 48.0682 22.9773 48.3693C23.2784 48.6705 23.6621 48.8756 24.0798 48.9587C24.4975 49.0418 24.9305 48.9991 25.3239 48.8361C25.7174 48.6732 26.0537 48.3972 26.2903 48.043C26.5269 47.6889 26.6532 47.2726 26.6532 46.8467C26.6527 46.2758 26.4257 45.7284 26.022 45.3247C25.6183 44.9209 25.0708 44.6939 24.4999 44.6934ZM24.4999 47.5645C24.3579 47.5645 24.2192 47.5224 24.1011 47.4435C23.9831 47.3647 23.8911 47.2526 23.8368 47.1214C23.7824 46.9902 23.7682 46.8459 23.7959 46.7067C23.8236 46.5675 23.892 46.4396 23.9924 46.3392C24.0927 46.2388 24.2206 46.1704 24.3599 46.1427C24.4991 46.115 24.6434 46.1293 24.7746 46.1836C24.9057 46.2379 25.0178 46.3299 25.0967 46.4479C25.1756 46.566 25.2177 46.7048 25.2177 46.8467C25.2177 47.0371 25.1421 47.2197 25.0075 47.3543C24.8728 47.4889 24.6903 47.5645 24.4999 47.5645ZM13.361 42.2051C13.1707 42.2051 12.9881 42.2807 12.8535 42.4153C12.7189 42.55 12.6432 42.7325 12.6432 42.9229V48.2823C12.6432 48.4726 12.7189 48.6552 12.8535 48.7898C12.9881 48.9244 13.1707 49 13.361 49C13.5514 49 13.734 48.9244 13.8686 48.7898C14.0032 48.6552 14.0788 48.4726 14.0788 48.2823V42.9229C14.0788 42.7325 14.0032 42.55 13.8686 42.4153C13.734 42.2807 13.5514 42.2051 13.361 42.2051ZM35.6388 42.2051C35.4484 42.2051 35.2659 42.2807 35.1313 42.4153C34.9966 42.55 34.921 42.7325 34.921 42.9229V48.2823C34.921 48.4726 34.9966 48.6552 35.1313 48.7898C35.2659 48.9244 35.4484 49 35.6388 49C35.8292 49 36.0117 48.9244 36.1463 48.7898C36.2809 48.6552 36.3566 48.4726 36.3566 48.2823V42.9229C36.3566 42.7325 36.2809 42.55 36.1463 42.4153C36.0117 42.2807 35.8292 42.2051 35.6388 42.2051ZM36.5662 8.99614C36.6717 9.8427 37.0824 10.6217 37.7212 11.1871C38.3601 11.7525 39.1832 12.0654 40.0364 12.0672C40.1806 12.0673 40.3248 12.0584 40.468 12.0405C41.389 11.9262 42.2269 11.4508 42.7973 10.7188C43.3678 9.98683 43.6241 9.05819 43.5099 8.1372C43.3957 7.21621 42.9203 6.37832 42.1883 5.80785C41.4563 5.23738 40.5276 4.98106 39.6066 5.09528L39.5368 5.10485C38.3108 2.43664 35.8723 0.541723 33.0433 0.0957461C29.2564 -0.494742 26.2073 1.80596 24.4999 4.30094C22.7926 1.80596 19.7435 -0.494742 15.9565 0.0957461C13.1265 0.539809 10.6928 2.43377 9.4592 5.10006L9.38934 5.09049C8.46835 4.97627 7.53971 5.23259 6.80771 5.80306C6.07571 6.37354 5.60031 7.21143 5.48609 8.13242C5.37187 9.0534 5.62819 9.98204 6.19866 10.714C6.76913 11.446 7.60703 11.9214 8.52801 12.0357C8.67119 12.0536 8.81534 12.0625 8.95963 12.0625C9.4793 12.0621 9.99237 11.946 10.4615 11.7226C10.9307 11.4991 11.3442 11.1739 11.672 10.7707C11.9997 10.3674 12.2335 9.89615 12.3563 9.3912C12.4791 8.88626 12.4879 8.36029 12.382 7.85153C13.7218 7.67543 14.8454 7.85153 15.7172 8.38938C16.8657 9.09088 17.416 10.2958 17.9107 11.5045C17.547 11.6149 17.2284 11.8392 17.0018 12.1443C16.7752 12.4495 16.6527 12.8193 16.6523 13.1994V15.8791C16.6523 16.1484 16.7145 16.414 16.8341 16.6553C16.3258 16.9799 15.9365 17.4606 15.7246 18.0252C15.5127 18.5899 15.4896 19.208 15.6588 19.7869C15.828 20.3658 16.1804 20.8742 16.663 21.2358C17.1457 21.5974 17.7326 21.7928 18.3357 21.7926H18.662L18.9396 23.2961V23.3105C19.1492 24.3158 19.7012 25.2173 20.5014 25.8609V26.0447C20.5021 27.0153 20.1946 27.9611 19.6232 28.7457C19.0518 29.5304 18.2461 30.1133 17.3222 30.4107L14.319 31.3677H14.3142L11.3972 32.3008C10.091 32.7147 8.95106 33.5347 8.1431 34.6413C7.33514 35.7479 6.90137 37.0834 6.90489 38.4536V48.2823C6.90489 48.4726 6.98051 48.6552 7.11512 48.7898C7.24973 48.9244 7.4323 49 7.62266 49C7.81303 49 7.9956 48.9244 8.1302 48.7898C8.26481 48.6552 8.34043 48.4726 8.34043 48.2823V38.4574C8.33817 37.3918 8.67575 36.3533 9.30412 35.4928C9.9325 34.6322 10.8189 33.9945 11.8346 33.6722L14.4903 32.8262L14.6989 32.9219C15.0243 33.0645 15.3928 33.2253 15.523 33.3889C15.6531 33.5526 15.7316 33.9517 15.7986 34.3029C15.9211 34.9355 16.0579 35.6523 16.6245 36.105C17.1911 36.5577 17.9165 36.5299 18.5587 36.5089C18.9175 36.4964 19.3243 36.483 19.5157 36.5768C19.7071 36.6706 19.9377 36.9864 20.1473 37.2697C20.5301 37.7922 20.9723 38.3837 21.6881 38.5464C22.382 38.7033 23.0203 38.3684 23.585 38.0727C23.9094 37.8985 24.275 37.7071 24.4999 37.7071C24.7248 37.7071 25.0904 37.8985 25.4129 38.0679C25.8771 38.311 26.3929 38.5818 26.9442 38.5818C27.0662 38.582 27.1879 38.5685 27.3069 38.5416C28.0227 38.3789 28.4611 37.7875 28.8477 37.2649C29.0573 36.9778 29.2946 36.661 29.4793 36.572C29.664 36.483 30.0794 36.4926 30.4364 36.5041C31.0785 36.5251 31.8068 36.55 32.3705 36.1002C32.9342 35.6504 33.074 34.9307 33.1965 34.2972C33.2634 33.9469 33.34 33.5497 33.4721 33.3842C33.6041 33.2186 33.9707 33.0597 34.2961 32.9171L34.5047 32.8214L37.1643 33.6713C38.1799 33.9935 39.0664 34.6313 39.6947 35.4918C40.3231 36.3524 40.6607 37.3909 40.6584 38.4564V48.2823C40.6584 48.4726 40.734 48.6552 40.8687 48.7898C41.0033 48.9244 41.1858 49 41.3762 49C41.5666 49 41.7491 48.9244 41.8837 48.7898C42.0183 48.6552 42.094 48.4726 42.094 48.2823V38.4574C42.0981 37.0884 41.6657 35.7538 40.8596 34.6473C40.0535 33.5409 38.9156 32.7202 37.6112 32.3046L34.6932 31.3715L31.6891 30.4145C31.2456 30.2728 30.8261 30.0646 30.445 29.7972L30.4239 29.7819C29.8295 29.3575 29.3449 28.7976 29.0102 28.1485C28.6755 27.4994 28.5003 26.7798 28.4993 26.0495V25.9356C29.3461 25.287 29.9308 24.355 30.1464 23.3105V23.2961L30.423 21.7926H30.6613C31.2655 21.7944 31.8539 21.5999 32.338 21.2383C32.822 20.8768 33.1755 20.3677 33.3452 19.7879C33.515 19.208 33.4917 18.5887 33.279 18.0232C33.0662 17.4577 32.6756 16.9766 32.1657 16.6524C32.2853 16.4111 32.3476 16.1455 32.3476 15.8762V13.1965C32.3469 12.816 32.2238 12.4457 31.9964 12.1405C31.7691 11.8353 31.4497 11.6113 31.0852 11.5016C31.58 10.2929 32.138 9.08801 33.2788 8.38651C34.1506 7.85248 35.2703 7.67352 36.614 7.84961C36.535 8.22654 36.5188 8.61394 36.5662 8.99614ZM39.2726 6.65141C39.2947 6.65141 39.3167 6.6428 39.3387 6.6361C39.3742 6.62448 39.4088 6.61008 39.442 6.59303C39.5547 6.55903 39.6699 6.53438 39.7866 6.51934C40.3069 6.45523 40.832 6.59156 41.2555 6.90065C41.6789 7.20973 41.9688 7.66839 42.0663 8.18347C42.1638 8.69855 42.0615 9.23142 41.7804 9.67387C41.4992 10.1163 41.0602 10.4352 40.5525 10.5656C40.0447 10.6961 39.5064 10.6284 39.0467 10.3764C38.5871 10.1243 38.2406 9.70672 38.0777 9.20846C37.9148 8.71019 37.9476 8.16859 38.1696 7.69366C38.3915 7.21874 38.7859 6.84609 39.2726 6.65141ZM11.0058 8.81909C10.9553 9.22382 10.786 9.60452 10.5193 9.91305C10.2525 10.2216 9.90025 10.4441 9.50704 10.5524C9.11383 10.6608 8.69732 10.6501 8.31017 10.5217C7.92303 10.3934 7.58263 10.1531 7.33203 9.83134C7.08142 9.50955 6.93185 9.12068 6.90223 8.71389C6.87261 8.3071 6.96427 7.90066 7.16562 7.54596C7.36698 7.19126 7.66898 6.90423 8.03345 6.72116C8.39792 6.53808 8.80849 6.46718 9.21325 6.51743C9.75568 6.58603 10.2488 6.86674 10.5848 7.29811C10.9207 7.72948 11.0721 8.27637 11.0058 8.81909ZM18.3328 20.3571C18.0111 20.357 17.7 20.2423 17.4552 20.0335C17.2104 19.8248 17.048 19.5357 16.997 19.218C16.9461 18.9004 17.01 18.575 17.1773 18.3002C17.3445 18.0254 17.6042 17.8192 17.9098 17.7185L18.3969 20.3571H18.3328ZM30.1043 31.2787C30.4662 31.4824 30.8481 31.6482 31.2441 31.7735L32.6203 32.2137C32.5233 32.294 32.4345 32.3838 32.3552 32.4817C32.0011 32.9238 31.8891 33.5067 31.7906 34.0196C31.7198 34.39 31.6317 34.8494 31.4795 34.9709C31.3274 35.0925 30.8632 35.0752 30.489 35.0666C29.9646 35.0494 29.3712 35.0293 28.8621 35.2762C28.3529 35.5231 28.0093 35.9911 27.7012 36.4074C27.4744 36.7137 27.193 37.0936 26.9958 37.1386C26.8178 37.1788 26.3939 36.9558 26.0838 36.7941C25.6148 36.5472 25.0827 36.2687 24.5037 36.2687C23.9247 36.2687 23.3926 36.5472 22.9237 36.7941C22.6136 36.9558 22.1906 37.1769 22.0116 37.1386C21.8145 37.0936 21.5331 36.7137 21.3063 36.4074C20.9981 35.9911 20.6488 35.5193 20.1445 35.2762C19.6401 35.0331 19.0381 35.0494 18.5175 35.0666C18.1433 35.0791 17.6772 35.0944 17.527 34.9709C17.3767 34.8475 17.2868 34.39 17.2159 34.0206C17.1202 33.5067 17.0054 32.9238 16.6513 32.4817C16.572 32.3838 16.4832 32.294 16.3862 32.2137L17.7624 31.7735C18.1581 31.6475 18.5395 31.4804 18.9003 31.2749C19.0841 31.4462 19.2736 31.6098 19.4745 31.763C19.8317 32.0397 20.2106 32.2871 20.6077 32.5027C21.8064 33.1509 23.1477 33.4903 24.5104 33.4903C25.8732 33.4903 27.2145 33.1509 28.4132 32.5027C28.8104 32.2873 29.1894 32.0399 29.5463 31.763C29.733 31.6137 29.9234 31.45 30.1062 31.2787H30.1043ZM28.9281 30.4059C28.8381 30.4834 28.7463 30.56 28.6534 30.6327C28.0655 31.0913 27.4058 31.4496 26.7011 31.6931C26.3469 31.8139 25.9833 31.9049 25.6139 31.9649C24.8762 32.0864 24.1236 32.0864 23.3859 31.9649C23.0182 31.9043 22.6561 31.813 22.3035 31.6921C21.5967 31.4487 20.9348 31.0905 20.3445 30.6317C20.2488 30.559 20.1588 30.4824 20.0689 30.404C21.0799 29.4393 21.7258 28.1542 21.8968 26.7672L22.225 26.973C22.9214 27.4064 23.7252 27.6362 24.5454 27.6362C25.3656 27.6362 26.1694 27.4064 26.8657 26.973L27.1097 26.8199C27.2882 28.1883 27.9307 29.4541 28.93 30.4059H28.9281ZM28.7367 23.0272C28.5745 23.7978 28.1146 24.4733 27.4571 24.9068C27.4073 24.931 27.3604 24.9609 27.3174 24.9958L26.101 25.7614C25.6336 26.0522 25.094 26.2064 24.5435 26.2064C23.9929 26.2064 23.4534 26.0522 22.9859 25.7614L21.6824 24.9451C21.3437 24.7313 21.0512 24.4518 20.8224 24.123C20.5936 23.7942 20.433 23.4229 20.3502 23.031L19.3578 17.6534H29.731L28.7367 23.0272ZM30.5751 16.2141H18.4208C18.332 16.2141 18.2468 16.1788 18.184 16.116C18.1212 16.0531 18.0859 15.9679 18.0859 15.8791V13.1994C18.0859 13.1106 18.1212 13.0254 18.184 12.9626C18.2468 12.8997 18.332 12.8645 18.4208 12.8645H30.5751C30.664 12.8645 30.7492 12.8997 30.812 12.9626C30.8748 13.0254 30.9101 13.1106 30.9101 13.1994V15.8791C30.9101 15.9676 30.8751 16.0525 30.8127 16.1153C30.7503 16.178 30.6656 16.2136 30.5771 16.2141H30.5751ZM31.1704 17.7501C31.4587 17.8671 31.6979 18.0799 31.8476 18.3527C31.9972 18.6254 32.0483 18.9415 31.9921 19.2475C31.9359 19.5535 31.7758 19.8308 31.539 20.0326C31.3021 20.2343 31.003 20.3483 30.6919 20.3551L31.1704 17.7501ZM32.5284 7.16629C30.8852 8.17309 30.2191 9.81823 29.6306 11.2691C29.6085 11.3227 29.5875 11.3763 29.5655 11.4289H19.4343C19.4123 11.3763 19.3913 11.3227 19.3693 11.2691C18.7807 9.81823 18.1146 8.17309 16.4714 7.16629C15.2157 6.40067 13.6376 6.17098 11.7771 6.49637C11.5157 6.13909 11.189 5.8345 10.8144 5.59868C11.8585 3.42143 13.8635 1.87965 16.1795 1.51694C19.4841 0.999184 22.1504 3.21758 23.5486 5.4733L24.4779 7.28401C24.5196 7.3701 24.5781 7.44699 24.6499 7.51016C24.7218 7.57332 24.8055 7.62149 24.8963 7.65182C24.987 7.68216 25.0829 7.69405 25.1783 7.6868C25.2737 7.67954 25.3666 7.6533 25.4517 7.6096C25.5368 7.5659 25.6123 7.50563 25.6738 7.43233C25.7353 7.35903 25.7815 7.27419 25.8097 7.18277C25.8379 7.09136 25.8476 6.99524 25.8381 6.90004C25.8286 6.80485 25.8002 6.7125 25.7546 6.62844L25.2761 5.69246C25.3374 5.63167 25.3913 5.5639 25.4368 5.49053C26.8351 3.22907 29.509 0.99727 32.8261 1.51694C35.1421 1.87965 37.1461 3.42143 38.1912 5.59868C37.8166 5.83381 37.4897 6.13738 37.2275 6.4935C35.3613 6.17098 33.7831 6.39588 32.5284 7.16629ZM24.4999 39.334C24.074 39.334 23.6577 39.4603 23.3036 39.6969C22.9495 39.9335 22.6735 40.2698 22.5105 40.6633C22.3475 41.0568 22.3049 41.4897 22.388 41.9074C22.471 42.3251 22.6761 42.7088 22.9773 43.01C23.2784 43.3111 23.6621 43.5162 24.0798 43.5993C24.4975 43.6824 24.9305 43.6397 25.3239 43.4768C25.7174 43.3138 26.0537 43.0378 26.2903 42.6837C26.5269 42.3296 26.6532 41.9132 26.6532 41.4873C26.6527 40.9164 26.4257 40.369 26.022 39.9653C25.6183 39.5616 25.0708 39.3345 24.4999 39.334ZM24.4999 42.2051C24.3579 42.2051 24.2192 42.163 24.1011 42.0842C23.9831 42.0053 23.8911 41.8932 23.8368 41.762C23.7824 41.6309 23.7682 41.4866 23.7959 41.3473C23.8236 41.2081 23.892 41.0802 23.9924 40.9798C24.0927 40.8794 24.2206 40.8111 24.3599 40.7834C24.4991 40.7557 24.6434 40.7699 24.7746 40.8242C24.9057 40.8785 25.0178 40.9705 25.0967 41.0886C25.1756 41.2066 25.2177 41.3454 25.2177 41.4873C25.2177 41.6777 25.1421 41.8603 25.0075 41.9949C24.8728 42.1295 24.6903 42.2051 24.4999 42.2051Z" fill="black"/>
</svg>
