<svg width="64" height="64" viewBox="0 0 64 64" fill="none" xmlns="http://www.w3.org/2000/svg">
<circle cx="32" cy="32" r="31.25" stroke="#FF0000" stroke-width="1.5"/>
<path d="M20.8832 20.66V29H19.5152V23.288L16.9712 29H16.0232L13.4672 23.288V29H12.0992V20.66H13.5752L16.5032 27.2L19.4192 20.66H20.8832ZM22.2253 25.664C22.2253 25 22.3613 24.412 22.6333 23.9C22.9133 23.388 23.2893 22.992 23.7613 22.712C24.2413 22.424 24.7693 22.28 25.3453 22.28C25.8653 22.28 26.3173 22.384 26.7013 22.592C27.0933 22.792 27.4053 23.044 27.6373 23.348V22.388H29.0173V29H27.6373V28.016C27.4053 28.328 27.0893 28.588 26.6893 28.796C26.2893 29.004 25.8333 29.108 25.3213 29.108C24.7533 29.108 24.2333 28.964 23.7613 28.676C23.2893 28.38 22.9133 27.972 22.6333 27.452C22.3613 26.924 22.2253 26.328 22.2253 25.664ZM27.6373 25.688C27.6373 25.232 27.5413 24.836 27.3493 24.5C27.1653 24.164 26.9213 23.908 26.6173 23.732C26.3133 23.556 25.9853 23.468 25.6333 23.468C25.2813 23.468 24.9533 23.556 24.6493 23.732C24.3453 23.9 24.0973 24.152 23.9053 24.488C23.7213 24.816 23.6293 25.208 23.6293 25.664C23.6293 26.12 23.7213 26.52 23.9053 26.864C24.0973 27.208 24.3453 27.472 24.6493 27.656C24.9613 27.832 25.2893 27.92 25.6333 27.92C25.9853 27.92 26.3133 27.832 26.6173 27.656C26.9213 27.48 27.1653 27.224 27.3493 26.888C27.5413 26.544 27.6373 26.144 27.6373 25.688ZM33.2141 29.108C32.6941 29.108 32.2261 29.016 31.8101 28.832C31.4021 28.64 31.0781 28.384 30.8381 28.064C30.5981 27.736 30.4701 27.372 30.4541 26.972H31.8701C31.8941 27.252 32.0261 27.488 32.2661 27.68C32.5141 27.864 32.8221 27.956 33.1901 27.956C33.5741 27.956 33.8701 27.884 34.0781 27.74C34.2941 27.588 34.4021 27.396 34.4021 27.164C34.4021 26.916 34.2821 26.732 34.0421 26.612C33.8101 26.492 33.4381 26.36 32.9261 26.216C32.4301 26.08 32.0261 25.948 31.7141 25.82C31.4021 25.692 31.1301 25.496 30.8981 25.232C30.6741 24.968 30.5621 24.62 30.5621 24.188C30.5621 23.836 30.6661 23.516 30.8741 23.228C31.0821 22.932 31.3781 22.7 31.7621 22.532C32.1541 22.364 32.6021 22.28 33.1061 22.28C33.8581 22.28 34.4621 22.472 34.9181 22.856C35.3821 23.232 35.6301 23.748 35.6621 24.404H34.2941C34.2701 24.108 34.1501 23.872 33.9341 23.696C33.7181 23.52 33.4261 23.432 33.0581 23.432C32.6981 23.432 32.4221 23.5 32.2301 23.636C32.0381 23.772 31.9421 23.952 31.9421 24.176C31.9421 24.352 32.0061 24.5 32.1341 24.62C32.2621 24.74 32.4181 24.836 32.6021 24.908C32.7861 24.972 33.0581 25.056 33.4181 25.16C33.8981 25.288 34.2901 25.42 34.5941 25.556C34.9061 25.684 35.1741 25.876 35.3981 26.132C35.6221 26.388 35.7381 26.728 35.7461 27.152C35.7461 27.528 35.6421 27.864 35.4341 28.16C35.2261 28.456 34.9301 28.688 34.5461 28.856C34.1701 29.024 33.7261 29.108 33.2141 29.108ZM38.8202 23.504V27.164C38.8202 27.412 38.8762 27.592 38.9882 27.704C39.1082 27.808 39.3082 27.86 39.5882 27.86H40.4282V29H39.3482C38.7322 29 38.2602 28.856 37.9322 28.568C37.6042 28.28 37.4402 27.812 37.4402 27.164V23.504H36.6602V22.388H37.4402V20.744H38.8202V22.388H40.4282V23.504H38.8202ZM47.7491 25.532C47.7491 25.78 47.7331 26.004 47.7011 26.204H42.6491C42.6891 26.732 42.8851 27.156 43.2371 27.476C43.5891 27.796 44.0211 27.956 44.5331 27.956C45.2691 27.956 45.7891 27.648 46.0931 27.032H47.5691C47.3691 27.64 47.0051 28.14 46.4771 28.532C45.9571 28.916 45.3091 29.108 44.5331 29.108C43.9011 29.108 43.3331 28.968 42.8291 28.688C42.3331 28.4 41.9411 28 41.6531 27.488C41.3731 26.968 41.2331 26.368 41.2331 25.688C41.2331 25.008 41.3691 24.412 41.6411 23.9C41.9211 23.38 42.3091 22.98 42.8051 22.7C43.3091 22.42 43.8851 22.28 44.5331 22.28C45.1571 22.28 45.7131 22.416 46.2011 22.688C46.6891 22.96 47.0691 23.344 47.3411 23.84C47.6131 24.328 47.7491 24.892 47.7491 25.532ZM46.3211 25.1C46.3131 24.596 46.1331 24.192 45.7811 23.888C45.4291 23.584 44.9931 23.432 44.4731 23.432C44.0011 23.432 43.5971 23.584 43.2611 23.888C42.9251 24.184 42.7251 24.588 42.6611 25.1H46.3211ZM50.4633 23.348C50.6633 23.012 50.9273 22.752 51.2553 22.568C51.5913 22.376 51.9873 22.28 52.4433 22.28V23.696H52.0953C51.5593 23.696 51.1513 23.832 50.8713 24.104C50.5993 24.376 50.4633 24.848 50.4633 25.52V29H49.0953V22.388H50.4633V23.348ZM17.3678 38.812C17.3678 37.996 17.5558 37.264 17.9318 36.616C18.3158 35.968 18.8318 35.464 19.4798 35.104C20.1358 34.736 20.8518 34.552 21.6278 34.552C22.5158 34.552 23.3038 34.772 23.9918 35.212C24.6878 35.644 25.1918 36.26 25.5038 37.06H23.8598C23.6438 36.62 23.3438 36.292 22.9598 36.076C22.5758 35.86 22.1318 35.752 21.6278 35.752C21.0758 35.752 20.5838 35.876 20.1518 36.124C19.7198 36.372 19.3798 36.728 19.1318 37.192C18.8918 37.656 18.7718 38.196 18.7718 38.812C18.7718 39.428 18.8918 39.968 19.1318 40.432C19.3798 40.896 19.7198 41.256 20.1518 41.512C20.5838 41.76 21.0758 41.884 21.6278 41.884C22.1318 41.884 22.5758 41.776 22.9598 41.56C23.3438 41.344 23.6438 41.016 23.8598 40.576H25.5038C25.1918 41.376 24.6878 41.992 23.9918 42.424C23.3038 42.856 22.5158 43.072 21.6278 43.072C20.8438 43.072 20.1278 42.892 19.4798 42.532C18.8318 42.164 18.3158 41.656 17.9318 41.008C17.5558 40.36 17.3678 39.628 17.3678 38.812ZM26.6491 39.664C26.6491 39 26.7851 38.412 27.0571 37.9C27.3371 37.388 27.7131 36.992 28.1851 36.712C28.6651 36.424 29.1931 36.28 29.7691 36.28C30.2891 36.28 30.7411 36.384 31.1251 36.592C31.5171 36.792 31.8291 37.044 32.0611 37.348V36.388H33.4411V43H32.0611V42.016C31.8291 42.328 31.5131 42.588 31.1131 42.796C30.7131 43.004 30.2571 43.108 29.7451 43.108C29.1771 43.108 28.6571 42.964 28.1851 42.676C27.7131 42.38 27.3371 41.972 27.0571 41.452C26.7851 40.924 26.6491 40.328 26.6491 39.664ZM32.0611 39.688C32.0611 39.232 31.9651 38.836 31.7731 38.5C31.5891 38.164 31.3451 37.908 31.0411 37.732C30.7371 37.556 30.4091 37.468 30.0571 37.468C29.7051 37.468 29.3771 37.556 29.0731 37.732C28.7691 37.9 28.5211 38.152 28.3291 38.488C28.1451 38.816 28.0531 39.208 28.0531 39.664C28.0531 40.12 28.1451 40.52 28.3291 40.864C28.5211 41.208 28.7691 41.472 29.0731 41.656C29.3851 41.832 29.7131 41.92 30.0571 41.92C30.4091 41.92 30.7371 41.832 31.0411 41.656C31.3451 41.48 31.5891 41.224 31.7731 40.888C31.9651 40.544 32.0611 40.144 32.0611 39.688ZM36.6059 37.348C36.8059 37.012 37.0699 36.752 37.3979 36.568C37.7339 36.376 38.1299 36.28 38.5859 36.28V37.696H38.2379C37.7019 37.696 37.2939 37.832 37.0139 38.104C36.7419 38.376 36.6059 38.848 36.6059 39.52V43H35.2379V36.388H36.6059V37.348ZM39.3874 39.664C39.3874 39 39.5234 38.412 39.7954 37.9C40.0754 37.388 40.4514 36.992 40.9234 36.712C41.4034 36.424 41.9354 36.28 42.5194 36.28C42.9514 36.28 43.3754 36.376 43.7914 36.568C44.2154 36.752 44.5514 37 44.7994 37.312V34.12H46.1794V43H44.7994V42.004C44.5754 42.324 44.2634 42.588 43.8634 42.796C43.4714 43.004 43.0194 43.108 42.5074 43.108C41.9314 43.108 41.4034 42.964 40.9234 42.676C40.4514 42.38 40.0754 41.972 39.7954 41.452C39.5234 40.924 39.3874 40.328 39.3874 39.664ZM44.7994 39.688C44.7994 39.232 44.7034 38.836 44.5114 38.5C44.3274 38.164 44.0834 37.908 43.7794 37.732C43.4754 37.556 43.1474 37.468 42.7954 37.468C42.4434 37.468 42.1154 37.556 41.8114 37.732C41.5074 37.9 41.2594 38.152 41.0674 38.488C40.8834 38.816 40.7914 39.208 40.7914 39.664C40.7914 40.12 40.8834 40.52 41.0674 40.864C41.2594 41.208 41.5074 41.472 41.8114 41.656C42.1234 41.832 42.4514 41.92 42.7954 41.92C43.1474 41.92 43.4754 41.832 43.7794 41.656C44.0834 41.48 44.3274 41.224 44.5114 40.888C44.7034 40.544 44.7994 40.144 44.7994 39.688Z" fill="#FF0000"/>
</svg>
