<svg width="643" height="131" viewBox="0 0 643 131" fill="none" xmlns="http://www.w3.org/2000/svg">
<g filter="url(#filter0_d_777_17555)">
<path d="M15 24.2266H148.857V108.965H15L62.9917 66.5957L15 24.2266ZM628 24.2266H494.143V108.965H628L580.008 66.5957L628 24.2266Z" fill="#830B0A"/>
</g>
<g filter="url(#filter1_d_777_17555)">
<path d="M114 8V96.3441H528.676V8H204.856H114Z" fill="#B80D0C"/>
<path d="M114 8V96.3441H528.676V8H204.856H114Z" fill="url(#paint0_linear_777_17555)" fill-opacity="0.5"/>
</g>
<path d="M230 31.2494C232.484 31.2494 233.875 31.5475 236.26 31.5475C238.495 31.5475 240.681 31.2494 242.917 31.2494V31.5475C239.837 31.5475 240.036 34.2799 243.066 39.3474L248.581 48.5881L252.257 41.9805C256.43 34.5283 255.983 31.5475 252.058 31.5475V31.2494C253.946 31.2494 256.43 31.5475 258.269 31.5475C260.007 31.5475 261.647 31.2494 263.386 31.2494V31.5475C260.305 31.5475 257.076 35.2239 253.648 41.4837L249.624 48.7868V57.2326C249.624 64.486 250.518 65.728 253.598 65.728V66.0261C251.114 66.0261 249.723 65.728 247.339 65.728C245.103 65.728 242.917 66.0261 240.681 66.0261V65.728C243.762 65.728 244.656 64.486 244.656 57.2326V52.2148L237.552 39.7448C233.925 33.4354 233.08 31.5475 230 31.5475V31.2494ZM256.902 53.6059C256.902 46.8492 260.528 40.6888 267.931 40.6888C275.333 40.6888 278.91 46.8492 278.91 53.6059C278.91 60.3625 275.333 66.5229 267.931 66.5229C260.528 66.5229 256.902 60.3625 256.902 53.6059ZM261.224 50.6747C261.224 55.0466 263.112 65.6784 269.024 65.6784C273.545 65.6784 274.588 59.965 274.588 56.537C274.588 52.1651 272.75 41.5334 266.788 41.5334C262.267 41.5334 261.224 47.197 261.224 50.6747ZM298.256 51.9664C298.256 46.7996 298.256 45.3588 295.523 45.3588V45.0607C298.653 44.6633 301.137 42.9244 302.429 40.6888H302.727V57.2326C302.727 64.486 303.522 65.728 306.255 65.728V66.0261C303.621 66.0261 301.137 66.0261 298.753 66.5229H298.256V59.9154C296.418 63.244 293.089 66.5229 289.264 66.5229C285.339 66.5229 283.65 62.9956 283.65 58.0275V51.9664C283.65 46.7996 283.65 45.3588 280.917 45.3588V45.0607C284.047 44.6633 286.531 42.9244 287.823 40.6888H288.121V55.7421C288.121 60.4618 289.81 63.4924 292.394 63.4924C294.033 63.4924 296.07 62.2007 298.256 59.2198V51.9664ZM333.42 66.0261H332.427L324.528 40.0429C322.391 33.0379 322.739 31.5475 319.659 31.5475V31.2494C322.143 31.2494 323.534 31.5475 325.919 31.5475C328.154 31.5475 330.34 31.2494 332.576 31.2494V31.5475C329.496 31.5475 328.303 33.7334 329.992 39.3971L335.06 56.239L338.289 44.1168C340.475 35.8697 339.183 31.5475 335.259 31.5475V31.2494C337.146 31.2494 339.631 31.5475 341.469 31.5475C343.208 31.5475 344.847 31.2494 346.586 31.2494V31.5475C344.996 31.5475 343.655 32.7895 342.462 34.9755L348.871 56.239L352.1 44.1168C354.286 35.8697 352.995 31.5475 349.07 31.5475V31.2494C350.958 31.2494 353.442 31.5475 355.28 31.5475C357.019 31.5475 358.658 31.2494 360.397 31.2494V31.5475C357.317 31.5475 355.081 36.3665 353.243 43.2722L347.232 66.0261H346.238L339.382 43.4709L333.42 66.0261ZM360.816 36.0188L364.344 31.3488L367.871 36.0188L364.344 40.6888L360.816 36.0188ZM370.604 66.0261C368.368 66.0261 367.126 65.728 364.99 65.728C363.002 65.728 361.065 66.0261 359.078 66.0261V65.728C361.81 65.728 362.605 64.486 362.605 57.2326V51.9664C362.605 46.7996 362.605 45.3588 359.872 45.3588V45.0607C363.002 44.6633 365.486 42.9244 366.778 40.6888H367.076V57.2326C367.076 64.486 367.871 65.728 370.604 65.728V66.0261ZM384.14 66.0261C381.904 66.0261 380.662 65.728 378.526 65.728C376.539 65.728 374.601 66.0261 372.614 66.0261V65.728C375.346 65.728 376.141 64.486 376.141 57.2326V51.9664C376.141 46.7996 376.141 45.3588 373.409 45.3588V45.0607C376.539 44.6633 379.023 42.9244 380.314 40.6888H380.612V47.2964C382.451 43.9677 385.779 40.6888 389.605 40.6888C393.529 40.6888 395.219 44.2161 395.219 49.1842V57.2326C395.219 64.486 396.013 65.728 398.746 65.728V66.0261C396.51 66.0261 395.268 65.728 393.132 65.728C391.145 65.728 389.207 66.0261 387.22 66.0261V65.728C389.952 65.728 390.747 64.486 390.747 57.2326V51.4696C390.747 46.7499 389.058 43.7193 386.475 43.7193C384.835 43.7193 382.798 45.011 380.612 47.9919V57.2326C380.612 64.486 381.407 65.728 384.14 65.728V66.0261ZM407.858 56.0402H405.026L403.784 30.5539H409.1L407.858 56.0402ZM403.337 63.3433C403.337 62.1179 403.635 61.2567 404.231 60.7599C404.827 60.2631 405.556 60.0147 406.417 60.0147C407.245 60.0147 407.957 60.2631 408.553 60.7599C409.183 61.2567 409.497 62.1179 409.497 63.3433C409.497 64.5357 409.183 65.3968 408.553 65.9268C407.957 66.4567 407.245 66.7217 406.417 66.7217C405.556 66.7217 404.827 66.4567 404.231 65.9268C403.635 65.3968 403.337 64.5357 403.337 63.3433Z" fill="#FFC71D"/>
<defs>
<filter id="filter0_d_777_17555" x="0.57647" y="17.0148" width="641.847" height="113.585" filterUnits="userSpaceOnUse" color-interpolation-filters="sRGB">
<feFlood flood-opacity="0" result="BackgroundImageFix"/>
<feColorMatrix in="SourceAlpha" type="matrix" values="0 0 0 0 0 0 0 0 0 0 0 0 0 0 0 0 0 0 127 0" result="hardAlpha"/>
<feOffset dy="7.21176"/>
<feGaussianBlur stdDeviation="7.21176"/>
<feComposite in2="hardAlpha" operator="out"/>
<feColorMatrix type="matrix" values="0 0 0 0 0 0 0 0 0 0 0 0 0 0 0 0 0 0 0.3 0"/>
<feBlend mode="normal" in2="BackgroundImageFix" result="effect1_dropShadow_777_17555"/>
<feBlend mode="normal" in="SourceGraphic" in2="effect1_dropShadow_777_17555" result="shape"/>
</filter>
<filter id="filter1_d_777_17555" x="99.5765" y="0.788235" width="443.527" height="117.191" filterUnits="userSpaceOnUse" color-interpolation-filters="sRGB">
<feFlood flood-opacity="0" result="BackgroundImageFix"/>
<feColorMatrix in="SourceAlpha" type="matrix" values="0 0 0 0 0 0 0 0 0 0 0 0 0 0 0 0 0 0 127 0" result="hardAlpha"/>
<feOffset dy="7.21176"/>
<feGaussianBlur stdDeviation="7.21176"/>
<feComposite in2="hardAlpha" operator="out"/>
<feColorMatrix type="matrix" values="0 0 0 0 0 0 0 0 0 0 0 0 0 0 0 0 0 0 0.3 0"/>
<feBlend mode="normal" in2="BackgroundImageFix" result="effect1_dropShadow_777_17555"/>
<feBlend mode="normal" in="SourceGraphic" in2="effect1_dropShadow_777_17555" result="shape"/>
</filter>
<linearGradient id="paint0_linear_777_17555" x1="474.237" y1="8.90188" x2="125.482" y2="79.6878" gradientUnits="userSpaceOnUse">
<stop stop-opacity="0"/>
<stop offset="0.438904" stop-color="white" stop-opacity="0.9"/>
<stop offset="1" stop-opacity="0"/>
</linearGradient>
</defs>
</svg>
