<svg width="56" height="54" viewBox="0 0 56 54" fill="none" xmlns="http://www.w3.org/2000/svg">
<rect width="56" height="53.3403" transform="matrix(-1 0 0 1 56 0)" fill="white"/>
<path d="M9.66658 34.4333V18.5647C9.66733 17.869 9.85935 17.1858 10.2234 16.5835C10.5874 15.9812 11.1107 15.481 11.7407 15.1331L26.2592 7.19885C26.8898 6.85066 27.6051 6.66735 28.3332 6.66735C29.0614 6.66735 29.7767 6.85066 30.4073 7.19885L44.9258 15.1331C45.5558 15.481 46.0791 15.9812 46.4431 16.5835C46.8071 17.1858 46.9992 17.869 46.9999 18.5647V34.4333C46.9992 35.129 46.8071 35.8123 46.4431 36.4146C46.0791 37.0169 45.5558 37.5171 44.9258 37.8649L30.4073 45.7992C29.7767 46.1474 29.0614 46.3307 28.3332 46.3307C27.6051 46.3307 26.8898 46.1474 26.2592 45.7992L11.7407 37.8649C11.1107 37.5171 10.5874 37.0169 10.2234 36.4146C9.85935 35.8123 9.66733 35.129 9.66658 34.4333Z" fill="#B40E0D" fill-opacity="0.15" stroke="#B40E0D" stroke-width="2.5" stroke-linecap="round" stroke-linejoin="round"/>
<path d="M30.5385 30.4069L26.2308 26.3038L30.5385 22.2007" stroke="white" stroke-width="2" stroke-linecap="round" stroke-linejoin="round"/>
</svg>
