<svg width="56" height="55" viewBox="0 0 56 55" fill="none" xmlns="http://www.w3.org/2000/svg">
<path d="M46.3334 35.1911V19.3225C46.3326 18.6268 46.1406 17.9436 45.7766 17.3413C45.4125 16.739 44.8893 16.2388 44.2593 15.891L29.7408 7.95666C29.1102 7.60847 28.3949 7.42516 27.6667 7.42516C26.9386 7.42516 26.2233 7.60847 25.5927 7.95666L11.0741 15.891C10.4442 16.2388 9.92091 16.739 9.55687 17.3413C9.19283 17.9436 9.00081 18.6268 9.00006 19.3225V35.1911C9.00081 35.8868 9.19283 36.5701 9.55687 37.1724C9.92091 37.7747 10.4442 38.2749 11.0741 38.6227L25.5927 46.557C26.2233 46.9052 26.9386 47.0885 27.6667 47.0885C28.3949 47.0885 29.1102 46.9052 29.7408 46.557L44.2593 38.6227C44.8893 38.2749 45.4125 37.7747 45.7766 37.1724C46.1406 36.5701 46.3326 35.8868 46.3334 35.1911Z" fill="#B40E0D" fill-opacity="0.15" stroke="#B40E0D" stroke-width="2.5" stroke-linecap="round" stroke-linejoin="round"/>
<path d="M25.4615 31.1647L29.7692 27.0616L25.4615 22.9585" stroke="white" stroke-width="2" stroke-linecap="round" stroke-linejoin="round"/>
</svg>
