<svg width="55" height="55" viewBox="0 0 55 55" fill="none" xmlns="http://www.w3.org/2000/svg">
<path d="M0.581802 37.6491C0.218011 33.227 1.44675 28.8204 4.0463 25.2246C6.64584 21.6288 10.445 19.0805 14.7582 18.0396C15.033 13.3577 17.0715 8.95379 20.4632 5.71472C23.8549 2.47565 28.348 0.642002 33.0375 0.583025C37.7271 0.524048 42.2648 2.24412 45.7369 5.39687C49.2091 8.54962 51.3576 12.9009 51.75 17.5743L54.0506 42.6702C54.2541 45.0127 53.5194 47.3402 52.008 49.1414C50.4966 50.9426 48.3321 52.0703 45.9898 52.2767L20.8757 54.3689C18.4442 54.6101 15.989 54.3685 13.6512 53.6578C11.3133 52.9471 9.139 51.7814 7.25313 50.2276C5.36727 48.6739 3.80706 46.7628 2.66217 44.6042C1.51728 42.4455 0.810275 40.0819 0.581802 37.6491ZM20.1643 48.6369L45.1651 46.4496C45.5542 46.4172 45.9331 46.3081 46.2797 46.1285C46.6264 45.9489 46.9341 45.7025 47.1851 45.4034C47.4361 45.1043 47.6254 44.7584 47.742 44.3858C47.8586 44.0132 47.9004 43.6212 47.8647 43.2324L45.6774 18.2316C45.3521 14.9307 43.7471 11.8884 41.2062 9.75639C38.6654 7.62434 35.3906 6.57203 32.0834 6.82481C28.7765 7.13543 25.725 8.73632 23.59 11.2807C21.455 13.8251 20.4083 17.1082 20.6766 20.4189C20.7123 20.8077 20.6705 21.1997 20.5539 21.5723C20.4373 21.9449 20.248 22.2907 19.997 22.5898C19.746 22.8889 19.4383 23.1354 19.0916 23.315C18.7449 23.4945 18.3661 23.6037 17.977 23.6361C14.9369 24.2541 12.2306 25.9694 10.3742 28.4549C8.51779 30.9405 7.64119 34.0223 7.91158 37.1128C8.18196 40.2033 9.5804 43.0861 11.8402 45.2116C14.1 47.337 17.0631 48.5563 20.1643 48.6369Z" fill="url(#paint0_linear_1_623)" fill-opacity="0.4"/>
<path d="M0.581802 37.6491C0.218011 33.227 1.44675 28.8204 4.0463 25.2246C6.64584 21.6288 10.445 19.0805 14.7582 18.0396C15.033 13.3577 17.0715 8.95379 20.4632 5.71472C23.8549 2.47565 28.348 0.642002 33.0375 0.583025C37.7271 0.524048 42.2648 2.24412 45.7369 5.39687C49.2091 8.54962 51.3576 12.9009 51.75 17.5743L54.0506 42.6702C54.2541 45.0127 53.5194 47.3402 52.008 49.1414C50.4966 50.9426 48.3321 52.0703 45.9898 52.2767L20.8757 54.3689C18.4442 54.6101 15.989 54.3685 13.6512 53.6578C11.3133 52.9471 9.139 51.7814 7.25313 50.2276C5.36727 48.6739 3.80706 46.7628 2.66217 44.6042C1.51728 42.4455 0.810275 40.0819 0.581802 37.6491ZM20.1643 48.6369L45.1651 46.4496C45.5542 46.4172 45.9331 46.3081 46.2797 46.1285C46.6264 45.9489 46.9341 45.7025 47.1851 45.4034C47.4361 45.1043 47.6254 44.7584 47.742 44.3858C47.8586 44.0132 47.9004 43.6212 47.8647 43.2324L45.6774 18.2316C45.3521 14.9307 43.7471 11.8884 41.2062 9.75639C38.6654 7.62434 35.3906 6.57203 32.0834 6.82481C28.7765 7.13543 25.725 8.73632 23.59 11.2807C21.455 13.8251 20.4083 17.1082 20.6766 20.4189C20.7123 20.8077 20.6705 21.1997 20.5539 21.5723C20.4373 21.9449 20.248 22.2907 19.997 22.5898C19.746 22.8889 19.4383 23.1354 19.0916 23.315C18.7449 23.4945 18.3661 23.6037 17.977 23.6361C14.9369 24.2541 12.2306 25.9694 10.3742 28.4549C8.51779 30.9405 7.64119 34.0223 7.91158 37.1128C8.18196 40.2033 9.5804 43.0861 11.8402 45.2116C14.1 47.337 17.0631 48.5563 20.1643 48.6369Z" fill="url(#paint1_linear_1_623)"/>
<defs>
<linearGradient id="paint0_linear_1_623" x1="11.9925" y1="15.6344" x2="51.9736" y2="49.1825" gradientUnits="userSpaceOnUse">
<stop stop-color="#A90D7D"/>
<stop offset="1" stop-color="#7128AE"/>
</linearGradient>
<linearGradient id="paint1_linear_1_623" x1="25.7917" y1="-0.810909" x2="14.3708" y2="38.1635" gradientUnits="userSpaceOnUse">
<stop stop-color="#AD0B40" stop-opacity="0.878431"/>
<stop offset="1" stop-color="#FF1917"/>
</linearGradient>
</defs>
</svg>
