<svg width="102" height="102" viewBox="0 0 102 102" fill="none" xmlns="http://www.w3.org/2000/svg">
<path d="M51 9.66833C49.8015 9.66833 48.6055 10.2154 47.9744 11.3119L37.8515 28.5319H18.1413C16.8791 28.5319 15.7406 29.1847 15.1095 30.2812C14.4784 31.3778 14.4784 32.6867 15.1095 33.78L17.2324 37.4531C17.6723 38.2149 18.6496 38.475 19.4114 38.0383C20.1732 37.5985 20.4364 36.6244 19.9966 35.8594L17.8736 32.1863L18.1351 31.7194H37.8453C39.0916 31.7194 40.2494 31.0473 40.871 29.97L50.7261 12.9056H50.8132H51.2615L61.1166 29.97C61.7381 31.0473 62.8959 31.7194 64.1422 31.7194H83.8524L84.1139 32.1863L81.991 35.8594C81.5511 36.6212 81.8144 37.5985 82.5762 38.0383C82.8375 38.185 83.1083 38.25 83.3793 38.25C83.9307 38.25 84.4711 37.9631 84.7676 37.4531L86.8843 33.78C87.5186 32.6867 87.5216 31.3778 86.8905 30.2812C86.2594 29.1847 85.1209 28.5319 83.8586 28.5319L63.887 28.3762L54.0256 11.3119C53.3945 10.2154 52.1985 9.66833 51 9.66833ZM27.0937 35.0625C26.214 35.0625 25.5 35.7765 25.5 36.6562C25.5 37.536 26.214 38.25 27.0937 38.25H74.9062C75.786 38.25 76.5 37.536 76.5 36.6562C76.5 35.7765 75.786 35.0625 74.9062 35.0625H27.0937ZM22.3125 41.4375C19.6764 41.4375 17.5312 43.5827 17.5312 46.2188V55.7812C17.5312 58.4173 19.6764 60.5625 22.3125 60.5625H25.5C28.136 60.5625 30.2812 58.4173 30.2812 55.7812V46.2188C30.2812 43.5827 28.136 41.4375 25.5 41.4375H22.3125ZM38.25 41.4375C35.6139 41.4375 33.4687 43.5827 33.4687 46.2188V58.9688C33.4687 59.8485 34.1827 60.5625 35.0625 60.5625C35.9422 60.5625 36.6562 59.8485 36.6562 58.9688V51H41.4375C42.3172 51 43.0312 50.286 43.0312 49.4062C43.0312 48.5265 42.3172 47.8125 41.4375 47.8125H36.6562V46.2188C36.6562 45.3422 37.3702 44.625 38.25 44.625H41.4375C42.3172 44.625 43.0312 43.911 43.0312 43.0312C43.0312 42.1515 42.3172 41.4375 41.4375 41.4375H38.25ZM51 41.4375C48.3639 41.4375 46.2187 43.5827 46.2187 46.2188V58.9688C46.2187 59.8485 46.9327 60.5625 47.8125 60.5625C48.6922 60.5625 49.4062 59.8485 49.4062 58.9688V51H54.1875C55.0672 51 55.7812 50.286 55.7812 49.4062C55.7812 48.5265 55.0672 47.8125 54.1875 47.8125H49.4062V46.2188C49.4062 45.3422 50.1202 44.625 51 44.625H54.1875C55.0672 44.625 55.7812 43.911 55.7812 43.0312C55.7812 42.1515 55.0672 41.4375 54.1875 41.4375H51ZM63.75 41.4375C61.1139 41.4375 58.9687 43.5827 58.9687 46.2188V55.7812C58.9687 58.4173 61.1139 60.5625 63.75 60.5625H66.9375C67.8172 60.5625 68.5312 59.8485 68.5312 58.9688C68.5312 58.089 67.8172 57.375 66.9375 57.375H63.75C62.8702 57.375 62.1562 56.6578 62.1562 55.7812V52.5938H66.9375C67.8172 52.5938 68.5312 51.8797 68.5312 51C68.5312 50.1203 67.8172 49.4062 66.9375 49.4062H62.1562V46.2188C62.1562 45.3422 62.8702 44.625 63.75 44.625H66.9375C67.8172 44.625 68.5312 43.911 68.5312 43.0312C68.5312 42.1515 67.8172 41.4375 66.9375 41.4375H63.75ZM76.5 41.4375C73.8639 41.4375 71.7187 43.5827 71.7187 46.2188V51V58.9688C71.7187 59.8485 72.4327 60.5625 73.3125 60.5625C74.1922 60.5625 74.9062 59.8485 74.9062 58.9688V52.5938H75.7342L81.6299 59.9648C81.9454 60.3569 82.4096 60.5625 82.875 60.5625C83.2224 60.5625 83.5778 60.4466 83.8711 60.2139C84.5564 59.6624 84.6684 58.6612 84.1201 57.9727L79.8058 52.5813C82.3876 52.5144 84.4687 50.4071 84.4687 47.8125V46.2188C84.4687 43.5827 82.3236 41.4375 79.6875 41.4375H76.5ZM22.3125 44.625H25.5C26.3797 44.625 27.0937 45.3422 27.0937 46.2188V55.7812C27.0937 56.6578 26.3797 57.375 25.5 57.375H22.3125C21.4327 57.375 20.7187 56.6578 20.7187 55.7812V46.2188C20.7187 45.3422 21.4327 44.625 22.3125 44.625ZM76.5 44.625H79.6875C80.5672 44.625 81.2812 45.3422 81.2812 46.2188V47.8125C81.2812 48.6891 80.5672 49.4062 79.6875 49.4062H74.9062V46.2188C74.9062 45.3422 75.6202 44.625 76.5 44.625ZM27.0937 63.75C26.214 63.75 25.5 64.464 25.5 65.3438C25.5 66.2235 26.214 66.9375 27.0937 66.9375H74.9062C75.786 66.9375 76.5 66.2235 76.5 65.3438C76.5 64.464 75.786 63.75 74.9062 63.75H27.0937ZM18.8137 63.7562C18.1974 63.6782 17.5685 63.9731 17.2386 64.5469L15.1157 68.22C14.4814 69.3133 14.4846 70.6222 15.1157 71.7188C15.7468 72.8153 16.8791 73.4681 18.1413 73.4681L38.1192 73.6238L47.9744 90.6881C48.6055 91.7846 49.7377 92.4375 51 92.4375C52.2622 92.4375 53.3945 91.7846 54.0256 90.6881L64.1484 73.4681H83.8586C85.1209 73.4681 86.2531 72.8153 86.8843 71.7188C87.5154 70.6222 87.5186 69.3133 86.8843 68.22L84.7613 64.5469C84.3215 63.7851 83.341 63.5186 82.5824 63.9617C81.8206 64.4015 81.5635 65.3756 82.0034 66.1406L84.1263 69.8137L83.8586 70.2806H64.1547C62.9083 70.2806 61.7444 70.9527 61.1228 72.03L51.2739 89.0944H51.1805C51.0275 89.0944 50.7385 89.0944 50.7385 89.0944L40.8834 72.03C40.2618 70.9527 39.1041 70.2806 37.8578 70.2806H18.1413L17.8736 69.8137L19.9966 66.1406C20.4364 65.3788 20.1794 64.4015 19.4176 63.9617C19.2271 63.8501 19.0192 63.7822 18.8137 63.7562Z" fill="url(#paint0_linear_1_457)" fill-opacity="0.8"/>
<path d="M51 9.66833C49.8015 9.66833 48.6055 10.2154 47.9744 11.3119L37.8515 28.5319H18.1413C16.8791 28.5319 15.7406 29.1847 15.1095 30.2812C14.4784 31.3778 14.4784 32.6867 15.1095 33.78L17.2324 37.4531C17.6723 38.2149 18.6496 38.475 19.4114 38.0383C20.1732 37.5985 20.4364 36.6244 19.9966 35.8594L17.8736 32.1863L18.1351 31.7194H37.8453C39.0916 31.7194 40.2494 31.0473 40.871 29.97L50.7261 12.9056H50.8132H51.2615L61.1166 29.97C61.7381 31.0473 62.8959 31.7194 64.1422 31.7194H83.8524L84.1139 32.1863L81.991 35.8594C81.5511 36.6212 81.8144 37.5985 82.5762 38.0383C82.8375 38.185 83.1083 38.25 83.3793 38.25C83.9307 38.25 84.4711 37.9631 84.7676 37.4531L86.8843 33.78C87.5186 32.6867 87.5216 31.3778 86.8905 30.2812C86.2594 29.1847 85.1209 28.5319 83.8586 28.5319L63.887 28.3762L54.0256 11.3119C53.3945 10.2154 52.1985 9.66833 51 9.66833ZM27.0937 35.0625C26.214 35.0625 25.5 35.7765 25.5 36.6562C25.5 37.536 26.214 38.25 27.0937 38.25H74.9062C75.786 38.25 76.5 37.536 76.5 36.6562C76.5 35.7765 75.786 35.0625 74.9062 35.0625H27.0937ZM22.3125 41.4375C19.6764 41.4375 17.5312 43.5827 17.5312 46.2188V55.7812C17.5312 58.4173 19.6764 60.5625 22.3125 60.5625H25.5C28.136 60.5625 30.2812 58.4173 30.2812 55.7812V46.2188C30.2812 43.5827 28.136 41.4375 25.5 41.4375H22.3125ZM38.25 41.4375C35.6139 41.4375 33.4687 43.5827 33.4687 46.2188V58.9688C33.4687 59.8485 34.1827 60.5625 35.0625 60.5625C35.9422 60.5625 36.6562 59.8485 36.6562 58.9688V51H41.4375C42.3172 51 43.0312 50.286 43.0312 49.4062C43.0312 48.5265 42.3172 47.8125 41.4375 47.8125H36.6562V46.2188C36.6562 45.3422 37.3702 44.625 38.25 44.625H41.4375C42.3172 44.625 43.0312 43.911 43.0312 43.0312C43.0312 42.1515 42.3172 41.4375 41.4375 41.4375H38.25ZM51 41.4375C48.3639 41.4375 46.2187 43.5827 46.2187 46.2188V58.9688C46.2187 59.8485 46.9327 60.5625 47.8125 60.5625C48.6922 60.5625 49.4062 59.8485 49.4062 58.9688V51H54.1875C55.0672 51 55.7812 50.286 55.7812 49.4062C55.7812 48.5265 55.0672 47.8125 54.1875 47.8125H49.4062V46.2188C49.4062 45.3422 50.1202 44.625 51 44.625H54.1875C55.0672 44.625 55.7812 43.911 55.7812 43.0312C55.7812 42.1515 55.0672 41.4375 54.1875 41.4375H51ZM63.75 41.4375C61.1139 41.4375 58.9687 43.5827 58.9687 46.2188V55.7812C58.9687 58.4173 61.1139 60.5625 63.75 60.5625H66.9375C67.8172 60.5625 68.5312 59.8485 68.5312 58.9688C68.5312 58.089 67.8172 57.375 66.9375 57.375H63.75C62.8702 57.375 62.1562 56.6578 62.1562 55.7812V52.5938H66.9375C67.8172 52.5938 68.5312 51.8797 68.5312 51C68.5312 50.1203 67.8172 49.4062 66.9375 49.4062H62.1562V46.2188C62.1562 45.3422 62.8702 44.625 63.75 44.625H66.9375C67.8172 44.625 68.5312 43.911 68.5312 43.0312C68.5312 42.1515 67.8172 41.4375 66.9375 41.4375H63.75ZM76.5 41.4375C73.8639 41.4375 71.7187 43.5827 71.7187 46.2188V51V58.9688C71.7187 59.8485 72.4327 60.5625 73.3125 60.5625C74.1922 60.5625 74.9062 59.8485 74.9062 58.9688V52.5938H75.7342L81.6299 59.9648C81.9454 60.3569 82.4096 60.5625 82.875 60.5625C83.2224 60.5625 83.5778 60.4466 83.8711 60.2139C84.5564 59.6624 84.6684 58.6612 84.1201 57.9727L79.8058 52.5813C82.3876 52.5144 84.4687 50.4071 84.4687 47.8125V46.2188C84.4687 43.5827 82.3236 41.4375 79.6875 41.4375H76.5ZM22.3125 44.625H25.5C26.3797 44.625 27.0937 45.3422 27.0937 46.2188V55.7812C27.0937 56.6578 26.3797 57.375 25.5 57.375H22.3125C21.4327 57.375 20.7187 56.6578 20.7187 55.7812V46.2188C20.7187 45.3422 21.4327 44.625 22.3125 44.625ZM76.5 44.625H79.6875C80.5672 44.625 81.2812 45.3422 81.2812 46.2188V47.8125C81.2812 48.6891 80.5672 49.4062 79.6875 49.4062H74.9062V46.2188C74.9062 45.3422 75.6202 44.625 76.5 44.625ZM27.0937 63.75C26.214 63.75 25.5 64.464 25.5 65.3438C25.5 66.2235 26.214 66.9375 27.0937 66.9375H74.9062C75.786 66.9375 76.5 66.2235 76.5 65.3438C76.5 64.464 75.786 63.75 74.9062 63.75H27.0937ZM18.8137 63.7562C18.1974 63.6782 17.5685 63.9731 17.2386 64.5469L15.1157 68.22C14.4814 69.3133 14.4846 70.6222 15.1157 71.7188C15.7468 72.8153 16.8791 73.4681 18.1413 73.4681L38.1192 73.6238L47.9744 90.6881C48.6055 91.7846 49.7377 92.4375 51 92.4375C52.2622 92.4375 53.3945 91.7846 54.0256 90.6881L64.1484 73.4681H83.8586C85.1209 73.4681 86.2531 72.8153 86.8843 71.7188C87.5154 70.6222 87.5186 69.3133 86.8843 68.22L84.7613 64.5469C84.3215 63.7851 83.341 63.5186 82.5824 63.9617C81.8206 64.4015 81.5635 65.3756 82.0034 66.1406L84.1263 69.8137L83.8586 70.2806H64.1547C62.9083 70.2806 61.7444 70.9527 61.1228 72.03L51.2739 89.0944H51.1805C51.0275 89.0944 50.7385 89.0944 50.7385 89.0944L40.8834 72.03C40.2618 70.9527 39.1041 70.2806 37.8578 70.2806H18.1413L17.8736 69.8137L19.9966 66.1406C20.4364 65.3788 20.1794 64.4015 19.4176 63.9617C19.2271 63.8501 19.0192 63.7822 18.8137 63.7562Z" fill="url(#paint1_linear_1_457)"/>
<defs>
<linearGradient id="paint0_linear_1_457" x1="15" y1="32.5004" x2="76" y2="79.5004" gradientUnits="userSpaceOnUse">
<stop offset="0.348958" stop-color="#FF12B3"/>
<stop offset="1" stop-color="#6D2AB1"/>
</linearGradient>
<linearGradient id="paint1_linear_1_457" x1="24.5791" y1="9.66833" x2="73.4924" y2="26.305" gradientUnits="userSpaceOnUse">
<stop stop-color="#AD0B40" stop-opacity="0.878431"/>
<stop offset="1" stop-color="#FF1917"/>
</linearGradient>
</defs>
</svg>
