<svg width="95" height="61" viewBox="0 0 95 61" fill="none" xmlns="http://www.w3.org/2000/svg">
<path d="M13.3203 0.25C12.0263 0.253095 10.7861 0.768527 9.87106 1.68356C8.95603 2.5986 8.44059 3.83876 8.4375 5.13281V49.0781H1.60156C1.34256 49.0781 1.09417 49.181 0.911028 49.3642C0.727887 49.5473 0.625 49.7957 0.625 50.0547V53.9609C0.625 57.7305 3.69141 60.7969 7.46094 60.7969H87.5391C91.3086 60.7969 94.375 57.7305 94.375 53.9609V50.0547C94.375 49.7957 94.2721 49.5473 94.089 49.3642C93.9058 49.181 93.6574 49.0781 93.3984 49.0781H86.5625V5.13281C86.5625 2.44531 84.3672 0.25 81.6797 0.25H13.3203ZM13.3203 2.20312H81.6797C83.3203 2.20312 84.6094 3.49219 84.6094 5.13281V49.0781H10.3906V5.13281C10.3906 3.49219 11.6797 2.20312 13.3203 2.20312ZM15.2734 6.10938C15.0144 6.10938 14.766 6.21226 14.5829 6.3954C14.3998 6.57854 14.2969 6.82694 14.2969 7.08594V44.1953C14.2969 44.4543 14.3998 44.7027 14.5829 44.8858C14.766 45.069 15.0144 45.1719 15.2734 45.1719H79.7266C79.9856 45.1719 80.234 45.069 80.4171 44.8858C80.6002 44.7027 80.7031 44.4543 80.7031 44.1953V7.08594C80.7031 6.82694 80.6002 6.57854 80.4171 6.3954C80.234 6.21226 79.9856 6.10938 79.7266 6.10938H15.2734ZM16.25 8.0625H78.75V43.2188H16.25V8.0625ZM30.957 10.0156C29.334 10.0156 27.9688 11.3242 27.9688 12.9453V38.3359C27.9688 39.9414 29.293 41.2656 30.8984 41.2656H66.0391C67.6465 41.2656 68.9688 39.9414 68.9688 38.3359V31.5H68.9844V24.6641L68.9688 24.6797V22.7109C68.9688 21.1055 67.6465 19.7812 66.0391 19.7812H65.0781V18.8047C65.0781 17.1992 63.7539 15.875 62.1484 15.875H42.6172C42.4881 15.8782 42.3596 15.8552 42.2397 15.8072C42.1198 15.7593 42.0108 15.6875 41.9195 15.5961C41.8282 15.5048 41.7563 15.3959 41.7084 15.2759C41.6605 15.156 41.6374 15.0276 41.6406 14.8984V12.9453C41.6406 11.3242 40.2754 10.0156 38.6523 10.0156H30.957ZM30.957 11.9688H38.6523C39.2578 11.9688 39.6875 12.4043 39.6875 12.9453V14.8984C39.6875 16.5039 41.0117 17.8281 42.6172 17.8281H62.1484C62.707 17.8281 63.125 18.2461 63.125 18.8047V19.7812H38.6953C37.0898 19.7812 35.7656 21.1055 35.7656 22.7109V38.3359C35.7656 38.8945 35.3477 39.3125 34.7891 39.3125H30.8984C30.7693 39.3157 30.6409 39.2927 30.521 39.2447C30.401 39.1968 30.2921 39.125 30.2007 39.0336C30.1094 38.9423 30.0376 38.8334 29.9897 38.7134C29.9417 38.5935 29.9187 38.4651 29.9219 38.3359V12.9453C29.9219 12.4043 30.3516 11.9688 30.957 11.9688ZM38.6953 21.7344H66.0391C66.5977 21.7344 67.0156 22.1523 67.0156 22.7109V23.6875H37.7188V22.7109C37.7188 22.1523 38.1387 21.7344 38.6953 21.7344ZM37.7344 25.6406H67.0156V29.5469H37.7344V25.6406ZM44.5703 26.6172C44.3113 26.6172 44.0629 26.7201 43.8798 26.9032C43.6966 27.0864 43.5938 27.3347 43.5938 27.5938C43.5938 27.8528 43.6966 28.1011 43.8798 28.2843C44.0629 28.4674 44.3113 28.5703 44.5703 28.5703C44.8293 28.5703 45.0777 28.4674 45.2608 28.2843C45.444 28.1011 45.5469 27.8528 45.5469 27.5938C45.5469 27.3347 45.444 27.0864 45.2608 26.9032C45.0777 26.7201 44.8293 26.6172 44.5703 26.6172ZM48.4766 26.6172C48.2176 26.6172 47.9692 26.7201 47.786 26.9032C47.6029 27.0864 47.5 27.3347 47.5 27.5938C47.5 27.8528 47.6029 28.1011 47.786 28.2843C47.9692 28.4674 48.2176 28.5703 48.4766 28.5703C48.7356 28.5703 48.984 28.4674 49.1671 28.2843C49.3502 28.1011 49.4531 27.8528 49.4531 27.5938C49.4531 27.3347 49.3502 27.0864 49.1671 26.9032C48.984 26.7201 48.7356 26.6172 48.4766 26.6172ZM52.3828 26.6172C52.1238 26.6172 51.8754 26.7201 51.6923 26.9032C51.5091 27.0864 51.4062 27.3347 51.4062 27.5938C51.4062 27.8528 51.5091 28.1011 51.6923 28.2843C51.8754 28.4674 52.1238 28.5703 52.3828 28.5703C52.6418 28.5703 52.8902 28.4674 53.0733 28.2843C53.2565 28.1011 53.3594 27.8528 53.3594 27.5938C53.3594 27.3347 53.2565 27.0864 53.0733 26.9032C52.8902 26.7201 52.6418 26.6172 52.3828 26.6172ZM56.2891 26.6172C56.0301 26.6172 55.7817 26.7201 55.5985 26.9032C55.4154 27.0864 55.3125 27.3347 55.3125 27.5938C55.3125 27.8528 55.4154 28.1011 55.5985 28.2843C55.7817 28.4674 56.0301 28.5703 56.2891 28.5703C56.5481 28.5703 56.7965 28.4674 56.9796 28.2843C57.1627 28.1011 57.2656 27.8528 57.2656 27.5938C57.2656 27.3347 57.1627 27.0864 56.9796 26.9032C56.7965 26.7201 56.5481 26.6172 56.2891 26.6172ZM60.1953 26.6172C59.9363 26.6172 59.6879 26.7201 59.5048 26.9032C59.3216 27.0864 59.2188 27.3347 59.2188 27.5938C59.2188 27.8528 59.3216 28.1011 59.5048 28.2843C59.6879 28.4674 59.9363 28.5703 60.1953 28.5703C60.4543 28.5703 60.7027 28.4674 60.8858 28.2843C61.069 28.1011 61.1719 27.8528 61.1719 27.5938C61.1719 27.3347 61.069 27.0864 60.8858 26.9032C60.7027 26.7201 60.4543 26.6172 60.1953 26.6172ZM37.7188 31.5H67.0156V35.4062H65.0781V37.3594H67.0156V38.3359C67.0156 38.8945 66.5977 39.3125 66.0391 39.3125H37.3105C37.4453 38.9785 37.7207 38.7148 37.7207 38.3359L37.7188 31.5ZM65.0781 35.4062V33.4531H63.125V35.4062H65.0781ZM63.125 35.4062H61.1719V37.3594H63.125V35.4062ZM61.1719 35.4062V33.4531H59.2188V35.4062H61.1719ZM59.2188 35.4062H57.2656V37.3594H59.2188V35.4062ZM57.2656 35.4062V33.4531H55.3125V35.4062H57.2656ZM55.3125 35.4062H53.3594V37.3594H55.3125V35.4062ZM53.3594 35.4062V33.4531H51.4062V35.4062H53.3594ZM51.4062 35.4062H49.4531V37.3594H51.4062V35.4062ZM49.4531 35.4062V33.4531H43.5938C42.5117 33.4531 41.6406 34.3242 41.6406 35.4062C41.6406 36.4883 42.5117 37.3594 43.5938 37.3594H47.5V35.4062H49.4531ZM43.5938 34.4297C43.8527 34.4297 44.1011 34.5326 44.2843 34.7157C44.4674 34.8989 44.5703 35.1473 44.5703 35.4062C44.5703 35.6652 44.4674 35.9136 44.2843 36.0968C44.1011 36.2799 43.8527 36.3828 43.5938 36.3828C43.3348 36.3828 43.0864 36.2799 42.9032 36.0968C42.7201 35.9136 42.6172 35.6652 42.6172 35.4062C42.6172 35.1473 42.7201 34.8989 42.9032 34.7157C43.0864 34.5326 43.3348 34.4297 43.5938 34.4297ZM2.57812 51.0312H35.8789V51.0352C36.1075 52.136 36.7079 53.1247 37.5792 53.8352C38.4505 54.5458 39.5397 54.935 40.6641 54.9375H56.2891C57.4137 54.9341 58.503 54.544 59.3743 53.8328C60.2455 53.1216 60.8457 52.1325 61.0742 51.0312H92.4219V53.9609C92.4219 56.6836 90.2617 58.8438 87.5391 58.8438H7.46094C6.81856 58.8479 6.18175 58.7244 5.58747 58.4805C4.99318 58.2366 4.45325 57.8771 3.99901 57.4229C3.54477 56.9686 3.18527 56.4287 2.94135 55.8344C2.69744 55.2401 2.57397 54.6033 2.57812 53.9609V51.0312ZM38.1348 51.0312H58.8184C58.3945 52.1211 57.5449 52.9844 56.2891 52.9844H40.6641C39.4082 52.9844 38.5586 52.1211 38.1348 51.0312Z" fill="url(#paint0_linear_1_454)" fill-opacity="0.8"/>
<path d="M13.3203 0.25C12.0263 0.253095 10.7861 0.768527 9.87106 1.68356C8.95603 2.5986 8.44059 3.83876 8.4375 5.13281V49.0781H1.60156C1.34256 49.0781 1.09417 49.181 0.911028 49.3642C0.727887 49.5473 0.625 49.7957 0.625 50.0547V53.9609C0.625 57.7305 3.69141 60.7969 7.46094 60.7969H87.5391C91.3086 60.7969 94.375 57.7305 94.375 53.9609V50.0547C94.375 49.7957 94.2721 49.5473 94.089 49.3642C93.9058 49.181 93.6574 49.0781 93.3984 49.0781H86.5625V5.13281C86.5625 2.44531 84.3672 0.25 81.6797 0.25H13.3203ZM13.3203 2.20312H81.6797C83.3203 2.20312 84.6094 3.49219 84.6094 5.13281V49.0781H10.3906V5.13281C10.3906 3.49219 11.6797 2.20312 13.3203 2.20312ZM15.2734 6.10938C15.0144 6.10938 14.766 6.21226 14.5829 6.3954C14.3998 6.57854 14.2969 6.82694 14.2969 7.08594V44.1953C14.2969 44.4543 14.3998 44.7027 14.5829 44.8858C14.766 45.069 15.0144 45.1719 15.2734 45.1719H79.7266C79.9856 45.1719 80.234 45.069 80.4171 44.8858C80.6002 44.7027 80.7031 44.4543 80.7031 44.1953V7.08594C80.7031 6.82694 80.6002 6.57854 80.4171 6.3954C80.234 6.21226 79.9856 6.10938 79.7266 6.10938H15.2734ZM16.25 8.0625H78.75V43.2188H16.25V8.0625ZM30.957 10.0156C29.334 10.0156 27.9688 11.3242 27.9688 12.9453V38.3359C27.9688 39.9414 29.293 41.2656 30.8984 41.2656H66.0391C67.6465 41.2656 68.9688 39.9414 68.9688 38.3359V31.5H68.9844V24.6641L68.9688 24.6797V22.7109C68.9688 21.1055 67.6465 19.7812 66.0391 19.7812H65.0781V18.8047C65.0781 17.1992 63.7539 15.875 62.1484 15.875H42.6172C42.4881 15.8782 42.3596 15.8552 42.2397 15.8072C42.1198 15.7593 42.0108 15.6875 41.9195 15.5961C41.8282 15.5048 41.7563 15.3959 41.7084 15.2759C41.6605 15.156 41.6374 15.0276 41.6406 14.8984V12.9453C41.6406 11.3242 40.2754 10.0156 38.6523 10.0156H30.957ZM30.957 11.9688H38.6523C39.2578 11.9688 39.6875 12.4043 39.6875 12.9453V14.8984C39.6875 16.5039 41.0117 17.8281 42.6172 17.8281H62.1484C62.707 17.8281 63.125 18.2461 63.125 18.8047V19.7812H38.6953C37.0898 19.7812 35.7656 21.1055 35.7656 22.7109V38.3359C35.7656 38.8945 35.3477 39.3125 34.7891 39.3125H30.8984C30.7693 39.3157 30.6409 39.2927 30.521 39.2447C30.401 39.1968 30.2921 39.125 30.2007 39.0336C30.1094 38.9423 30.0376 38.8334 29.9897 38.7134C29.9417 38.5935 29.9187 38.4651 29.9219 38.3359V12.9453C29.9219 12.4043 30.3516 11.9688 30.957 11.9688ZM38.6953 21.7344H66.0391C66.5977 21.7344 67.0156 22.1523 67.0156 22.7109V23.6875H37.7188V22.7109C37.7188 22.1523 38.1387 21.7344 38.6953 21.7344ZM37.7344 25.6406H67.0156V29.5469H37.7344V25.6406ZM44.5703 26.6172C44.3113 26.6172 44.0629 26.7201 43.8798 26.9032C43.6966 27.0864 43.5938 27.3347 43.5938 27.5938C43.5938 27.8528 43.6966 28.1011 43.8798 28.2843C44.0629 28.4674 44.3113 28.5703 44.5703 28.5703C44.8293 28.5703 45.0777 28.4674 45.2608 28.2843C45.444 28.1011 45.5469 27.8528 45.5469 27.5938C45.5469 27.3347 45.444 27.0864 45.2608 26.9032C45.0777 26.7201 44.8293 26.6172 44.5703 26.6172ZM48.4766 26.6172C48.2176 26.6172 47.9692 26.7201 47.786 26.9032C47.6029 27.0864 47.5 27.3347 47.5 27.5938C47.5 27.8528 47.6029 28.1011 47.786 28.2843C47.9692 28.4674 48.2176 28.5703 48.4766 28.5703C48.7356 28.5703 48.984 28.4674 49.1671 28.2843C49.3502 28.1011 49.4531 27.8528 49.4531 27.5938C49.4531 27.3347 49.3502 27.0864 49.1671 26.9032C48.984 26.7201 48.7356 26.6172 48.4766 26.6172ZM52.3828 26.6172C52.1238 26.6172 51.8754 26.7201 51.6923 26.9032C51.5091 27.0864 51.4062 27.3347 51.4062 27.5938C51.4062 27.8528 51.5091 28.1011 51.6923 28.2843C51.8754 28.4674 52.1238 28.5703 52.3828 28.5703C52.6418 28.5703 52.8902 28.4674 53.0733 28.2843C53.2565 28.1011 53.3594 27.8528 53.3594 27.5938C53.3594 27.3347 53.2565 27.0864 53.0733 26.9032C52.8902 26.7201 52.6418 26.6172 52.3828 26.6172ZM56.2891 26.6172C56.0301 26.6172 55.7817 26.7201 55.5985 26.9032C55.4154 27.0864 55.3125 27.3347 55.3125 27.5938C55.3125 27.8528 55.4154 28.1011 55.5985 28.2843C55.7817 28.4674 56.0301 28.5703 56.2891 28.5703C56.5481 28.5703 56.7965 28.4674 56.9796 28.2843C57.1627 28.1011 57.2656 27.8528 57.2656 27.5938C57.2656 27.3347 57.1627 27.0864 56.9796 26.9032C56.7965 26.7201 56.5481 26.6172 56.2891 26.6172ZM60.1953 26.6172C59.9363 26.6172 59.6879 26.7201 59.5048 26.9032C59.3216 27.0864 59.2188 27.3347 59.2188 27.5938C59.2188 27.8528 59.3216 28.1011 59.5048 28.2843C59.6879 28.4674 59.9363 28.5703 60.1953 28.5703C60.4543 28.5703 60.7027 28.4674 60.8858 28.2843C61.069 28.1011 61.1719 27.8528 61.1719 27.5938C61.1719 27.3347 61.069 27.0864 60.8858 26.9032C60.7027 26.7201 60.4543 26.6172 60.1953 26.6172ZM37.7188 31.5H67.0156V35.4062H65.0781V37.3594H67.0156V38.3359C67.0156 38.8945 66.5977 39.3125 66.0391 39.3125H37.3105C37.4453 38.9785 37.7207 38.7148 37.7207 38.3359L37.7188 31.5ZM65.0781 35.4062V33.4531H63.125V35.4062H65.0781ZM63.125 35.4062H61.1719V37.3594H63.125V35.4062ZM61.1719 35.4062V33.4531H59.2188V35.4062H61.1719ZM59.2188 35.4062H57.2656V37.3594H59.2188V35.4062ZM57.2656 35.4062V33.4531H55.3125V35.4062H57.2656ZM55.3125 35.4062H53.3594V37.3594H55.3125V35.4062ZM53.3594 35.4062V33.4531H51.4062V35.4062H53.3594ZM51.4062 35.4062H49.4531V37.3594H51.4062V35.4062ZM49.4531 35.4062V33.4531H43.5938C42.5117 33.4531 41.6406 34.3242 41.6406 35.4062C41.6406 36.4883 42.5117 37.3594 43.5938 37.3594H47.5V35.4062H49.4531ZM43.5938 34.4297C43.8527 34.4297 44.1011 34.5326 44.2843 34.7157C44.4674 34.8989 44.5703 35.1473 44.5703 35.4062C44.5703 35.6652 44.4674 35.9136 44.2843 36.0968C44.1011 36.2799 43.8527 36.3828 43.5938 36.3828C43.3348 36.3828 43.0864 36.2799 42.9032 36.0968C42.7201 35.9136 42.6172 35.6652 42.6172 35.4062C42.6172 35.1473 42.7201 34.8989 42.9032 34.7157C43.0864 34.5326 43.3348 34.4297 43.5938 34.4297ZM2.57812 51.0312H35.8789V51.0352C36.1075 52.136 36.7079 53.1247 37.5792 53.8352C38.4505 54.5458 39.5397 54.935 40.6641 54.9375H56.2891C57.4137 54.9341 58.503 54.544 59.3743 53.8328C60.2455 53.1216 60.8457 52.1325 61.0742 51.0312H92.4219V53.9609C92.4219 56.6836 90.2617 58.8438 87.5391 58.8438H7.46094C6.81856 58.8479 6.18175 58.7244 5.58747 58.4805C4.99318 58.2366 4.45325 57.8771 3.99901 57.4229C3.54477 56.9686 3.18527 56.4287 2.94135 55.8344C2.69744 55.2401 2.57397 54.6033 2.57812 53.9609V51.0312ZM38.1348 51.0312H58.8184C58.3945 52.1211 57.5449 52.9844 56.2891 52.9844H40.6641C39.4082 52.9844 38.5586 52.1211 38.1348 51.0312Z" fill="url(#paint1_linear_1_454)"/>
<defs>
<linearGradient id="paint0_linear_1_454" x1="12.5" y1="5.5" x2="94" y2="61" gradientUnits="userSpaceOnUse">
<stop offset="0.338542" stop-color="#FF12B3"/>
<stop offset="1" stop-color="#7D07F4"/>
</linearGradient>
<linearGradient id="paint1_linear_1_454" x1="13.4424" y1="0.249998" x2="65.1973" y2="31.2706" gradientUnits="userSpaceOnUse">
<stop stop-color="#AD0B40" stop-opacity="0.878431"/>
<stop offset="1" stop-color="#FF1917"/>
</linearGradient>
</defs>
</svg>
