<svg width="108" height="108" viewBox="0 0 108 108" fill="none" xmlns="http://www.w3.org/2000/svg">
<mask id="path-1-inside-1_1_461" fill="white">
<path d="M47.25 20.25C44.4606 20.25 42.1875 22.5231 42.1875 25.3125V33.75C42.1875 33.8006 42.1993 33.8462 42.201 33.8951C40.1485 32.6962 37.8145 32.0638 35.4375 32.0625C28.0176 32.0625 21.9375 38.097 21.9375 45.5001V50.625H18.5625C16.7062 50.625 15.1875 52.1437 15.1875 54V86.0625C15.1875 87.9187 16.7062 89.4375 18.5625 89.4375H87.75C90.5394 89.4375 92.8125 87.1644 92.8125 84.375V75.9375C92.8113 75.1011 92.603 74.2781 92.206 73.5419C91.8091 72.8057 91.2359 72.1793 90.5378 71.7188C91.2361 71.2584 91.8094 70.6321 92.2064 69.8958C92.6034 69.1596 92.8116 68.3364 92.8125 67.5V59.0625C92.8113 58.2261 92.603 57.4031 92.206 56.6669C91.8091 55.9307 91.2359 55.3043 90.5378 54.8438C91.2361 54.3834 91.8094 53.7571 92.2064 53.0208C92.6034 52.2846 92.8116 51.4614 92.8125 50.625V42.1875C92.8113 41.3511 92.603 40.5281 92.206 39.7919C91.8091 39.0557 91.2359 38.4293 90.5378 37.9688C91.2361 37.5084 91.8094 36.8821 92.2064 36.1458C92.6034 35.4096 92.8116 34.5864 92.8125 33.75V25.3125C92.8125 22.5231 90.5394 20.25 87.75 20.25H47.25ZM47.25 21.9375H87.75C89.6349 21.9375 91.125 23.4276 91.125 25.3125V33.75C91.125 35.6349 89.6349 37.125 87.75 37.125H47.25C46.7792 37.125 46.3354 37.0305 45.9321 36.8617C45.9309 36.8617 45.9298 36.8617 45.9287 36.8617C45.8286 36.8192 45.7306 36.7719 45.6351 36.72C45.6273 36.7154 45.6194 36.7109 45.6114 36.7065C45.2168 36.2561 44.7928 35.8322 44.3424 35.4375H87.75V33.75H43.875V25.3125H87.75V23.625H44.3323C44.9111 22.6142 45.9861 21.9375 47.25 21.9375ZM57.375 27V32.0625H62.4375V27H57.375ZM64.125 27V32.0625H69.1875V27H64.125ZM70.875 27V32.0625H75.9375V27H70.875ZM59.0625 28.6875H60.75V30.375H59.0625V28.6875ZM65.8125 28.6875H67.5V30.375H65.8125V28.6875ZM72.5625 28.6875H74.25V30.375H72.5625V28.6875ZM35.4375 33.75C41.9445 33.75 47.25 39.0201 47.25 45.5001V50.625H43.8784V45.5119C43.8784 40.8577 40.1321 37.125 35.4341 37.125C30.7361 37.125 26.9899 40.8577 26.9899 45.5119V50.625H23.625V45.5001C23.625 39.0201 28.9305 33.75 35.4375 33.75ZM47.115 38.799C47.1606 38.799 47.2044 38.8125 47.25 38.8125H87.75C89.6349 38.8125 91.125 40.3026 91.125 42.1875V50.625C91.125 52.5099 89.6349 54 87.75 54H55.6875C55.6875 53.3841 55.5069 52.8103 55.215 52.3125H87.75V50.625H48.9375V45.5001C48.9375 44.3559 48.7755 43.2489 48.5021 42.1875H87.75V40.5H47.9554C47.7159 39.9138 47.4351 39.3454 47.115 38.799ZM35.4341 38.8125C39.2529 38.8125 42.1909 41.7504 42.1909 45.5119V50.625H28.6774V45.5119C28.6774 41.7504 31.6153 38.8125 35.4341 38.8125ZM57.375 43.875V48.9375H62.4375V43.875H57.375ZM64.125 43.875V48.9375H69.1875V43.875H64.125ZM70.875 43.875V48.9375H75.9375V43.875H70.875ZM59.0625 45.5625H60.75V47.25H59.0625V45.5625ZM65.8125 45.5625H67.5V47.25H65.8125V45.5625ZM72.5625 45.5625H74.25V47.25H72.5625V45.5625ZM18.5625 52.3125H52.3125C53.2626 52.3125 54 53.0499 54 54V72.5625H16.875V54C16.875 53.0499 17.6124 52.3125 18.5625 52.3125ZM35.4375 55.6875C34.3197 55.6911 33.2487 56.1367 32.4583 56.9271C31.6679 57.7175 31.2223 58.7885 31.2188 59.9062C31.2188 61.2056 31.9039 62.3413 32.9062 63.1327V69.1841H37.9688V63.1294C38.9711 62.3379 39.6546 61.2039 39.6562 59.9062C39.6562 57.5859 37.7578 55.6875 35.4375 55.6875ZM55.6875 55.6875H87.75C89.6349 55.6875 91.125 57.1776 91.125 59.0625V67.5C91.125 69.3849 89.6349 70.875 87.75 70.875H55.6875V69.1875H87.75V67.5H55.6875V59.0625H87.75V57.375H55.6875V55.6875ZM35.4375 57.375C35.9943 57.3749 36.5356 57.5586 36.9774 57.8975C37.4192 58.2364 37.7369 58.7116 37.8811 59.2494C38.0253 59.7872 37.988 60.3576 37.7751 60.8721C37.5621 61.3866 37.1853 61.8164 36.7031 62.0949L36.2812 62.3379V67.5H34.5938V62.3413L34.1719 62.0983C33.7871 61.8762 33.4676 61.5566 33.2454 61.1718C33.0232 60.787 32.9063 60.3506 32.9062 59.9062C32.9062 58.4989 34.0301 57.375 35.4375 57.375ZM57.375 60.75V65.8125H62.4375V60.75H57.375ZM64.125 60.75V65.8125H69.1875V60.75H64.125ZM70.875 60.75V65.8125H75.9375V60.75H70.875ZM59.0625 62.4375H60.75V64.125H59.0625V62.4375ZM65.8125 62.4375H67.5V64.125H65.8125V62.4375ZM72.5625 62.4375H74.25V64.125H72.5625V62.4375ZM55.6875 72.5625H87.75C89.6349 72.5625 91.125 74.0526 91.125 75.9375V84.375C91.125 86.2599 89.6349 87.75 87.75 87.75H55.2133C55.5053 87.2505 55.6875 86.6801 55.6875 86.0625H87.75V84.375H55.6875V75.9375H87.75V74.25H55.6875V72.5625ZM16.875 74.25H54V82.6875H16.875V74.25ZM19.4062 75.9375V81H24.4688V75.9375H19.4062ZM26.1562 75.9375V81H31.2188V75.9375H26.1562ZM32.9062 75.9375V81H37.9688V75.9375H32.9062ZM39.6562 75.9375V81H44.7188V75.9375H39.6562ZM46.4062 75.9375V81H51.4688V75.9375H46.4062ZM21.0938 77.625H22.7812V79.3125H21.0938V77.625ZM27.8438 77.625H29.5312V79.3125H27.8438V77.625ZM34.5938 77.625H36.2812V79.3125H34.5938V77.625ZM41.3438 77.625H43.0312V79.3125H41.3438V77.625ZM48.0938 77.625H49.7812V79.3125H48.0938V77.625ZM57.375 77.625V82.6875H62.4375V77.625H57.375ZM64.125 77.625V82.6875H69.1875V77.625H64.125ZM70.875 77.625V82.6875H75.9375V77.625H70.875ZM59.0625 79.3125H60.75V81H59.0625V79.3125ZM65.8125 79.3125H67.5V81H65.8125V79.3125ZM72.5625 79.3125H74.25V81H72.5625V79.3125ZM16.875 84.375H54V86.0625C54 87.0126 53.2626 87.75 52.3125 87.75H18.5625C17.6124 87.75 16.875 87.0126 16.875 86.0625V84.375Z"/>
</mask>
<path d="M47.25 20.25C44.4606 20.25 42.1875 22.5231 42.1875 25.3125V33.75C42.1875 33.8006 42.1993 33.8462 42.201 33.8951C40.1485 32.6962 37.8145 32.0638 35.4375 32.0625C28.0176 32.0625 21.9375 38.097 21.9375 45.5001V50.625H18.5625C16.7062 50.625 15.1875 52.1437 15.1875 54V86.0625C15.1875 87.9187 16.7062 89.4375 18.5625 89.4375H87.75C90.5394 89.4375 92.8125 87.1644 92.8125 84.375V75.9375C92.8113 75.1011 92.603 74.2781 92.206 73.5419C91.8091 72.8057 91.2359 72.1793 90.5378 71.7188C91.2361 71.2584 91.8094 70.6321 92.2064 69.8958C92.6034 69.1596 92.8116 68.3364 92.8125 67.5V59.0625C92.8113 58.2261 92.603 57.4031 92.206 56.6669C91.8091 55.9307 91.2359 55.3043 90.5378 54.8438C91.2361 54.3834 91.8094 53.7571 92.2064 53.0208C92.6034 52.2846 92.8116 51.4614 92.8125 50.625V42.1875C92.8113 41.3511 92.603 40.5281 92.206 39.7919C91.8091 39.0557 91.2359 38.4293 90.5378 37.9688C91.2361 37.5084 91.8094 36.8821 92.2064 36.1458C92.6034 35.4096 92.8116 34.5864 92.8125 33.75V25.3125C92.8125 22.5231 90.5394 20.25 87.75 20.25H47.25ZM47.25 21.9375H87.75C89.6349 21.9375 91.125 23.4276 91.125 25.3125V33.75C91.125 35.6349 89.6349 37.125 87.75 37.125H47.25C46.7792 37.125 46.3354 37.0305 45.9321 36.8617C45.9309 36.8617 45.9298 36.8617 45.9287 36.8617C45.8286 36.8192 45.7306 36.7719 45.6351 36.72C45.6273 36.7154 45.6194 36.7109 45.6114 36.7065C45.2168 36.2561 44.7928 35.8322 44.3424 35.4375H87.75V33.75H43.875V25.3125H87.75V23.625H44.3323C44.9111 22.6142 45.9861 21.9375 47.25 21.9375ZM57.375 27V32.0625H62.4375V27H57.375ZM64.125 27V32.0625H69.1875V27H64.125ZM70.875 27V32.0625H75.9375V27H70.875ZM59.0625 28.6875H60.75V30.375H59.0625V28.6875ZM65.8125 28.6875H67.5V30.375H65.8125V28.6875ZM72.5625 28.6875H74.25V30.375H72.5625V28.6875ZM35.4375 33.75C41.9445 33.75 47.25 39.0201 47.25 45.5001V50.625H43.8784V45.5119C43.8784 40.8577 40.1321 37.125 35.4341 37.125C30.7361 37.125 26.9899 40.8577 26.9899 45.5119V50.625H23.625V45.5001C23.625 39.0201 28.9305 33.75 35.4375 33.75ZM47.115 38.799C47.1606 38.799 47.2044 38.8125 47.25 38.8125H87.75C89.6349 38.8125 91.125 40.3026 91.125 42.1875V50.625C91.125 52.5099 89.6349 54 87.75 54H55.6875C55.6875 53.3841 55.5069 52.8103 55.215 52.3125H87.75V50.625H48.9375V45.5001C48.9375 44.3559 48.7755 43.2489 48.5021 42.1875H87.75V40.5H47.9554C47.7159 39.9138 47.4351 39.3454 47.115 38.799ZM35.4341 38.8125C39.2529 38.8125 42.1909 41.7504 42.1909 45.5119V50.625H28.6774V45.5119C28.6774 41.7504 31.6153 38.8125 35.4341 38.8125ZM57.375 43.875V48.9375H62.4375V43.875H57.375ZM64.125 43.875V48.9375H69.1875V43.875H64.125ZM70.875 43.875V48.9375H75.9375V43.875H70.875ZM59.0625 45.5625H60.75V47.25H59.0625V45.5625ZM65.8125 45.5625H67.5V47.25H65.8125V45.5625ZM72.5625 45.5625H74.25V47.25H72.5625V45.5625ZM18.5625 52.3125H52.3125C53.2626 52.3125 54 53.0499 54 54V72.5625H16.875V54C16.875 53.0499 17.6124 52.3125 18.5625 52.3125ZM35.4375 55.6875C34.3197 55.6911 33.2487 56.1367 32.4583 56.9271C31.6679 57.7175 31.2223 58.7885 31.2188 59.9062C31.2188 61.2056 31.9039 62.3413 32.9062 63.1327V69.1841H37.9688V63.1294C38.9711 62.3379 39.6546 61.2039 39.6562 59.9062C39.6562 57.5859 37.7578 55.6875 35.4375 55.6875ZM55.6875 55.6875H87.75C89.6349 55.6875 91.125 57.1776 91.125 59.0625V67.5C91.125 69.3849 89.6349 70.875 87.75 70.875H55.6875V69.1875H87.75V67.5H55.6875V59.0625H87.75V57.375H55.6875V55.6875ZM35.4375 57.375C35.9943 57.3749 36.5356 57.5586 36.9774 57.8975C37.4192 58.2364 37.7369 58.7116 37.8811 59.2494C38.0253 59.7872 37.988 60.3576 37.7751 60.8721C37.5621 61.3866 37.1853 61.8164 36.7031 62.0949L36.2812 62.3379V67.5H34.5938V62.3413L34.1719 62.0983C33.7871 61.8762 33.4676 61.5566 33.2454 61.1718C33.0232 60.787 32.9063 60.3506 32.9062 59.9062C32.9062 58.4989 34.0301 57.375 35.4375 57.375ZM57.375 60.75V65.8125H62.4375V60.75H57.375ZM64.125 60.75V65.8125H69.1875V60.75H64.125ZM70.875 60.75V65.8125H75.9375V60.75H70.875ZM59.0625 62.4375H60.75V64.125H59.0625V62.4375ZM65.8125 62.4375H67.5V64.125H65.8125V62.4375ZM72.5625 62.4375H74.25V64.125H72.5625V62.4375ZM55.6875 72.5625H87.75C89.6349 72.5625 91.125 74.0526 91.125 75.9375V84.375C91.125 86.2599 89.6349 87.75 87.75 87.75H55.2133C55.5053 87.2505 55.6875 86.6801 55.6875 86.0625H87.75V84.375H55.6875V75.9375H87.75V74.25H55.6875V72.5625ZM16.875 74.25H54V82.6875H16.875V74.25ZM19.4062 75.9375V81H24.4688V75.9375H19.4062ZM26.1562 75.9375V81H31.2188V75.9375H26.1562ZM32.9062 75.9375V81H37.9688V75.9375H32.9062ZM39.6562 75.9375V81H44.7188V75.9375H39.6562ZM46.4062 75.9375V81H51.4688V75.9375H46.4062ZM21.0938 77.625H22.7812V79.3125H21.0938V77.625ZM27.8438 77.625H29.5312V79.3125H27.8438V77.625ZM34.5938 77.625H36.2812V79.3125H34.5938V77.625ZM41.3438 77.625H43.0312V79.3125H41.3438V77.625ZM48.0938 77.625H49.7812V79.3125H48.0938V77.625ZM57.375 77.625V82.6875H62.4375V77.625H57.375ZM64.125 77.625V82.6875H69.1875V77.625H64.125ZM70.875 77.625V82.6875H75.9375V77.625H70.875ZM59.0625 79.3125H60.75V81H59.0625V79.3125ZM65.8125 79.3125H67.5V81H65.8125V79.3125ZM72.5625 79.3125H74.25V81H72.5625V79.3125ZM16.875 84.375H54V86.0625C54 87.0126 53.2626 87.75 52.3125 87.75H18.5625C17.6124 87.75 16.875 87.0126 16.875 86.0625V84.375Z" fill="url(#paint0_linear_1_461)"/>
<path d="M47.25 20.25C44.4606 20.25 42.1875 22.5231 42.1875 25.3125V33.75C42.1875 33.8006 42.1993 33.8462 42.201 33.8951C40.1485 32.6962 37.8145 32.0638 35.4375 32.0625C28.0176 32.0625 21.9375 38.097 21.9375 45.5001V50.625H18.5625C16.7062 50.625 15.1875 52.1437 15.1875 54V86.0625C15.1875 87.9187 16.7062 89.4375 18.5625 89.4375H87.75C90.5394 89.4375 92.8125 87.1644 92.8125 84.375V75.9375C92.8113 75.1011 92.603 74.2781 92.206 73.5419C91.8091 72.8057 91.2359 72.1793 90.5378 71.7188C91.2361 71.2584 91.8094 70.6321 92.2064 69.8958C92.6034 69.1596 92.8116 68.3364 92.8125 67.5V59.0625C92.8113 58.2261 92.603 57.4031 92.206 56.6669C91.8091 55.9307 91.2359 55.3043 90.5378 54.8438C91.2361 54.3834 91.8094 53.7571 92.2064 53.0208C92.6034 52.2846 92.8116 51.4614 92.8125 50.625V42.1875C92.8113 41.3511 92.603 40.5281 92.206 39.7919C91.8091 39.0557 91.2359 38.4293 90.5378 37.9688C91.2361 37.5084 91.8094 36.8821 92.2064 36.1458C92.6034 35.4096 92.8116 34.5864 92.8125 33.75V25.3125C92.8125 22.5231 90.5394 20.25 87.75 20.25H47.25ZM47.25 21.9375H87.75C89.6349 21.9375 91.125 23.4276 91.125 25.3125V33.75C91.125 35.6349 89.6349 37.125 87.75 37.125H47.25C46.7792 37.125 46.3354 37.0305 45.9321 36.8617C45.9309 36.8617 45.9298 36.8617 45.9287 36.8617C45.8286 36.8192 45.7306 36.7719 45.6351 36.72C45.6273 36.7154 45.6194 36.7109 45.6114 36.7065C45.2168 36.2561 44.7928 35.8322 44.3424 35.4375H87.75V33.75H43.875V25.3125H87.75V23.625H44.3323C44.9111 22.6142 45.9861 21.9375 47.25 21.9375ZM57.375 27V32.0625H62.4375V27H57.375ZM64.125 27V32.0625H69.1875V27H64.125ZM70.875 27V32.0625H75.9375V27H70.875ZM59.0625 28.6875H60.75V30.375H59.0625V28.6875ZM65.8125 28.6875H67.5V30.375H65.8125V28.6875ZM72.5625 28.6875H74.25V30.375H72.5625V28.6875ZM35.4375 33.75C41.9445 33.75 47.25 39.0201 47.25 45.5001V50.625H43.8784V45.5119C43.8784 40.8577 40.1321 37.125 35.4341 37.125C30.7361 37.125 26.9899 40.8577 26.9899 45.5119V50.625H23.625V45.5001C23.625 39.0201 28.9305 33.75 35.4375 33.75ZM47.115 38.799C47.1606 38.799 47.2044 38.8125 47.25 38.8125H87.75C89.6349 38.8125 91.125 40.3026 91.125 42.1875V50.625C91.125 52.5099 89.6349 54 87.75 54H55.6875C55.6875 53.3841 55.5069 52.8103 55.215 52.3125H87.75V50.625H48.9375V45.5001C48.9375 44.3559 48.7755 43.2489 48.5021 42.1875H87.75V40.5H47.9554C47.7159 39.9138 47.4351 39.3454 47.115 38.799ZM35.4341 38.8125C39.2529 38.8125 42.1909 41.7504 42.1909 45.5119V50.625H28.6774V45.5119C28.6774 41.7504 31.6153 38.8125 35.4341 38.8125ZM57.375 43.875V48.9375H62.4375V43.875H57.375ZM64.125 43.875V48.9375H69.1875V43.875H64.125ZM70.875 43.875V48.9375H75.9375V43.875H70.875ZM59.0625 45.5625H60.75V47.25H59.0625V45.5625ZM65.8125 45.5625H67.5V47.25H65.8125V45.5625ZM72.5625 45.5625H74.25V47.25H72.5625V45.5625ZM18.5625 52.3125H52.3125C53.2626 52.3125 54 53.0499 54 54V72.5625H16.875V54C16.875 53.0499 17.6124 52.3125 18.5625 52.3125ZM35.4375 55.6875C34.3197 55.6911 33.2487 56.1367 32.4583 56.9271C31.6679 57.7175 31.2223 58.7885 31.2188 59.9062C31.2188 61.2056 31.9039 62.3413 32.9062 63.1327V69.1841H37.9688V63.1294C38.9711 62.3379 39.6546 61.2039 39.6562 59.9062C39.6562 57.5859 37.7578 55.6875 35.4375 55.6875ZM55.6875 55.6875H87.75C89.6349 55.6875 91.125 57.1776 91.125 59.0625V67.5C91.125 69.3849 89.6349 70.875 87.75 70.875H55.6875V69.1875H87.75V67.5H55.6875V59.0625H87.75V57.375H55.6875V55.6875ZM35.4375 57.375C35.9943 57.3749 36.5356 57.5586 36.9774 57.8975C37.4192 58.2364 37.7369 58.7116 37.8811 59.2494C38.0253 59.7872 37.988 60.3576 37.7751 60.8721C37.5621 61.3866 37.1853 61.8164 36.7031 62.0949L36.2812 62.3379V67.5H34.5938V62.3413L34.1719 62.0983C33.7871 61.8762 33.4676 61.5566 33.2454 61.1718C33.0232 60.787 32.9063 60.3506 32.9062 59.9062C32.9062 58.4989 34.0301 57.375 35.4375 57.375ZM57.375 60.75V65.8125H62.4375V60.75H57.375ZM64.125 60.75V65.8125H69.1875V60.75H64.125ZM70.875 60.75V65.8125H75.9375V60.75H70.875ZM59.0625 62.4375H60.75V64.125H59.0625V62.4375ZM65.8125 62.4375H67.5V64.125H65.8125V62.4375ZM72.5625 62.4375H74.25V64.125H72.5625V62.4375ZM55.6875 72.5625H87.75C89.6349 72.5625 91.125 74.0526 91.125 75.9375V84.375C91.125 86.2599 89.6349 87.75 87.75 87.75H55.2133C55.5053 87.2505 55.6875 86.6801 55.6875 86.0625H87.75V84.375H55.6875V75.9375H87.75V74.25H55.6875V72.5625ZM16.875 74.25H54V82.6875H16.875V74.25ZM19.4062 75.9375V81H24.4688V75.9375H19.4062ZM26.1562 75.9375V81H31.2188V75.9375H26.1562ZM32.9062 75.9375V81H37.9688V75.9375H32.9062ZM39.6562 75.9375V81H44.7188V75.9375H39.6562ZM46.4062 75.9375V81H51.4688V75.9375H46.4062ZM21.0938 77.625H22.7812V79.3125H21.0938V77.625ZM27.8438 77.625H29.5312V79.3125H27.8438V77.625ZM34.5938 77.625H36.2812V79.3125H34.5938V77.625ZM41.3438 77.625H43.0312V79.3125H41.3438V77.625ZM48.0938 77.625H49.7812V79.3125H48.0938V77.625ZM57.375 77.625V82.6875H62.4375V77.625H57.375ZM64.125 77.625V82.6875H69.1875V77.625H64.125ZM70.875 77.625V82.6875H75.9375V77.625H70.875ZM59.0625 79.3125H60.75V81H59.0625V79.3125ZM65.8125 79.3125H67.5V81H65.8125V79.3125ZM72.5625 79.3125H74.25V81H72.5625V79.3125ZM16.875 84.375H54V86.0625C54 87.0126 53.2626 87.75 52.3125 87.75H18.5625C17.6124 87.75 16.875 87.0126 16.875 86.0625V84.375Z" fill="url(#paint1_linear_1_461)"/>
<path d="M47.25 20.25C44.4606 20.25 42.1875 22.5231 42.1875 25.3125V33.75C42.1875 33.8006 42.1993 33.8462 42.201 33.8951C40.1485 32.6962 37.8145 32.0638 35.4375 32.0625C28.0176 32.0625 21.9375 38.097 21.9375 45.5001V50.625H18.5625C16.7062 50.625 15.1875 52.1437 15.1875 54V86.0625C15.1875 87.9187 16.7062 89.4375 18.5625 89.4375H87.75C90.5394 89.4375 92.8125 87.1644 92.8125 84.375V75.9375C92.8113 75.1011 92.603 74.2781 92.206 73.5419C91.8091 72.8057 91.2359 72.1793 90.5378 71.7188C91.2361 71.2584 91.8094 70.6321 92.2064 69.8958C92.6034 69.1596 92.8116 68.3364 92.8125 67.5V59.0625C92.8113 58.2261 92.603 57.4031 92.206 56.6669C91.8091 55.9307 91.2359 55.3043 90.5378 54.8438C91.2361 54.3834 91.8094 53.7571 92.2064 53.0208C92.6034 52.2846 92.8116 51.4614 92.8125 50.625V42.1875C92.8113 41.3511 92.603 40.5281 92.206 39.7919C91.8091 39.0557 91.2359 38.4293 90.5378 37.9688C91.2361 37.5084 91.8094 36.8821 92.2064 36.1458C92.6034 35.4096 92.8116 34.5864 92.8125 33.75V25.3125C92.8125 22.5231 90.5394 20.25 87.75 20.25H47.25ZM47.25 21.9375H87.75C89.6349 21.9375 91.125 23.4276 91.125 25.3125V33.75C91.125 35.6349 89.6349 37.125 87.75 37.125H47.25C46.7792 37.125 46.3354 37.0305 45.9321 36.8617C45.9309 36.8617 45.9298 36.8617 45.9287 36.8617C45.8286 36.8192 45.7306 36.7719 45.6351 36.72C45.6273 36.7154 45.6194 36.7109 45.6114 36.7065C45.2168 36.2561 44.7928 35.8322 44.3424 35.4375H87.75V33.75H43.875V25.3125H87.75V23.625H44.3323C44.9111 22.6142 45.9861 21.9375 47.25 21.9375ZM57.375 27V32.0625H62.4375V27H57.375ZM64.125 27V32.0625H69.1875V27H64.125ZM70.875 27V32.0625H75.9375V27H70.875ZM59.0625 28.6875H60.75V30.375H59.0625V28.6875ZM65.8125 28.6875H67.5V30.375H65.8125V28.6875ZM72.5625 28.6875H74.25V30.375H72.5625V28.6875ZM35.4375 33.75C41.9445 33.75 47.25 39.0201 47.25 45.5001V50.625H43.8784V45.5119C43.8784 40.8577 40.1321 37.125 35.4341 37.125C30.7361 37.125 26.9899 40.8577 26.9899 45.5119V50.625H23.625V45.5001C23.625 39.0201 28.9305 33.75 35.4375 33.75ZM47.115 38.799C47.1606 38.799 47.2044 38.8125 47.25 38.8125H87.75C89.6349 38.8125 91.125 40.3026 91.125 42.1875V50.625C91.125 52.5099 89.6349 54 87.75 54H55.6875C55.6875 53.3841 55.5069 52.8103 55.215 52.3125H87.75V50.625H48.9375V45.5001C48.9375 44.3559 48.7755 43.2489 48.5021 42.1875H87.75V40.5H47.9554C47.7159 39.9138 47.4351 39.3454 47.115 38.799ZM35.4341 38.8125C39.2529 38.8125 42.1909 41.7504 42.1909 45.5119V50.625H28.6774V45.5119C28.6774 41.7504 31.6153 38.8125 35.4341 38.8125ZM57.375 43.875V48.9375H62.4375V43.875H57.375ZM64.125 43.875V48.9375H69.1875V43.875H64.125ZM70.875 43.875V48.9375H75.9375V43.875H70.875ZM59.0625 45.5625H60.75V47.25H59.0625V45.5625ZM65.8125 45.5625H67.5V47.25H65.8125V45.5625ZM72.5625 45.5625H74.25V47.25H72.5625V45.5625ZM18.5625 52.3125H52.3125C53.2626 52.3125 54 53.0499 54 54V72.5625H16.875V54C16.875 53.0499 17.6124 52.3125 18.5625 52.3125ZM35.4375 55.6875C34.3197 55.6911 33.2487 56.1367 32.4583 56.9271C31.6679 57.7175 31.2223 58.7885 31.2188 59.9062C31.2188 61.2056 31.9039 62.3413 32.9062 63.1327V69.1841H37.9688V63.1294C38.9711 62.3379 39.6546 61.2039 39.6562 59.9062C39.6562 57.5859 37.7578 55.6875 35.4375 55.6875ZM55.6875 55.6875H87.75C89.6349 55.6875 91.125 57.1776 91.125 59.0625V67.5C91.125 69.3849 89.6349 70.875 87.75 70.875H55.6875V69.1875H87.75V67.5H55.6875V59.0625H87.75V57.375H55.6875V55.6875ZM35.4375 57.375C35.9943 57.3749 36.5356 57.5586 36.9774 57.8975C37.4192 58.2364 37.7369 58.7116 37.8811 59.2494C38.0253 59.7872 37.988 60.3576 37.7751 60.8721C37.5621 61.3866 37.1853 61.8164 36.7031 62.0949L36.2812 62.3379V67.5H34.5938V62.3413L34.1719 62.0983C33.7871 61.8762 33.4676 61.5566 33.2454 61.1718C33.0232 60.787 32.9063 60.3506 32.9062 59.9062C32.9062 58.4989 34.0301 57.375 35.4375 57.375ZM57.375 60.75V65.8125H62.4375V60.75H57.375ZM64.125 60.75V65.8125H69.1875V60.75H64.125ZM70.875 60.75V65.8125H75.9375V60.75H70.875ZM59.0625 62.4375H60.75V64.125H59.0625V62.4375ZM65.8125 62.4375H67.5V64.125H65.8125V62.4375ZM72.5625 62.4375H74.25V64.125H72.5625V62.4375ZM55.6875 72.5625H87.75C89.6349 72.5625 91.125 74.0526 91.125 75.9375V84.375C91.125 86.2599 89.6349 87.75 87.75 87.75H55.2133C55.5053 87.2505 55.6875 86.6801 55.6875 86.0625H87.75V84.375H55.6875V75.9375H87.75V74.25H55.6875V72.5625ZM16.875 74.25H54V82.6875H16.875V74.25ZM19.4062 75.9375V81H24.4688V75.9375H19.4062ZM26.1562 75.9375V81H31.2188V75.9375H26.1562ZM32.9062 75.9375V81H37.9688V75.9375H32.9062ZM39.6562 75.9375V81H44.7188V75.9375H39.6562ZM46.4062 75.9375V81H51.4688V75.9375H46.4062ZM21.0938 77.625H22.7812V79.3125H21.0938V77.625ZM27.8438 77.625H29.5312V79.3125H27.8438V77.625ZM34.5938 77.625H36.2812V79.3125H34.5938V77.625ZM41.3438 77.625H43.0312V79.3125H41.3438V77.625ZM48.0938 77.625H49.7812V79.3125H48.0938V77.625ZM57.375 77.625V82.6875H62.4375V77.625H57.375ZM64.125 77.625V82.6875H69.1875V77.625H64.125ZM70.875 77.625V82.6875H75.9375V77.625H70.875ZM59.0625 79.3125H60.75V81H59.0625V79.3125ZM65.8125 79.3125H67.5V81H65.8125V79.3125ZM72.5625 79.3125H74.25V81H72.5625V79.3125ZM16.875 84.375H54V86.0625C54 87.0126 53.2626 87.75 52.3125 87.75H18.5625C17.6124 87.75 16.875 87.0126 16.875 86.0625V84.375Z" fill="url(#paint2_linear_1_461)"/>
<path d="M47.25 20.25C44.4606 20.25 42.1875 22.5231 42.1875 25.3125V33.75C42.1875 33.8006 42.1993 33.8462 42.201 33.8951C40.1485 32.6962 37.8145 32.0638 35.4375 32.0625C28.0176 32.0625 21.9375 38.097 21.9375 45.5001V50.625H18.5625C16.7062 50.625 15.1875 52.1437 15.1875 54V86.0625C15.1875 87.9187 16.7062 89.4375 18.5625 89.4375H87.75C90.5394 89.4375 92.8125 87.1644 92.8125 84.375V75.9375C92.8113 75.1011 92.603 74.2781 92.206 73.5419C91.8091 72.8057 91.2359 72.1793 90.5378 71.7188C91.2361 71.2584 91.8094 70.6321 92.2064 69.8958C92.6034 69.1596 92.8116 68.3364 92.8125 67.5V59.0625C92.8113 58.2261 92.603 57.4031 92.206 56.6669C91.8091 55.9307 91.2359 55.3043 90.5378 54.8438C91.2361 54.3834 91.8094 53.7571 92.2064 53.0208C92.6034 52.2846 92.8116 51.4614 92.8125 50.625V42.1875C92.8113 41.3511 92.603 40.5281 92.206 39.7919C91.8091 39.0557 91.2359 38.4293 90.5378 37.9688C91.2361 37.5084 91.8094 36.8821 92.2064 36.1458C92.6034 35.4096 92.8116 34.5864 92.8125 33.75V25.3125C92.8125 22.5231 90.5394 20.25 87.75 20.25H47.25ZM47.25 21.9375H87.75C89.6349 21.9375 91.125 23.4276 91.125 25.3125V33.75C91.125 35.6349 89.6349 37.125 87.75 37.125H47.25C46.7792 37.125 46.3354 37.0305 45.9321 36.8617C45.9309 36.8617 45.9298 36.8617 45.9287 36.8617C45.8286 36.8192 45.7306 36.7719 45.6351 36.72C45.6273 36.7154 45.6194 36.7109 45.6114 36.7065C45.2168 36.2561 44.7928 35.8322 44.3424 35.4375H87.75V33.75H43.875V25.3125H87.75V23.625H44.3323C44.9111 22.6142 45.9861 21.9375 47.25 21.9375ZM57.375 27V32.0625H62.4375V27H57.375ZM64.125 27V32.0625H69.1875V27H64.125ZM70.875 27V32.0625H75.9375V27H70.875ZM59.0625 28.6875H60.75V30.375H59.0625V28.6875ZM65.8125 28.6875H67.5V30.375H65.8125V28.6875ZM72.5625 28.6875H74.25V30.375H72.5625V28.6875ZM35.4375 33.75C41.9445 33.75 47.25 39.0201 47.25 45.5001V50.625H43.8784V45.5119C43.8784 40.8577 40.1321 37.125 35.4341 37.125C30.7361 37.125 26.9899 40.8577 26.9899 45.5119V50.625H23.625V45.5001C23.625 39.0201 28.9305 33.75 35.4375 33.75ZM47.115 38.799C47.1606 38.799 47.2044 38.8125 47.25 38.8125H87.75C89.6349 38.8125 91.125 40.3026 91.125 42.1875V50.625C91.125 52.5099 89.6349 54 87.75 54H55.6875C55.6875 53.3841 55.5069 52.8103 55.215 52.3125H87.75V50.625H48.9375V45.5001C48.9375 44.3559 48.7755 43.2489 48.5021 42.1875H87.75V40.5H47.9554C47.7159 39.9138 47.4351 39.3454 47.115 38.799ZM35.4341 38.8125C39.2529 38.8125 42.1909 41.7504 42.1909 45.5119V50.625H28.6774V45.5119C28.6774 41.7504 31.6153 38.8125 35.4341 38.8125ZM57.375 43.875V48.9375H62.4375V43.875H57.375ZM64.125 43.875V48.9375H69.1875V43.875H64.125ZM70.875 43.875V48.9375H75.9375V43.875H70.875ZM59.0625 45.5625H60.75V47.25H59.0625V45.5625ZM65.8125 45.5625H67.5V47.25H65.8125V45.5625ZM72.5625 45.5625H74.25V47.25H72.5625V45.5625ZM18.5625 52.3125H52.3125C53.2626 52.3125 54 53.0499 54 54V72.5625H16.875V54C16.875 53.0499 17.6124 52.3125 18.5625 52.3125ZM35.4375 55.6875C34.3197 55.6911 33.2487 56.1367 32.4583 56.9271C31.6679 57.7175 31.2223 58.7885 31.2188 59.9062C31.2188 61.2056 31.9039 62.3413 32.9062 63.1327V69.1841H37.9688V63.1294C38.9711 62.3379 39.6546 61.2039 39.6562 59.9062C39.6562 57.5859 37.7578 55.6875 35.4375 55.6875ZM55.6875 55.6875H87.75C89.6349 55.6875 91.125 57.1776 91.125 59.0625V67.5C91.125 69.3849 89.6349 70.875 87.75 70.875H55.6875V69.1875H87.75V67.5H55.6875V59.0625H87.75V57.375H55.6875V55.6875ZM35.4375 57.375C35.9943 57.3749 36.5356 57.5586 36.9774 57.8975C37.4192 58.2364 37.7369 58.7116 37.8811 59.2494C38.0253 59.7872 37.988 60.3576 37.7751 60.8721C37.5621 61.3866 37.1853 61.8164 36.7031 62.0949L36.2812 62.3379V67.5H34.5938V62.3413L34.1719 62.0983C33.7871 61.8762 33.4676 61.5566 33.2454 61.1718C33.0232 60.787 32.9063 60.3506 32.9062 59.9062C32.9062 58.4989 34.0301 57.375 35.4375 57.375ZM57.375 60.75V65.8125H62.4375V60.75H57.375ZM64.125 60.75V65.8125H69.1875V60.75H64.125ZM70.875 60.75V65.8125H75.9375V60.75H70.875ZM59.0625 62.4375H60.75V64.125H59.0625V62.4375ZM65.8125 62.4375H67.5V64.125H65.8125V62.4375ZM72.5625 62.4375H74.25V64.125H72.5625V62.4375ZM55.6875 72.5625H87.75C89.6349 72.5625 91.125 74.0526 91.125 75.9375V84.375C91.125 86.2599 89.6349 87.75 87.75 87.75H55.2133C55.5053 87.2505 55.6875 86.6801 55.6875 86.0625H87.75V84.375H55.6875V75.9375H87.75V74.25H55.6875V72.5625ZM16.875 74.25H54V82.6875H16.875V74.25ZM19.4062 75.9375V81H24.4688V75.9375H19.4062ZM26.1562 75.9375V81H31.2188V75.9375H26.1562ZM32.9062 75.9375V81H37.9688V75.9375H32.9062ZM39.6562 75.9375V81H44.7188V75.9375H39.6562ZM46.4062 75.9375V81H51.4688V75.9375H46.4062ZM21.0938 77.625H22.7812V79.3125H21.0938V77.625ZM27.8438 77.625H29.5312V79.3125H27.8438V77.625ZM34.5938 77.625H36.2812V79.3125H34.5938V77.625ZM41.3438 77.625H43.0312V79.3125H41.3438V77.625ZM48.0938 77.625H49.7812V79.3125H48.0938V77.625ZM57.375 77.625V82.6875H62.4375V77.625H57.375ZM64.125 77.625V82.6875H69.1875V77.625H64.125ZM70.875 77.625V82.6875H75.9375V77.625H70.875ZM59.0625 79.3125H60.75V81H59.0625V79.3125ZM65.8125 79.3125H67.5V81H65.8125V79.3125ZM72.5625 79.3125H74.25V81H72.5625V79.3125ZM16.875 84.375H54V86.0625C54 87.0126 53.2626 87.75 52.3125 87.75H18.5625C17.6124 87.75 16.875 87.0126 16.875 86.0625V84.375Z" stroke="url(#paint3_linear_1_461)" stroke-width="4" mask="url(#path-1-inside-1_1_461)"/>
<path d="M47.25 20.25C44.4606 20.25 42.1875 22.5231 42.1875 25.3125V33.75C42.1875 33.8006 42.1993 33.8462 42.201 33.8951C40.1485 32.6962 37.8145 32.0638 35.4375 32.0625C28.0176 32.0625 21.9375 38.097 21.9375 45.5001V50.625H18.5625C16.7062 50.625 15.1875 52.1437 15.1875 54V86.0625C15.1875 87.9187 16.7062 89.4375 18.5625 89.4375H87.75C90.5394 89.4375 92.8125 87.1644 92.8125 84.375V75.9375C92.8113 75.1011 92.603 74.2781 92.206 73.5419C91.8091 72.8057 91.2359 72.1793 90.5378 71.7188C91.2361 71.2584 91.8094 70.6321 92.2064 69.8958C92.6034 69.1596 92.8116 68.3364 92.8125 67.5V59.0625C92.8113 58.2261 92.603 57.4031 92.206 56.6669C91.8091 55.9307 91.2359 55.3043 90.5378 54.8438C91.2361 54.3834 91.8094 53.7571 92.2064 53.0208C92.6034 52.2846 92.8116 51.4614 92.8125 50.625V42.1875C92.8113 41.3511 92.603 40.5281 92.206 39.7919C91.8091 39.0557 91.2359 38.4293 90.5378 37.9688C91.2361 37.5084 91.8094 36.8821 92.2064 36.1458C92.6034 35.4096 92.8116 34.5864 92.8125 33.75V25.3125C92.8125 22.5231 90.5394 20.25 87.75 20.25H47.25ZM47.25 21.9375H87.75C89.6349 21.9375 91.125 23.4276 91.125 25.3125V33.75C91.125 35.6349 89.6349 37.125 87.75 37.125H47.25C46.7792 37.125 46.3354 37.0305 45.9321 36.8617C45.9309 36.8617 45.9298 36.8617 45.9287 36.8617C45.8286 36.8192 45.7306 36.7719 45.6351 36.72C45.6273 36.7154 45.6194 36.7109 45.6114 36.7065C45.2168 36.2561 44.7928 35.8322 44.3424 35.4375H87.75V33.75H43.875V25.3125H87.75V23.625H44.3323C44.9111 22.6142 45.9861 21.9375 47.25 21.9375ZM57.375 27V32.0625H62.4375V27H57.375ZM64.125 27V32.0625H69.1875V27H64.125ZM70.875 27V32.0625H75.9375V27H70.875ZM59.0625 28.6875H60.75V30.375H59.0625V28.6875ZM65.8125 28.6875H67.5V30.375H65.8125V28.6875ZM72.5625 28.6875H74.25V30.375H72.5625V28.6875ZM35.4375 33.75C41.9445 33.75 47.25 39.0201 47.25 45.5001V50.625H43.8784V45.5119C43.8784 40.8577 40.1321 37.125 35.4341 37.125C30.7361 37.125 26.9899 40.8577 26.9899 45.5119V50.625H23.625V45.5001C23.625 39.0201 28.9305 33.75 35.4375 33.75ZM47.115 38.799C47.1606 38.799 47.2044 38.8125 47.25 38.8125H87.75C89.6349 38.8125 91.125 40.3026 91.125 42.1875V50.625C91.125 52.5099 89.6349 54 87.75 54H55.6875C55.6875 53.3841 55.5069 52.8103 55.215 52.3125H87.75V50.625H48.9375V45.5001C48.9375 44.3559 48.7755 43.2489 48.5021 42.1875H87.75V40.5H47.9554C47.7159 39.9138 47.4351 39.3454 47.115 38.799ZM35.4341 38.8125C39.2529 38.8125 42.1909 41.7504 42.1909 45.5119V50.625H28.6774V45.5119C28.6774 41.7504 31.6153 38.8125 35.4341 38.8125ZM57.375 43.875V48.9375H62.4375V43.875H57.375ZM64.125 43.875V48.9375H69.1875V43.875H64.125ZM70.875 43.875V48.9375H75.9375V43.875H70.875ZM59.0625 45.5625H60.75V47.25H59.0625V45.5625ZM65.8125 45.5625H67.5V47.25H65.8125V45.5625ZM72.5625 45.5625H74.25V47.25H72.5625V45.5625ZM18.5625 52.3125H52.3125C53.2626 52.3125 54 53.0499 54 54V72.5625H16.875V54C16.875 53.0499 17.6124 52.3125 18.5625 52.3125ZM35.4375 55.6875C34.3197 55.6911 33.2487 56.1367 32.4583 56.9271C31.6679 57.7175 31.2223 58.7885 31.2188 59.9062C31.2188 61.2056 31.9039 62.3413 32.9062 63.1327V69.1841H37.9688V63.1294C38.9711 62.3379 39.6546 61.2039 39.6562 59.9062C39.6562 57.5859 37.7578 55.6875 35.4375 55.6875ZM55.6875 55.6875H87.75C89.6349 55.6875 91.125 57.1776 91.125 59.0625V67.5C91.125 69.3849 89.6349 70.875 87.75 70.875H55.6875V69.1875H87.75V67.5H55.6875V59.0625H87.75V57.375H55.6875V55.6875ZM35.4375 57.375C35.9943 57.3749 36.5356 57.5586 36.9774 57.8975C37.4192 58.2364 37.7369 58.7116 37.8811 59.2494C38.0253 59.7872 37.988 60.3576 37.7751 60.8721C37.5621 61.3866 37.1853 61.8164 36.7031 62.0949L36.2812 62.3379V67.5H34.5938V62.3413L34.1719 62.0983C33.7871 61.8762 33.4676 61.5566 33.2454 61.1718C33.0232 60.787 32.9063 60.3506 32.9062 59.9062C32.9062 58.4989 34.0301 57.375 35.4375 57.375ZM57.375 60.75V65.8125H62.4375V60.75H57.375ZM64.125 60.75V65.8125H69.1875V60.75H64.125ZM70.875 60.75V65.8125H75.9375V60.75H70.875ZM59.0625 62.4375H60.75V64.125H59.0625V62.4375ZM65.8125 62.4375H67.5V64.125H65.8125V62.4375ZM72.5625 62.4375H74.25V64.125H72.5625V62.4375ZM55.6875 72.5625H87.75C89.6349 72.5625 91.125 74.0526 91.125 75.9375V84.375C91.125 86.2599 89.6349 87.75 87.75 87.75H55.2133C55.5053 87.2505 55.6875 86.6801 55.6875 86.0625H87.75V84.375H55.6875V75.9375H87.75V74.25H55.6875V72.5625ZM16.875 74.25H54V82.6875H16.875V74.25ZM19.4062 75.9375V81H24.4688V75.9375H19.4062ZM26.1562 75.9375V81H31.2188V75.9375H26.1562ZM32.9062 75.9375V81H37.9688V75.9375H32.9062ZM39.6562 75.9375V81H44.7188V75.9375H39.6562ZM46.4062 75.9375V81H51.4688V75.9375H46.4062ZM21.0938 77.625H22.7812V79.3125H21.0938V77.625ZM27.8438 77.625H29.5312V79.3125H27.8438V77.625ZM34.5938 77.625H36.2812V79.3125H34.5938V77.625ZM41.3438 77.625H43.0312V79.3125H41.3438V77.625ZM48.0938 77.625H49.7812V79.3125H48.0938V77.625ZM57.375 77.625V82.6875H62.4375V77.625H57.375ZM64.125 77.625V82.6875H69.1875V77.625H64.125ZM70.875 77.625V82.6875H75.9375V77.625H70.875ZM59.0625 79.3125H60.75V81H59.0625V79.3125ZM65.8125 79.3125H67.5V81H65.8125V79.3125ZM72.5625 79.3125H74.25V81H72.5625V79.3125ZM16.875 84.375H54V86.0625C54 87.0126 53.2626 87.75 52.3125 87.75H18.5625C17.6124 87.75 16.875 87.0126 16.875 86.0625V84.375Z" stroke="url(#paint4_linear_1_461)" stroke-width="4" mask="url(#path-1-inside-1_1_461)"/>
<defs>
<linearGradient id="paint0_linear_1_461" x1="20" y1="31.5" x2="88.5" y2="93.5" gradientUnits="userSpaceOnUse">
<stop offset="0.591913" stop-color="#FF03B8"/>
<stop offset="1" stop-color="#6D2AB1"/>
</linearGradient>
<linearGradient id="paint1_linear_1_461" x1="25.8003" y1="20.25" x2="74.8051" y2="41.533" gradientUnits="userSpaceOnUse">
<stop stop-color="#AD0B40" stop-opacity="0.878431"/>
<stop offset="1" stop-color="#FF1917"/>
</linearGradient>
<linearGradient id="paint2_linear_1_461" x1="25.8003" y1="20.25" x2="74.8051" y2="41.533" gradientUnits="userSpaceOnUse">
<stop stop-color="#AD0B40" stop-opacity="0.878431"/>
<stop offset="1" stop-color="#FF1917"/>
</linearGradient>
<linearGradient id="paint3_linear_1_461" x1="18.5" y1="63" x2="95.5" y2="64" gradientUnits="userSpaceOnUse">
<stop stop-color="#F442B7"/>
<stop offset="1" stop-color="#6A08C3"/>
</linearGradient>
<linearGradient id="paint4_linear_1_461" x1="25.8003" y1="20.25" x2="74.8051" y2="41.533" gradientUnits="userSpaceOnUse">
<stop stop-color="#AD0B40" stop-opacity="0.878431"/>
<stop offset="1" stop-color="#FF1917"/>
</linearGradient>
</defs>
</svg>
