<svg width="76" height="76" viewBox="0 0 76 76" fill="none" xmlns="http://www.w3.org/2000/svg">
<path d="M12.6667 4.75C8.23333 4.75 4.75 8.23333 4.75 12.6667C4.75 13.6167 5.38333 14.25 6.33333 14.25H17.4167V63.3333C17.4167 67.7667 20.9 71.25 25.3333 71.25H63.3333C67.7667 71.25 71.25 67.7667 71.25 63.3333C71.25 62.3833 70.6167 61.75 69.6667 61.75H64.9167V12.6667C64.9167 8.23333 61.4333 4.75 57 4.75H12.6667ZM12.6667 7.91667C14.725 7.91667 16.4667 9.18333 17.1 11.0833H8.23333C8.86667 9.18333 10.6083 7.91667 12.6667 7.91667ZM19 7.91667H57C59.6917 7.91667 61.75 9.975 61.75 12.6667V61.75H31.6667C30.7167 61.75 30.0833 62.3833 30.0833 63.3333C30.0833 66.025 28.025 68.0833 25.3333 68.0833C22.6417 68.0833 20.5833 66.025 20.5833 63.3333V12.6667C20.5833 10.925 19.95 9.18333 19 7.91667ZM31.6667 11.0833C30.7167 11.0833 30.0833 11.7167 30.0833 12.6667C30.0833 13.6167 30.7167 14.25 31.6667 14.25H45.9167C46.8667 14.25 47.5 13.6167 47.5 12.6667C47.5 11.7167 46.8667 11.0833 45.9167 11.0833H31.6667ZM25.3333 17.4167C24.3833 17.4167 23.75 18.05 23.75 19C23.75 19.95 24.3833 20.5833 25.3333 20.5833H57C57.95 20.5833 58.5833 19.95 58.5833 19C58.5833 18.05 57.95 17.4167 57 17.4167H25.3333ZM25.3333 23.75C24.3833 23.75 23.75 24.3833 23.75 25.3333C23.75 26.2833 24.3833 26.9167 25.3333 26.9167H57C57.95 26.9167 58.5833 26.2833 58.5833 25.3333C58.5833 24.3833 57.95 23.75 57 23.75H25.3333ZM25.3333 30.0833C24.3833 30.0833 23.75 30.7167 23.75 31.6667C23.75 32.6167 24.3833 33.25 25.3333 33.25H57C57.95 33.25 58.5833 32.6167 58.5833 31.6667C58.5833 30.7167 57.95 30.0833 57 30.0833H25.3333ZM25.3333 36.4167C24.3833 36.4167 23.75 37.05 23.75 38C23.75 38.95 24.3833 39.5833 25.3333 39.5833H57C57.95 39.5833 58.5833 38.95 58.5833 38C58.5833 37.05 57.95 36.4167 57 36.4167H25.3333ZM25.3333 42.75C24.3833 42.75 23.75 43.3833 23.75 44.3333C23.75 45.2833 24.3833 45.9167 25.3333 45.9167H57C57.95 45.9167 58.5833 45.2833 58.5833 44.3333C58.5833 43.3833 57.95 42.75 57 42.75H25.3333ZM25.3333 49.0833C24.3833 49.0833 23.75 49.7167 23.75 50.6667C23.75 51.6167 24.3833 52.25 25.3333 52.25H57C57.95 52.25 58.5833 51.6167 58.5833 50.6667C58.5833 49.7167 57.95 49.0833 57 49.0833H25.3333ZM25.3333 55.4167C24.3833 55.4167 23.75 56.05 23.75 57C23.75 57.95 24.3833 58.5833 25.3333 58.5833H31.6667C32.6167 58.5833 33.25 57.95 33.25 57C33.25 56.05 32.6167 55.4167 31.6667 55.4167H25.3333ZM50.6667 55.4167C49.7167 55.4167 49.0833 56.05 49.0833 57C49.0833 57.95 49.7167 58.5833 50.6667 58.5833H57C57.95 58.5833 58.5833 57.95 58.5833 57C58.5833 56.05 57.95 55.4167 57 55.4167H50.6667ZM33.0917 64.9167H67.7667C67.1333 66.8167 65.3917 68.0833 63.3333 68.0833H31.6667C32.3 67.1333 32.9333 66.025 33.0917 64.9167Z" fill="url(#paint0_linear_1_464)"/>
<path d="M12.6667 4.75C8.23333 4.75 4.75 8.23333 4.75 12.6667C4.75 13.6167 5.38333 14.25 6.33333 14.25H17.4167V63.3333C17.4167 67.7667 20.9 71.25 25.3333 71.25H63.3333C67.7667 71.25 71.25 67.7667 71.25 63.3333C71.25 62.3833 70.6167 61.75 69.6667 61.75H64.9167V12.6667C64.9167 8.23333 61.4333 4.75 57 4.75H12.6667ZM12.6667 7.91667C14.725 7.91667 16.4667 9.18333 17.1 11.0833H8.23333C8.86667 9.18333 10.6083 7.91667 12.6667 7.91667ZM19 7.91667H57C59.6917 7.91667 61.75 9.975 61.75 12.6667V61.75H31.6667C30.7167 61.75 30.0833 62.3833 30.0833 63.3333C30.0833 66.025 28.025 68.0833 25.3333 68.0833C22.6417 68.0833 20.5833 66.025 20.5833 63.3333V12.6667C20.5833 10.925 19.95 9.18333 19 7.91667ZM31.6667 11.0833C30.7167 11.0833 30.0833 11.7167 30.0833 12.6667C30.0833 13.6167 30.7167 14.25 31.6667 14.25H45.9167C46.8667 14.25 47.5 13.6167 47.5 12.6667C47.5 11.7167 46.8667 11.0833 45.9167 11.0833H31.6667ZM25.3333 17.4167C24.3833 17.4167 23.75 18.05 23.75 19C23.75 19.95 24.3833 20.5833 25.3333 20.5833H57C57.95 20.5833 58.5833 19.95 58.5833 19C58.5833 18.05 57.95 17.4167 57 17.4167H25.3333ZM25.3333 23.75C24.3833 23.75 23.75 24.3833 23.75 25.3333C23.75 26.2833 24.3833 26.9167 25.3333 26.9167H57C57.95 26.9167 58.5833 26.2833 58.5833 25.3333C58.5833 24.3833 57.95 23.75 57 23.75H25.3333ZM25.3333 30.0833C24.3833 30.0833 23.75 30.7167 23.75 31.6667C23.75 32.6167 24.3833 33.25 25.3333 33.25H57C57.95 33.25 58.5833 32.6167 58.5833 31.6667C58.5833 30.7167 57.95 30.0833 57 30.0833H25.3333ZM25.3333 36.4167C24.3833 36.4167 23.75 37.05 23.75 38C23.75 38.95 24.3833 39.5833 25.3333 39.5833H57C57.95 39.5833 58.5833 38.95 58.5833 38C58.5833 37.05 57.95 36.4167 57 36.4167H25.3333ZM25.3333 42.75C24.3833 42.75 23.75 43.3833 23.75 44.3333C23.75 45.2833 24.3833 45.9167 25.3333 45.9167H57C57.95 45.9167 58.5833 45.2833 58.5833 44.3333C58.5833 43.3833 57.95 42.75 57 42.75H25.3333ZM25.3333 49.0833C24.3833 49.0833 23.75 49.7167 23.75 50.6667C23.75 51.6167 24.3833 52.25 25.3333 52.25H57C57.95 52.25 58.5833 51.6167 58.5833 50.6667C58.5833 49.7167 57.95 49.0833 57 49.0833H25.3333ZM25.3333 55.4167C24.3833 55.4167 23.75 56.05 23.75 57C23.75 57.95 24.3833 58.5833 25.3333 58.5833H31.6667C32.6167 58.5833 33.25 57.95 33.25 57C33.25 56.05 32.6167 55.4167 31.6667 55.4167H25.3333ZM50.6667 55.4167C49.7167 55.4167 49.0833 56.05 49.0833 57C49.0833 57.95 49.7167 58.5833 50.6667 58.5833H57C57.95 58.5833 58.5833 57.95 58.5833 57C58.5833 56.05 57.95 55.4167 57 55.4167H50.6667ZM33.0917 64.9167H67.7667C67.1333 66.8167 65.3917 68.0833 63.3333 68.0833H31.6667C32.3 67.1333 32.9333 66.025 33.0917 64.9167Z" fill="url(#paint1_linear_1_464)"/>
<defs>
<linearGradient id="paint0_linear_1_464" x1="5" y1="8.5" x2="65" y2="62.5" gradientUnits="userSpaceOnUse">
<stop offset="0.354667" stop-color="#E53CB8"/>
<stop offset="1" stop-color="#700AC2"/>
</linearGradient>
<linearGradient id="paint1_linear_1_464" x1="13.8418" y1="4.75" x2="57.2391" y2="21.549" gradientUnits="userSpaceOnUse">
<stop stop-color="#AD0B40" stop-opacity="0.878431"/>
<stop offset="1" stop-color="#FF1917"/>
</linearGradient>
</defs>
</svg>
