<svg width="102" height="109" viewBox="0 0 102 109" fill="none" xmlns="http://www.w3.org/2000/svg">
<g clip-path="url(#clip0_1_624)">
<path d="M37.775 24.2829C34.1487 25.6869 31.0284 28.1487 28.819 31.3486C26.6097 34.5486 25.4136 38.3389 25.3859 42.2273C20.6005 44.0591 16.7387 47.7168 14.6502 52.3958C12.5616 57.0749 12.4173 62.3919 14.2491 67.1774C16.0808 71.9628 19.7386 75.8245 24.4176 77.9131C29.0966 80.0016 34.4137 80.1459 39.1991 78.3142C42.2325 81.6398 46.332 83.8019 50.7897 84.4272C55.2474 85.0524 59.7835 84.1015 63.6148 81.7386C67.4461 79.3758 70.3321 75.7493 71.7745 71.4854C73.2169 67.2214 73.1252 62.5876 71.5152 58.3841L71.2641 57.728C74.4363 57.4639 77.6295 57.8263 80.6619 58.7947C81.287 58.9816 81.9518 58.9908 82.5818 58.8211C83.2118 58.6514 83.7821 58.3097 84.2288 57.8341C84.6755 57.3585 84.9809 56.7679 85.1108 56.1285C85.2407 55.4892 85.1899 54.8262 84.9642 54.2141L75.521 29.5438C75.2855 28.9222 74.8784 28.3802 74.3471 27.9807C73.8158 27.5812 73.182 27.3407 72.5195 27.2871C71.8569 27.2334 71.1927 27.3689 70.6041 27.6778C70.0154 27.9866 69.5265 28.4561 69.1941 29.0318C67.6 31.7624 65.4878 34.1552 62.9762 36.0759L62.725 35.4197C60.8856 30.6403 57.227 26.7847 52.5506 24.6973C47.8742 22.6099 42.5611 22.4609 37.775 24.2829ZM76.1175 50.7548C72.9689 50.4628 69.7942 50.6508 66.702 51.3122C65.5831 50.222 64.3354 49.2723 62.9865 48.4842C63.4644 46.9968 63.759 45.4567 63.864 43.898C66.6075 42.3257 69.0963 40.3458 71.2452 38.026L76.1175 50.7548ZM55.3146 48.487L55.1526 48.8499L54.9906 49.2128L55.0785 49.4425L55.0093 50.146L55.0385 50.8118L55.5157 52.0585L55.9385 52.5736C56.0812 52.7501 56.2533 52.9006 56.4473 53.0183L56.5477 53.2808L56.9106 53.4428L57.2736 53.6048C59.1417 54.2125 60.8371 55.2591 62.2175 56.6568C63.598 58.0545 64.6235 59.7627 65.208 61.6383C65.7925 63.5139 65.919 65.5022 65.577 67.4367C65.235 69.3713 64.4343 71.1957 63.2422 72.7572C62.05 74.3186 60.501 75.5716 58.725 76.4113C56.9489 77.251 54.9975 77.6528 53.0342 77.5831C51.0709 77.5135 49.1529 76.9744 47.4408 76.0109C45.7287 75.0475 44.2724 73.6878 43.1939 72.0458C43.0511 71.8921 42.8962 71.7502 42.7305 71.6214C42.5793 71.4469 42.416 71.2832 42.2421 71.1313C42.0534 71.0098 41.8513 70.9104 41.6398 70.8353C41.254 70.6058 40.8067 70.5011 40.3591 70.5356C40.1459 70.4977 39.9283 70.4922 39.7135 70.5195C39.4837 70.5709 39.2627 70.6555 39.0573 70.7706C38.8657 70.8258 38.6791 70.8972 38.4996 70.9841C38.0206 71.2048 37.5274 71.3936 37.0234 71.5492C33.9781 72.7148 30.5945 72.623 27.6169 71.2939C24.6394 69.9649 22.3117 67.5074 21.1461 64.4621C19.9804 61.4169 20.0722 58.0333 21.4013 55.0557C22.7304 52.0781 25.1879 49.7505 28.2331 48.5848C28.7122 48.3641 29.2054 48.1753 29.7094 48.0198C29.8906 47.9703 30.0664 47.903 30.2343 47.8188C30.4753 47.7641 30.7073 47.6753 30.9232 47.5551C31.1013 47.432 31.2597 47.2826 31.393 47.112C31.7493 46.8388 32.0124 46.4622 32.1463 46.0338C32.2536 45.8366 32.3377 45.6277 32.397 45.4113C32.4251 45.1821 32.4373 44.9512 32.4334 44.7203C32.4591 44.5171 32.4687 44.3122 32.4621 44.1075C32.1686 42.165 32.3448 40.1805 32.976 38.3201C33.6072 36.4597 34.675 34.7777 36.09 33.4149C37.505 32.0521 39.2259 31.0482 41.1087 30.4874C42.9915 29.9265 44.9812 29.825 46.9113 30.1913C48.8414 30.5576 50.6556 31.3812 52.2019 32.5929C53.7483 33.8046 54.9817 35.3692 55.799 37.1557C56.6162 38.9422 56.9935 40.8985 56.8991 42.8608C56.8048 44.823 56.2416 46.7341 55.2567 48.4339L55.3146 48.487Z" fill="url(#paint0_linear_1_624)" fill-opacity="0.4"/>
<path d="M37.775 24.2829C34.1487 25.6869 31.0284 28.1487 28.819 31.3486C26.6097 34.5486 25.4136 38.3389 25.3859 42.2273C20.6005 44.0591 16.7387 47.7168 14.6502 52.3958C12.5616 57.0749 12.4173 62.3919 14.2491 67.1774C16.0808 71.9628 19.7386 75.8245 24.4176 77.9131C29.0966 80.0016 34.4137 80.1459 39.1991 78.3142C42.2325 81.6398 46.332 83.8019 50.7897 84.4272C55.2474 85.0524 59.7835 84.1015 63.6148 81.7386C67.4461 79.3758 70.3321 75.7493 71.7745 71.4854C73.2169 67.2214 73.1252 62.5876 71.5152 58.3841L71.2641 57.728C74.4363 57.4639 77.6295 57.8263 80.6619 58.7947C81.287 58.9816 81.9518 58.9908 82.5818 58.8211C83.2118 58.6514 83.7821 58.3097 84.2288 57.8341C84.6755 57.3585 84.9809 56.7679 85.1108 56.1285C85.2407 55.4892 85.1899 54.8262 84.9642 54.2141L75.521 29.5438C75.2855 28.9222 74.8784 28.3802 74.3471 27.9807C73.8158 27.5812 73.182 27.3407 72.5195 27.2871C71.8569 27.2334 71.1927 27.3689 70.6041 27.6778C70.0154 27.9866 69.5265 28.4561 69.1941 29.0318C67.6 31.7624 65.4878 34.1552 62.9762 36.0759L62.725 35.4197C60.8856 30.6403 57.227 26.7847 52.5506 24.6973C47.8742 22.6099 42.5611 22.4609 37.775 24.2829ZM76.1175 50.7548C72.9689 50.4628 69.7942 50.6508 66.702 51.3122C65.5831 50.222 64.3354 49.2723 62.9865 48.4842C63.4644 46.9968 63.759 45.4567 63.864 43.898C66.6075 42.3257 69.0963 40.3458 71.2452 38.026L76.1175 50.7548ZM55.3146 48.487L55.1526 48.8499L54.9906 49.2128L55.0785 49.4425L55.0093 50.146L55.0385 50.8118L55.5157 52.0585L55.9385 52.5736C56.0812 52.7501 56.2533 52.9006 56.4473 53.0183L56.5477 53.2808L56.9106 53.4428L57.2736 53.6048C59.1417 54.2125 60.8371 55.2591 62.2175 56.6568C63.598 58.0545 64.6235 59.7627 65.208 61.6383C65.7925 63.5139 65.919 65.5022 65.577 67.4367C65.235 69.3713 64.4343 71.1957 63.2422 72.7572C62.05 74.3186 60.501 75.5716 58.725 76.4113C56.9489 77.251 54.9975 77.6528 53.0342 77.5831C51.0709 77.5135 49.1529 76.9744 47.4408 76.0109C45.7287 75.0475 44.2724 73.6878 43.1939 72.0458C43.0511 71.8921 42.8962 71.7502 42.7305 71.6214C42.5793 71.4469 42.416 71.2832 42.2421 71.1313C42.0534 71.0098 41.8513 70.9104 41.6398 70.8353C41.254 70.6058 40.8067 70.5011 40.3591 70.5356C40.1459 70.4977 39.9283 70.4922 39.7135 70.5195C39.4837 70.5709 39.2627 70.6555 39.0573 70.7706C38.8657 70.8258 38.6791 70.8972 38.4996 70.9841C38.0206 71.2048 37.5274 71.3936 37.0234 71.5492C33.9781 72.7148 30.5945 72.623 27.6169 71.2939C24.6394 69.9649 22.3117 67.5074 21.1461 64.4621C19.9804 61.4169 20.0722 58.0333 21.4013 55.0557C22.7304 52.0781 25.1879 49.7505 28.2331 48.5848C28.7122 48.3641 29.2054 48.1753 29.7094 48.0198C29.8906 47.9703 30.0664 47.903 30.2343 47.8188C30.4753 47.7641 30.7073 47.6753 30.9232 47.5551C31.1013 47.432 31.2597 47.2826 31.393 47.112C31.7493 46.8388 32.0124 46.4622 32.1463 46.0338C32.2536 45.8366 32.3377 45.6277 32.397 45.4113C32.4251 45.1821 32.4373 44.9512 32.4334 44.7203C32.4591 44.5171 32.4687 44.3122 32.4621 44.1075C32.1686 42.165 32.3448 40.1805 32.976 38.3201C33.6072 36.4597 34.675 34.7777 36.09 33.4149C37.505 32.0521 39.2259 31.0482 41.1087 30.4874C42.9915 29.9265 44.9812 29.825 46.9113 30.1913C48.8414 30.5576 50.6556 31.3812 52.2019 32.5929C53.7483 33.8046 54.9817 35.3692 55.799 37.1557C56.6162 38.9422 56.9935 40.8985 56.8991 42.8608C56.8048 44.823 56.2416 46.7341 55.2567 48.4339L55.3146 48.487Z" fill="url(#paint1_linear_1_624)"/>
</g>
<defs>
<linearGradient id="paint0_linear_1_624" x1="14.2372" y1="67.1464" x2="80.2433" y2="41.8808" gradientUnits="userSpaceOnUse">
<stop stop-color="#A90D7D"/>
<stop offset="1" stop-color="#7128AE"/>
</linearGradient>
<linearGradient id="paint1_linear_1_624" x1="22.4492" y1="88.5999" x2="21.0071" y2="43.787" gradientUnits="userSpaceOnUse">
<stop stop-color="#AD0B40" stop-opacity="0.878431"/>
<stop offset="1" stop-color="#FF1917"/>
</linearGradient>
<clipPath id="clip0_1_624">
<rect width="84.3058" height="84.3058" fill="white" transform="translate(23.1379 108.873) rotate(-110.946)"/>
</clipPath>
</defs>
</svg>
